<svg id="Layer_1" data-name="Layer 1" xmlns="http://www.w3.org/2000/svg" viewBox="0 0 71.94 71.94"><defs><style>.cls-1{fill:#f05151;}.cls-2{fill:#9c2224;}.cls-3{fill:#231f20;}.cls-4{fill:#eb2227;}.cls-5{fill:#c72127;}</style></defs><title>wallpaper_color_r1</title><rect class="cls-1" y="0.06" width="71.94" height="71.94" transform="translate(71.94 72) rotate(180)"/><path class="cls-2" d="M34.63,7.18a1.48,1.48,0,0,0-1-.73,1.24,1.24,0,0,0-1,.27,1.26,1.26,0,0,0-.36.87,1.23,1.23,0,0,0,.17.8,1.09,1.09,0,0,0,.63.47,1,1,0,0,0,.87-.16.94.94,0,0,0,.35-.89.88.88,0,0,0-.5-.65.73.73,0,0,0-.75.1.58.58,0,0,0-.2.54.69.69,0,0,0,.25.33,1.2,1.2,0,0,0,.25.17L33.37,8l-.14-.07a.3.3,0,0,1,.34-.48.52.52,0,0,1,.36.46.63.63,0,0,1-.4.65.67.67,0,0,1-.62-.11.71.71,0,0,1-.23-.4.88.88,0,0,1,1.47-.88,1.1,1.1,0,0,1,.32.69,1.54,1.54,0,0,1-.41,1.31,1.54,1.54,0,0,1-1.12.38c-.19,0-.18,0-.54-.09a2.48,2.48,0,0,0-.94,0,1.31,1.31,0,0,0-.91.78c0,.14,0,.13-.05.34a2,2,0,0,1-.48.84,2.51,2.51,0,0,1-.28.27l-1.82-1.23L26.79,12a1.22,1.22,0,0,1-.42.81,1.12,1.12,0,0,1-.86.25L25.34,13a1.93,1.93,0,0,0-1.57.11,1.85,1.85,0,0,0-.81,1.1,1.79,1.79,0,0,0,.11,1.44,1.48,1.48,0,0,0,1,.73,1.24,1.24,0,0,0,1-.27,1.26,1.26,0,0,0,.36-.87,1.23,1.23,0,0,0-.17-.8,1.09,1.09,0,0,0-.63-.47,1,1,0,0,0-.87.16.94.94,0,0,0-.35.89.88.88,0,0,0,.5.65.73.73,0,0,0,.75-.1.58.58,0,0,0,.2-.54.69.69,0,0,0-.25-.33,1.2,1.2,0,0,0-.25-.17l-.05.35.14.07a.3.3,0,0,1-.34.48.52.52,0,0,1-.36-.46.63.63,0,0,1,.4-.65.67.67,0,0,1,.62.11.71.71,0,0,1,.23.4.88.88,0,0,1-1.47.88,1.1,1.1,0,0,1-.32-.69,1.41,1.41,0,0,1,1.53-1.69c.19,0,.18,0,.54.09a2.48,2.48,0,0,0,.94,0,1.31,1.31,0,0,0,.91-.78c0-.14,0-.13.05-.34a2,2,0,0,1,.48-.84,2.51,2.51,0,0,1,.28-.27l1.82,1.23,1.12-1.62a1.22,1.22,0,0,1,.42-.81,1.12,1.12,0,0,1,.86-.25l.17.05a1.93,1.93,0,0,0,1.57-.11,1.85,1.85,0,0,0,.81-1.1A1.79,1.79,0,0,0,34.63,7.18Z" transform="translate(0 -0.06)"/><path class="cls-2" d="M16.88,7.18a1.48,1.48,0,0,0-1-.73,1.24,1.24,0,0,0-1,.27,1.26,1.26,0,0,0-.36.87,1.23,1.23,0,0,0,.17.8,1.09,1.09,0,0,0,.63.47,1,1,0,0,0,.87-.16.94.94,0,0,0,.35-.89.88.88,0,0,0-.5-.65.73.73,0,0,0-.75.1.58.58,0,0,0-.2.54.69.69,0,0,0,.25.33,1.2,1.2,0,0,0,.25.17L15.63,8l-.14-.07a.3.3,0,0,1,.34-.48.52.52,0,0,1,.36.46.63.63,0,0,1-.4.65.67.67,0,0,1-.62-.11.71.71,0,0,1-.23-.4.88.88,0,0,1,1.47-.88,1.1,1.1,0,0,1,.32.69,1.54,1.54,0,0,1-.41,1.31,1.54,1.54,0,0,1-1.12.38c-.19,0-.18,0-.54-.09a2.48,2.48,0,0,0-.94,0,1.31,1.31,0,0,0-.91.78c0,.14,0,.13-.05.34a2,2,0,0,1-.48.84,2.51,2.51,0,0,1-.28.27l-1.82-1.23L9,12a1.22,1.22,0,0,1-.42.81,1.12,1.12,0,0,1-.86.25L7.6,13A1.93,1.93,0,0,0,6,13.13a1.85,1.85,0,0,0-.81,1.1,1.79,1.79,0,0,0,.11,1.44,1.48,1.48,0,0,0,1,.73,1.24,1.24,0,0,0,1-.27,1.26,1.26,0,0,0,.36-.87,1.23,1.23,0,0,0-.17-.8A1.09,1.09,0,0,0,6.91,14a1,1,0,0,0-.87.16.94.94,0,0,0-.35.89.88.88,0,0,0,.5.65.73.73,0,0,0,.75-.1.58.58,0,0,0,.2-.54.69.69,0,0,0-.25-.33,1.2,1.2,0,0,0-.25-.17l-.05.35.14.07a.3.3,0,0,1-.34.48A.52.52,0,0,1,6,15a.63.63,0,0,1,.4-.65.67.67,0,0,1,.62.11.71.71,0,0,1,.23.4,1,1,0,0,1-.34,1,1,1,0,0,1-1.14-.13A1.1,1.1,0,0,1,5.48,15a1.54,1.54,0,0,1,.41-1.31A1.54,1.54,0,0,1,7,13.35c.19,0,.18,0,.54.09a2.48,2.48,0,0,0,.94,0,1.31,1.31,0,0,0,.91-.78c0-.14,0-.13.05-.34a2,2,0,0,1,.48-.84,2.51,2.51,0,0,1,.28-.27L12,12.46l1.12-1.62a1.22,1.22,0,0,1,.42-.81,1.12,1.12,0,0,1,.86-.25l.17.05a1.93,1.93,0,0,0,1.57-.11A1.85,1.85,0,0,0,17,8.63,1.79,1.79,0,0,0,16.88,7.18Z" transform="translate(0 -0.06)"/><path class="cls-2" d="M52.55,7.18a1.48,1.48,0,0,0-1-.73,1.24,1.24,0,0,0-1,.27,1.26,1.26,0,0,0-.36.87,1.23,1.23,0,0,0,.17.8,1.09,1.09,0,0,0,.63.47,1,1,0,0,0,.87-.16.94.94,0,0,0,.35-.89.88.88,0,0,0-.5-.65.73.73,0,0,0-.75.1.58.58,0,0,0-.2.54.69.69,0,0,0,.25.33,1.2,1.2,0,0,0,.25.17L51.3,8l-.14-.07a.3.3,0,0,1,.34-.48.52.52,0,0,1,.36.46.63.63,0,0,1-.4.65.67.67,0,0,1-.62-.11A.71.71,0,0,1,50.6,8a.88.88,0,0,1,1.47-.88,1.1,1.1,0,0,1,.32.69A1.54,1.54,0,0,1,52,9.13a1.54,1.54,0,0,1-1.12.38c-.19,0-.18,0-.54-.09a2.48,2.48,0,0,0-.94,0,1.31,1.31,0,0,0-.91.78c0,.14,0,.13-.05.34a2,2,0,0,1-.48.84,2.51,2.51,0,0,1-.28.27l-1.82-1.23L44.71,12a1.22,1.22,0,0,1-.42.81,1.12,1.12,0,0,1-.86.25L43.27,13a1.93,1.93,0,0,0-1.57.11,1.85,1.85,0,0,0-.81,1.1A1.79,1.79,0,0,0,41,15.67a1.48,1.48,0,0,0,1,.73,1.24,1.24,0,0,0,1-.27,1.26,1.26,0,0,0,.36-.87,1.23,1.23,0,0,0-.17-.8,1.09,1.09,0,0,0-.63-.47,1,1,0,0,0-.87.16.94.94,0,0,0-.35.89.88.88,0,0,0,.5.65.73.73,0,0,0,.75-.1.58.58,0,0,0,.2-.54.69.69,0,0,0-.25-.33,1.2,1.2,0,0,0-.25-.17l-.05.35.14.07a.3.3,0,0,1-.34.48A.52.52,0,0,1,41.7,15a.63.63,0,0,1,.4-.65.67.67,0,0,1,.62.11.71.71,0,0,1,.23.4.88.88,0,0,1-1.47.88,1.1,1.1,0,0,1-.32-.69,1.41,1.41,0,0,1,1.53-1.69c.19,0,.18,0,.54.09a2.48,2.48,0,0,0,.94,0,1.31,1.31,0,0,0,.91-.78c0-.14,0-.13.05-.34a2,2,0,0,1,.48-.84,2.51,2.51,0,0,1,.28-.27l1.82,1.23,1.12-1.62a1.22,1.22,0,0,1,.42-.81,1.12,1.12,0,0,1,.86-.25l.17.05a1.93,1.93,0,0,0,1.57-.11,1.85,1.85,0,0,0,.81-1.1A1.79,1.79,0,0,0,52.55,7.18Z" transform="translate(0 -0.06)"/><path class="cls-2" d="M34.49,24.92a1.48,1.48,0,0,0-1-.73,1.24,1.24,0,0,0-1,.27,1.26,1.26,0,0,0-.36.87,1.23,1.23,0,0,0,.17.8,1.09,1.09,0,0,0,.63.47,1,1,0,0,0,.87-.16.94.94,0,0,0,.35-.89.88.88,0,0,0-.5-.65.73.73,0,0,0-.75.1.58.58,0,0,0-.2.54.69.69,0,0,0,.25.33,1.2,1.2,0,0,0,.25.17l.05-.35-.14-.07a.3.3,0,0,1,.34-.48.52.52,0,0,1,.36.46.63.63,0,0,1-.4.65.67.67,0,0,1-.62-.11.71.71,0,0,1-.23-.4A.88.88,0,0,1,34,24.85a1.1,1.1,0,0,1,.32.69,1.41,1.41,0,0,1-1.53,1.69c-.19,0-.18,0-.54-.09a2.48,2.48,0,0,0-.94,0,1.31,1.31,0,0,0-.91.78c0,.14,0,.13-.05.34a2,2,0,0,1-.48.84,2.51,2.51,0,0,1-.28.27l-1.82-1.23-1.12,1.62a1.22,1.22,0,0,1-.42.81,1.12,1.12,0,0,1-.86.25l-.17-.05a1.93,1.93,0,0,0-1.57.11,1.85,1.85,0,0,0-.81,1.1,1.79,1.79,0,0,0,.11,1.44,1.48,1.48,0,0,0,1,.73,1.24,1.24,0,0,0,1-.27,1.26,1.26,0,0,0,.36-.87,1.23,1.23,0,0,0-.17-.8,1.09,1.09,0,0,0-.63-.47,1,1,0,0,0-.87.16.94.94,0,0,0-.35.89.88.88,0,0,0,.5.65.73.73,0,0,0,.75-.1.58.58,0,0,0,.2-.54.69.69,0,0,0-.25-.33,1.2,1.2,0,0,0-.25-.17l-.05.35.14.07a.3.3,0,0,1-.34.48.52.52,0,0,1-.36-.46.63.63,0,0,1,.4-.65.67.67,0,0,1,.62.11.71.71,0,0,1,.23.4.88.88,0,0,1-1.47.88,1.1,1.1,0,0,1-.32-.69,1.41,1.41,0,0,1,1.53-1.69c.19,0,.18,0,.54.09a2.48,2.48,0,0,0,.94,0,1.31,1.31,0,0,0,.91-.78c0-.14,0-.13.05-.34a2,2,0,0,1,.48-.84,2.51,2.51,0,0,1,.28-.27l1.82,1.23,1.12-1.62a1.22,1.22,0,0,1,.42-.81,1.12,1.12,0,0,1,.86-.25l.17.05a1.93,1.93,0,0,0,1.57-.11,1.85,1.85,0,0,0,.81-1.1A1.79,1.79,0,0,0,34.49,24.92Z" transform="translate(0 -0.06)"/><path class="cls-2" d="M16.75,24.92a1.48,1.48,0,0,0-1-.73,1.24,1.24,0,0,0-1,.27,1.26,1.26,0,0,0-.36.87,1.23,1.23,0,0,0,.17.8,1.09,1.09,0,0,0,.63.47,1,1,0,0,0,.87-.16.94.94,0,0,0,.35-.89.88.88,0,0,0-.5-.65.73.73,0,0,0-.75.1.58.58,0,0,0-.2.54.69.69,0,0,0,.25.33,1.2,1.2,0,0,0,.25.17l.05-.35-.14-.07a.3.3,0,0,1,.34-.48.52.52,0,0,1,.36.46.63.63,0,0,1-.4.65.67.67,0,0,1-.62-.11.71.71,0,0,1-.23-.4.88.88,0,0,1,1.47-.88,1.1,1.1,0,0,1,.32.69,1.41,1.41,0,0,1-1.53,1.69c-.19,0-.18,0-.54-.09a2.48,2.48,0,0,0-.94,0,1.31,1.31,0,0,0-.91.78c0,.14,0,.13-.05.34a2,2,0,0,1-.48.84,2.51,2.51,0,0,1-.28.27L10,28.12,8.91,29.74a1.22,1.22,0,0,1-.42.81,1.12,1.12,0,0,1-.86.25l-.17-.05a1.93,1.93,0,0,0-1.57.11A1.85,1.85,0,0,0,5.08,32a1.79,1.79,0,0,0,.11,1.44,1.48,1.48,0,0,0,1,.73,1.24,1.24,0,0,0,1-.27A1.26,1.26,0,0,0,7.57,33a1.23,1.23,0,0,0-.17-.8,1.09,1.09,0,0,0-.63-.47,1,1,0,0,0-.87.16.94.94,0,0,0-.35.89.88.88,0,0,0,.5.65.73.73,0,0,0,.75-.1.58.58,0,0,0,.2-.54.69.69,0,0,0-.25-.33,1.2,1.2,0,0,0-.25-.17l-.05.35.14.07a.3.3,0,0,1-.34.48.52.52,0,0,1-.36-.46.63.63,0,0,1,.4-.65.67.67,0,0,1,.62.11.71.71,0,0,1,.23.4,1,1,0,0,1-.34,1,1,1,0,0,1-1.14-.13,1.1,1.1,0,0,1-.32-.69,1.54,1.54,0,0,1,.41-1.31,1.54,1.54,0,0,1,1.12-.38c.19,0,.18,0,.54.09a2.48,2.48,0,0,0,.94,0,1.31,1.31,0,0,0,.91-.78c0-.14,0-.13.05-.34a2,2,0,0,1,.48-.84,2.51,2.51,0,0,1,.28-.27l1.82,1.23L13,28.57a1.22,1.22,0,0,1,.42-.81,1.12,1.12,0,0,1,.86-.25l.17.05A1.93,1.93,0,0,0,16,27.45a1.85,1.85,0,0,0,.81-1.1A1.79,1.79,0,0,0,16.75,24.92Z" transform="translate(0 -0.06)"/><path class="cls-2" d="M52.42,24.92a1.48,1.48,0,0,0-1-.73,1.24,1.24,0,0,0-1,.27,1.26,1.26,0,0,0-.36.87,1.23,1.23,0,0,0,.17.8,1.09,1.09,0,0,0,.63.47,1,1,0,0,0,.87-.16.94.94,0,0,0,.35-.89.88.88,0,0,0-.5-.65.73.73,0,0,0-.75.1.58.58,0,0,0-.2.54.69.69,0,0,0,.25.33,1.2,1.2,0,0,0,.25.17l.05-.35L51,25.62a.3.3,0,0,1,.34-.48.52.52,0,0,1,.36.46.63.63,0,0,1-.4.65.67.67,0,0,1-.62-.11.71.71,0,0,1-.23-.4.88.88,0,0,1,1.47-.88,1.1,1.1,0,0,1,.32.69,1.41,1.41,0,0,1-1.53,1.69c-.19,0-.18,0-.54-.09a2.48,2.48,0,0,0-.94,0,1.31,1.31,0,0,0-.91.78c0,.14,0,.13-.05.34a2,2,0,0,1-.48.84,2.51,2.51,0,0,1-.28.27L45.7,28.12l-1.12,1.62a1.22,1.22,0,0,1-.42.81,1.12,1.12,0,0,1-.86.25l-.17-.05a1.93,1.93,0,0,0-1.57.11,1.85,1.85,0,0,0-.81,1.1,1.79,1.79,0,0,0,.11,1.44,1.48,1.48,0,0,0,1,.73,1.24,1.24,0,0,0,1-.27,1.26,1.26,0,0,0,.36-.87,1.23,1.23,0,0,0-.17-.8,1.09,1.09,0,0,0-.63-.47,1,1,0,0,0-.87.16.94.94,0,0,0-.35.89.88.88,0,0,0,.5.65.73.73,0,0,0,.75-.1.58.58,0,0,0,.2-.54.69.69,0,0,0-.25-.33,1.2,1.2,0,0,0-.25-.17l-.05.35.14.07a.3.3,0,0,1-.34.48.52.52,0,0,1-.36-.46.63.63,0,0,1,.4-.65.67.67,0,0,1,.62.11.71.71,0,0,1,.23.4.88.88,0,0,1-1.47.88,1.1,1.1,0,0,1-.32-.69,1.41,1.41,0,0,1,1.53-1.69c.19,0,.18,0,.54.09a2.48,2.48,0,0,0,.94,0,1.31,1.31,0,0,0,.91-.78c0-.14,0-.13.05-.34a2,2,0,0,1,.48-.84,2.51,2.51,0,0,1,.28-.27l1.82,1.23,1.12-1.62a1.22,1.22,0,0,1,.42-.81,1.12,1.12,0,0,1,.86-.25l.17.05a1.93,1.93,0,0,0,1.57-.11,1.85,1.85,0,0,0,.81-1.1A1.79,1.79,0,0,0,52.42,24.92Z" transform="translate(0 -0.06)"/><path class="cls-2" d="M34.63,43.3a1.48,1.48,0,0,0-1-.73,1.24,1.24,0,0,0-1,.27,1.26,1.26,0,0,0-.36.87,1.23,1.23,0,0,0,.17.8A1.09,1.09,0,0,0,33,45a1,1,0,0,0,.87-.16.94.94,0,0,0,.35-.89.88.88,0,0,0-.5-.65.73.73,0,0,0-.75.1.58.58,0,0,0-.2.54.69.69,0,0,0,.25.33,1.2,1.2,0,0,0,.25.17l.05-.35L33.23,44a.3.3,0,0,1,.34-.48.52.52,0,0,1,.36.46.63.63,0,0,1-.4.65.67.67,0,0,1-.62-.11.71.71,0,0,1-.23-.4.88.88,0,0,1,1.47-.88,1.1,1.1,0,0,1,.32.69,1.41,1.41,0,0,1-1.53,1.69c-.19,0-.18,0-.54-.09a2.48,2.48,0,0,0-.94,0,1.31,1.31,0,0,0-.91.78c0,.14,0,.13-.05.34a2,2,0,0,1-.48.84,2.51,2.51,0,0,1-.28.27L27.91,46.5l-1.12,1.62a1.22,1.22,0,0,1-.42.81,1.12,1.12,0,0,1-.86.25l-.17-.05a1.93,1.93,0,0,0-1.57.11,1.85,1.85,0,0,0-.81,1.1,1.79,1.79,0,0,0,.11,1.44,1.48,1.48,0,0,0,1,.73,1.24,1.24,0,0,0,1-.27,1.26,1.26,0,0,0,.36-.87,1.23,1.23,0,0,0-.17-.8,1.09,1.09,0,0,0-.63-.47,1,1,0,0,0-.87.16.94.94,0,0,0-.35.89.88.88,0,0,0,.5.65.73.73,0,0,0,.75-.1.58.58,0,0,0,.2-.54.69.69,0,0,0-.25-.33,1.2,1.2,0,0,0-.25-.17l-.05.35.14.07a.3.3,0,0,1-.34.48.52.52,0,0,1-.36-.46.63.63,0,0,1,.4-.65.67.67,0,0,1,.62.11A.71.71,0,0,1,25,51a.88.88,0,0,1-1.47.88,1.1,1.1,0,0,1-.32-.69,1.41,1.41,0,0,1,1.53-1.69c.19,0,.18,0,.54.09a2.48,2.48,0,0,0,.94,0,1.31,1.31,0,0,0,.91-.78c0-.14,0-.13.05-.34a2,2,0,0,1,.48-.84,2.51,2.51,0,0,1,.28-.27l1.82,1.23L30.91,47a1.22,1.22,0,0,1,.42-.81,1.12,1.12,0,0,1,.86-.25l.17.05a1.93,1.93,0,0,0,1.57-.11,1.85,1.85,0,0,0,.81-1.1A1.79,1.79,0,0,0,34.63,43.3Z" transform="translate(0 -0.06)"/><path class="cls-2" d="M16.88,43.3a1.48,1.48,0,0,0-1-.73,1.24,1.24,0,0,0-1,.27,1.26,1.26,0,0,0-.36.87,1.23,1.23,0,0,0,.17.8,1.09,1.09,0,0,0,.63.47,1,1,0,0,0,.87-.16.94.94,0,0,0,.35-.89.88.88,0,0,0-.5-.65.73.73,0,0,0-.75.1.58.58,0,0,0-.2.54.69.69,0,0,0,.25.33,1.2,1.2,0,0,0,.25.17l.05-.35L15.49,44a.3.3,0,0,1,.34-.48.52.52,0,0,1,.36.46.63.63,0,0,1-.4.65.67.67,0,0,1-.62-.11.71.71,0,0,1-.23-.4.88.88,0,0,1,1.47-.88,1.1,1.1,0,0,1,.32.69,1.41,1.41,0,0,1-1.53,1.69c-.19,0-.18,0-.54-.09a2.48,2.48,0,0,0-.94,0,1.31,1.31,0,0,0-.91.78c0,.14,0,.13-.05.34a2,2,0,0,1-.48.84,2.51,2.51,0,0,1-.28.27L10.17,46.5,9,48.12a1.22,1.22,0,0,1-.42.81,1.12,1.12,0,0,1-.86.25l-.17-.05A1.93,1.93,0,0,0,6,49.24a1.85,1.85,0,0,0-.81,1.1,1.79,1.79,0,0,0,.11,1.44,1.48,1.48,0,0,0,1,.73,1.24,1.24,0,0,0,1-.27,1.26,1.26,0,0,0,.36-.87,1.23,1.23,0,0,0-.17-.8,1.09,1.09,0,0,0-.63-.47,1,1,0,0,0-.87.16.94.94,0,0,0-.35.89.88.88,0,0,0,.5.65.73.73,0,0,0,.75-.1.58.58,0,0,0,.2-.54.69.69,0,0,0-.25-.33,1.2,1.2,0,0,0-.25-.17L6.58,51l.14.07a.3.3,0,0,1-.34.48A.52.52,0,0,1,6,51.1a.63.63,0,0,1,.4-.65.67.67,0,0,1,.62.11.71.71,0,0,1,.23.4,1,1,0,0,1-.34,1,1,1,0,0,1-1.14-.13,1.1,1.1,0,0,1-.32-.69,1.54,1.54,0,0,1,.41-1.31A1.54,1.54,0,0,1,7,49.46c.19,0,.18,0,.54.09a2.48,2.48,0,0,0,.94,0,1.31,1.31,0,0,0,.91-.78c0-.14,0-.13.05-.34a2,2,0,0,1,.48-.84,2.51,2.51,0,0,1,.28-.27L12,48.57,13.17,47a1.22,1.22,0,0,1,.42-.81,1.12,1.12,0,0,1,.86-.25l.17.05a1.93,1.93,0,0,0,1.57-.11,1.85,1.85,0,0,0,.81-1.1A1.79,1.79,0,0,0,16.88,43.3Z" transform="translate(0 -0.06)"/><path class="cls-2" d="M52.55,43.3a1.48,1.48,0,0,0-1-.73,1.24,1.24,0,0,0-1,.27,1.26,1.26,0,0,0-.36.87,1.23,1.23,0,0,0,.17.8A1.09,1.09,0,0,0,51,45a1,1,0,0,0,.87-.16.94.94,0,0,0,.35-.89.88.88,0,0,0-.5-.65.73.73,0,0,0-.75.1.58.58,0,0,0-.2.54.69.69,0,0,0,.25.33,1.2,1.2,0,0,0,.25.17l.05-.35L51.16,44a.3.3,0,0,1,.34-.48.52.52,0,0,1,.36.46.63.63,0,0,1-.4.65.67.67,0,0,1-.62-.11.71.71,0,0,1-.23-.4.88.88,0,0,1,1.47-.88,1.1,1.1,0,0,1,.32.69,1.41,1.41,0,0,1-1.53,1.69c-.19,0-.18,0-.54-.09a2.48,2.48,0,0,0-.94,0,1.31,1.31,0,0,0-.91.78c0,.14,0,.13-.05.34a2,2,0,0,1-.48.84,2.51,2.51,0,0,1-.28.27L45.83,46.5l-1.12,1.62a1.22,1.22,0,0,1-.42.81,1.12,1.12,0,0,1-.86.25l-.17-.05a1.93,1.93,0,0,0-1.57.11,1.85,1.85,0,0,0-.81,1.1A1.79,1.79,0,0,0,41,51.78a1.48,1.48,0,0,0,1,.73,1.24,1.24,0,0,0,1-.27,1.26,1.26,0,0,0,.36-.87,1.23,1.23,0,0,0-.17-.8,1.09,1.09,0,0,0-.63-.47,1,1,0,0,0-.87.16.94.94,0,0,0-.35.89.88.88,0,0,0,.5.65.73.73,0,0,0,.75-.1.58.58,0,0,0,.2-.54.69.69,0,0,0-.25-.33,1.2,1.2,0,0,0-.25-.17l-.05.35.14.07a.3.3,0,0,1-.34.48.52.52,0,0,1-.36-.46.63.63,0,0,1,.4-.65.67.67,0,0,1,.62.11.71.71,0,0,1,.23.4.88.88,0,0,1-1.47.88,1.1,1.1,0,0,1-.32-.69,1.41,1.41,0,0,1,1.53-1.69c.19,0,.18,0,.54.09a2.48,2.48,0,0,0,.94,0,1.31,1.31,0,0,0,.91-.78c0-.14,0-.13.05-.34a2,2,0,0,1,.48-.84,2.51,2.51,0,0,1,.28-.27l1.82,1.23L48.84,47a1.22,1.22,0,0,1,.42-.81,1.12,1.12,0,0,1,.86-.25l.17.05a1.93,1.93,0,0,0,1.57-.11,1.85,1.85,0,0,0,.81-1.1A1.79,1.79,0,0,0,52.55,43.3Z" transform="translate(0 -0.06)"/><path class="cls-3" d="M59.66,69.59l-.1-.1h-.29l.06.1Z" transform="translate(0 -0.06)"/><path class="cls-3" d="M59.26,69.49h-.38l0,.1h.39Z" transform="translate(0 -0.06)"/><polygon class="cls-4" points="12.8 56.57 13.34 57.08 12.68 57.75 10.45 55.61 9.92 55.09 10.57 54.42 12.8 56.57"/><polygon class="cls-4" points="30.55 56.54 31.11 57.04 30.46 57.73 28.18 55.64 27.63 55.13 28.27 54.45 30.55 56.54"/><polygon class="cls-5" points="48.46 56.59 48.99 57.12 48.31 57.77 46.13 55.59 45.61 55.06 46.28 54.4 48.46 56.59"/><polygon class="cls-4" points="66.44 56.46 67 56.95 66.36 57.65 64.06 55.59 63.51 55.09 64.14 54.4 66.44 56.46"/><circle class="cls-4" cx="1.61" cy="11.37" r="1.11"/><circle class="cls-5" cx="19.98" cy="11.37" r="1.11"/><circle class="cls-5" cx="37.81" cy="11.37" r="1.11"/><circle class="cls-4" cx="55.79" cy="11.37" r="1.11"/><circle class="cls-5" cx="1.57" cy="29.08" r="1.11"/><circle class="cls-4" cx="19.94" cy="29.08" r="1.11"/><circle class="cls-4" cx="37.77" cy="29.08" r="1.11"/><circle class="cls-5" cx="55.75" cy="29.08" r="1.11"/><circle class="cls-4" cx="1.87" cy="47.33" r="1.11"/><circle class="cls-5" cx="20.23" cy="47.33" r="1.11"/><circle class="cls-5" cx="38.07" cy="47.33" r="1.11"/><circle class="cls-4" cx="56.05" cy="47.33" r="1.11"/><circle class="cls-5" cx="1.83" cy="65.05" r="1.11"/><circle class="cls-4" cx="20.19" cy="65.05" r="1.11"/><circle class="cls-4" cx="38.03" cy="65.05" r="1.11"/><circle class="cls-5" cx="56.01" cy="65.05" r="1.11"/><polygon class="cls-5" points="12.8 38.41 13.34 38.92 12.68 39.59 10.46 37.45 9.92 36.93 10.58 36.26 12.8 38.41"/><polygon class="cls-5" points="30.55 38.38 31.11 38.88 30.46 39.57 28.18 37.48 27.64 36.98 28.28 36.29 30.55 38.38"/><polygon class="cls-4" points="48.46 38.43 48.99 38.95 48.31 39.61 46.13 37.43 45.61 36.9 46.28 36.24 48.46 38.43"/><polygon class="cls-5" points="66.44 38.3 67 38.79 66.36 39.49 64.06 37.43 63.51 36.93 64.14 36.24 66.44 38.3"/><polygon class="cls-4" points="12.8 20.93 13.35 21.45 12.68 22.12 10.46 19.98 9.92 19.46 10.58 18.79 12.8 20.93"/><polygon class="cls-4" points="30.56 20.9 31.11 21.4 30.46 22.09 28.19 20.01 27.64 19.5 28.28 18.82 30.56 20.9"/><polygon class="cls-5" points="48.46 20.95 48.99 21.48 48.31 22.14 46.14 19.95 45.61 19.42 46.28 18.77 48.46 20.95"/><polygon class="cls-4" points="66.45 20.82 67.01 21.32 66.37 22.02 64.07 19.96 63.51 19.46 64.14 18.77 66.45 20.82"/><polygon class="cls-5" points="12.81 2.86 13.35 3.38 12.68 4.05 10.46 1.91 9.93 1.39 10.58 0.72 12.81 2.86"/><polygon class="cls-5" points="30.56 2.83 31.11 3.33 30.47 4.02 28.19 1.94 27.64 1.43 28.28 0.75 30.56 2.83"/><polygon class="cls-4" points="48.47 2.89 49 3.41 48.32 4.07 46.14 1.89 45.62 1.35 46.29 0.7 48.47 2.89"/><polygon class="cls-5" points="66.45 2.76 67.01 3.25 66.37 3.95 64.07 1.89 63.51 1.39 64.15 0.7 66.45 2.76"/><path class="cls-2" d="M70.69,7.27a1.48,1.48,0,0,0-1-.73,1.24,1.24,0,0,0-1,.27,1.26,1.26,0,0,0-.36.87,1.23,1.23,0,0,0,.17.8,1.09,1.09,0,0,0,.63.47A1,1,0,0,0,70,8.79a.94.94,0,0,0,.35-.89.88.88,0,0,0-.5-.65.73.73,0,0,0-.75.1.58.58,0,0,0-.2.54.69.69,0,0,0,.25.33,1.2,1.2,0,0,0,.25.17L69.43,8,69.29,8a.3.3,0,0,1,.34-.48.52.52,0,0,1,.36.46.63.63,0,0,1-.4.65A.67.67,0,0,1,69,8.49a.71.71,0,0,1-.23-.4.88.88,0,0,1,1.47-.88,1.1,1.1,0,0,1,.32.69,1.54,1.54,0,0,1-.41,1.31A1.54,1.54,0,0,1,69,9.59c-.19,0-.18,0-.54-.09a2.48,2.48,0,0,0-.94,0,1.31,1.31,0,0,0-.91.78c0,.14,0,.13-.05.34a2,2,0,0,1-.48.84,2.51,2.51,0,0,1-.28.27L64,10.47l-1.12,1.62a1.22,1.22,0,0,1-.42.81,1.12,1.12,0,0,1-.86.25l-.17-.05a1.93,1.93,0,0,0-1.57.11,1.85,1.85,0,0,0-.81,1.1,1.79,1.79,0,0,0,.11,1.44,1.48,1.48,0,0,0,1,.73,1.24,1.24,0,0,0,1-.27,1.26,1.26,0,0,0,.36-.87,1.23,1.23,0,0,0-.17-.8,1.09,1.09,0,0,0-.63-.47,1,1,0,0,0-.87.16.94.94,0,0,0-.35.89.88.88,0,0,0,.5.65.73.73,0,0,0,.75-.1.58.58,0,0,0,.2-.54.69.69,0,0,0-.25-.33,1.2,1.2,0,0,0-.25-.17l-.05.35.14.07a.3.3,0,0,1-.34.48.52.52,0,0,1-.36-.46.63.63,0,0,1,.4-.65.67.67,0,0,1,.62.11.71.71,0,0,1,.23.4.88.88,0,0,1-1.47.88,1.1,1.1,0,0,1-.32-.69,1.41,1.41,0,0,1,1.53-1.69c.19,0,.18,0,.54.09a2.48,2.48,0,0,0,.94,0,1.31,1.31,0,0,0,.91-.78c0-.14,0-.13.05-.34a2,2,0,0,1,.48-.84,2.51,2.51,0,0,1,.28-.27l1.82,1.23L67,10.93a1.22,1.22,0,0,1,.42-.81,1.12,1.12,0,0,1,.86-.25l.17.05A1.93,1.93,0,0,0,70,9.8a1.85,1.85,0,0,0,.81-1.1A1.79,1.79,0,0,0,70.69,7.27Z" transform="translate(0 -0.06)"/><path class="cls-2" d="M70.55,25a1.48,1.48,0,0,0-1-.73,1.24,1.24,0,0,0-1,.27,1.26,1.26,0,0,0-.36.87,1.23,1.23,0,0,0,.17.8,1.09,1.09,0,0,0,.63.47,1,1,0,0,0,.87-.16.94.94,0,0,0,.35-.89.88.88,0,0,0-.5-.65.73.73,0,0,0-.75.1.58.58,0,0,0-.2.54A.69.69,0,0,0,69,26a1.2,1.2,0,0,0,.25.17l.05-.35-.14-.07a.3.3,0,0,1,.34-.48.52.52,0,0,1,.36.46.63.63,0,0,1-.4.65.67.67,0,0,1-.62-.11.71.71,0,0,1-.23-.4.88.88,0,0,1,1.47-.88,1.1,1.1,0,0,1,.32.69,1.41,1.41,0,0,1-1.53,1.69c-.19,0-.18,0-.54-.09a2.48,2.48,0,0,0-.94,0,1.31,1.31,0,0,0-.91.78c0,.14,0,.13-.05.34a2,2,0,0,1-.48.84,2.51,2.51,0,0,1-.28.27L63.83,28.2l-1.12,1.62a1.22,1.22,0,0,1-.42.81,1.12,1.12,0,0,1-.86.25l-.17-.05a1.93,1.93,0,0,0-1.57.11,1.85,1.85,0,0,0-.81,1.1A1.79,1.79,0,0,0,59,33.48a1.48,1.48,0,0,0,1,.73,1.24,1.24,0,0,0,1-.27,1.26,1.26,0,0,0,.36-.87,1.23,1.23,0,0,0-.17-.8,1.09,1.09,0,0,0-.63-.47,1,1,0,0,0-.87.16.94.94,0,0,0-.35.89.88.88,0,0,0,.5.65.73.73,0,0,0,.75-.1.58.58,0,0,0,.2-.54.69.69,0,0,0-.25-.33,1.2,1.2,0,0,0-.25-.17l-.05.35.14.07a.3.3,0,0,1-.34.48.52.52,0,0,1-.36-.46.63.63,0,0,1,.4-.65.67.67,0,0,1,.62.11.71.71,0,0,1,.23.4.88.88,0,0,1-1.47.88,1.1,1.1,0,0,1-.32-.69,1.41,1.41,0,0,1,1.53-1.69c.19,0,.18,0,.54.09a2.48,2.48,0,0,0,.94,0,1.31,1.31,0,0,0,.91-.78c0-.14,0-.13.05-.34a2,2,0,0,1,.48-.84,2.51,2.51,0,0,1,.28-.27l1.82,1.23,1.12-1.62a1.22,1.22,0,0,1,.42-.81,1.12,1.12,0,0,1,.86-.25l.17.05a1.93,1.93,0,0,0,1.57-.11,1.85,1.85,0,0,0,.81-1.1A1.79,1.79,0,0,0,70.55,25Z" transform="translate(0 -0.06)"/><path class="cls-2" d="M70.69,43.38a1.48,1.48,0,0,0-1-.73,1.24,1.24,0,0,0-1,.27,1.26,1.26,0,0,0-.36.87,1.23,1.23,0,0,0,.17.8,1.09,1.09,0,0,0,.63.47A1,1,0,0,0,70,44.9a.94.94,0,0,0,.35-.89.88.88,0,0,0-.5-.65.73.73,0,0,0-.75.1.58.58,0,0,0-.2.54.69.69,0,0,0,.25.33,1.2,1.2,0,0,0,.25.17l.05-.35-.14-.07a.3.3,0,0,1,.34-.48.52.52,0,0,1,.36.46.63.63,0,0,1-.4.65A.67.67,0,0,1,69,44.6a.71.71,0,0,1-.23-.4.88.88,0,0,1,1.47-.88,1.1,1.1,0,0,1,.32.69A1.41,1.41,0,0,1,69,45.7c-.19,0-.18,0-.54-.09a2.48,2.48,0,0,0-.94,0,1.31,1.31,0,0,0-.91.78c0,.14,0,.13-.05.34a2,2,0,0,1-.48.84,2.51,2.51,0,0,1-.28.27L64,46.58,62.85,48.2a1.22,1.22,0,0,1-.42.81,1.12,1.12,0,0,1-.86.25l-.17-.05a1.93,1.93,0,0,0-1.57.11,1.85,1.85,0,0,0-.81,1.1,1.79,1.79,0,0,0,.11,1.44,1.48,1.48,0,0,0,1,.73,1.24,1.24,0,0,0,1-.27,1.26,1.26,0,0,0,.36-.87,1.23,1.23,0,0,0-.17-.8,1.09,1.09,0,0,0-.63-.47,1,1,0,0,0-.87.16.94.94,0,0,0-.35.89.88.88,0,0,0,.5.65.73.73,0,0,0,.75-.1.58.58,0,0,0,.2-.54.69.69,0,0,0-.25-.33,1.2,1.2,0,0,0-.25-.17l-.05.35.14.07a.3.3,0,0,1-.34.48.52.52,0,0,1-.36-.46.63.63,0,0,1,.4-.65.67.67,0,0,1,.62.11.71.71,0,0,1,.23.4.88.88,0,0,1-1.47.88,1.1,1.1,0,0,1-.32-.69,1.41,1.41,0,0,1,1.53-1.69c.19,0,.18,0,.54.09a2.48,2.48,0,0,0,.94,0,1.31,1.31,0,0,0,.91-.78c0-.14,0-.13.05-.34a2,2,0,0,1,.48-.84,2.51,2.51,0,0,1,.28-.27l1.82,1.23L67,47a1.22,1.22,0,0,1,.42-.81,1.12,1.12,0,0,1,.86-.25l.17.05A1.93,1.93,0,0,0,70,45.92a1.85,1.85,0,0,0,.81-1.1A1.79,1.79,0,0,0,70.69,43.38Z" transform="translate(0 -0.06)"/><path class="cls-2" d="M70.5,61.14a1.48,1.48,0,0,0-1-.73,1.24,1.24,0,0,0-1,.27,1.26,1.26,0,0,0-.36.87,1.23,1.23,0,0,0,.17.8,1.09,1.09,0,0,0,.63.47,1,1,0,0,0,.87-.16.94.94,0,0,0,.35-.89.88.88,0,0,0-.5-.65.73.73,0,0,0-.75.1.58.58,0,0,0-.2.54.69.69,0,0,0,.25.33,1.2,1.2,0,0,0,.25.17l.05-.35-.14-.07a.3.3,0,0,1,.34-.48.52.52,0,0,1,.36.46.63.63,0,0,1-.4.65.67.67,0,0,1-.62-.11.71.71,0,0,1-.23-.4A.88.88,0,0,1,70,61.08a1.1,1.1,0,0,1,.32.69,1.41,1.41,0,0,1-1.53,1.69c-.19,0-.18,0-.54-.09a2.48,2.48,0,0,0-.94,0,1.31,1.31,0,0,0-.91.78c0,.14,0,.13-.05.34a2,2,0,0,1-.48.84,2.51,2.51,0,0,1-.28.27l-1.82-1.23L62.66,66a1.22,1.22,0,0,1-.42.81,1.12,1.12,0,0,1-.86.25L61.21,67a1.93,1.93,0,0,0-1.57.11,1.85,1.85,0,0,0-.81,1.1,1.79,1.79,0,0,0,.11,1.44,1.48,1.48,0,0,0,1,.73,1.24,1.24,0,0,0,1-.27,1.26,1.26,0,0,0,.36-.87,1.23,1.23,0,0,0-.17-.8,1.09,1.09,0,0,0-.63-.47,1,1,0,0,0-.87.16.94.94,0,0,0-.35.89.88.88,0,0,0,.5.65.73.73,0,0,0,.75-.1.58.58,0,0,0,.2-.54.69.69,0,0,0-.25-.33,1.2,1.2,0,0,0-.25-.17l-.05.35.14.07a.3.3,0,0,1-.34.48.52.52,0,0,1-.36-.46.63.63,0,0,1,.4-.65.67.67,0,0,1,.62.11.71.71,0,0,1,.23.4.88.88,0,0,1-1.47.88A1.1,1.1,0,0,1,59.1,69a1.41,1.41,0,0,1,1.53-1.69c.19,0,.18,0,.54.09a2.48,2.48,0,0,0,.94,0,1.31,1.31,0,0,0,.91-.78c0-.14,0-.13.05-.34a2,2,0,0,1,.48-.84,2.51,2.51,0,0,1,.28-.27l1.82,1.23,1.12-1.62A1.22,1.22,0,0,1,67.2,64a1.12,1.12,0,0,1,.86-.25l.17.05a1.93,1.93,0,0,0,1.57-.11,1.85,1.85,0,0,0,.81-1.1A1.79,1.79,0,0,0,70.5,61.14Z" transform="translate(0 -0.06)"/><path class="cls-2" d="M34.63,61.14a1.48,1.48,0,0,0-1-.73,1.24,1.24,0,0,0-1,.27,1.26,1.26,0,0,0-.36.87,1.23,1.23,0,0,0,.17.8,1.09,1.09,0,0,0,.63.47,1,1,0,0,0,.87-.16.94.94,0,0,0,.35-.89.88.88,0,0,0-.5-.65.73.73,0,0,0-.75.1.58.58,0,0,0-.2.54.69.69,0,0,0,.25.33,1.2,1.2,0,0,0,.25.17l.05-.35-.14-.07a.3.3,0,0,1,.34-.48.52.52,0,0,1,.36.46.63.63,0,0,1-.4.65.67.67,0,0,1-.62-.11.71.71,0,0,1-.23-.4.88.88,0,0,1,1.47-.88,1.1,1.1,0,0,1,.32.69,1.41,1.41,0,0,1-1.53,1.69c-.19,0-.18,0-.54-.09a2.48,2.48,0,0,0-.94,0,1.31,1.31,0,0,0-.91.78c0,.14,0,.13-.05.34a2,2,0,0,1-.48.84,2.51,2.51,0,0,1-.28.27l-1.82-1.23L26.79,66a1.22,1.22,0,0,1-.42.81,1.12,1.12,0,0,1-.86.25L25.34,67a1.93,1.93,0,0,0-1.57.11,1.85,1.85,0,0,0-.81,1.1,1.79,1.79,0,0,0,.11,1.44,1.48,1.48,0,0,0,1,.73,1.24,1.24,0,0,0,1-.27,1.26,1.26,0,0,0,.36-.87,1.23,1.23,0,0,0-.17-.8,1.09,1.09,0,0,0-.63-.47,1,1,0,0,0-.87.16.94.94,0,0,0-.35.89.88.88,0,0,0,.5.65.73.73,0,0,0,.75-.1.58.58,0,0,0,.2-.54.69.69,0,0,0-.25-.33,1.2,1.2,0,0,0-.25-.17l-.05.35.14.07a.3.3,0,0,1-.34.48.52.52,0,0,1-.36-.46.63.63,0,0,1,.4-.65.67.67,0,0,1,.62.11.71.71,0,0,1,.23.4.88.88,0,0,1-1.47.88,1.1,1.1,0,0,1-.32-.69,1.41,1.41,0,0,1,1.53-1.69c.19,0,.18,0,.54.09a2.48,2.48,0,0,0,.94,0,1.31,1.31,0,0,0,.91-.78c0-.14,0-.13.05-.34a2,2,0,0,1,.48-.84A2.51,2.51,0,0,1,28,65.2l1.82,1.23,1.12-1.62a1.22,1.22,0,0,1,.42-.81,1.12,1.12,0,0,1,.86-.25l.17.05a1.93,1.93,0,0,0,1.57-.11,1.85,1.85,0,0,0,.81-1.1A1.79,1.79,0,0,0,34.63,61.14Z" transform="translate(0 -0.06)"/><path class="cls-2" d="M16.89,61.14a1.48,1.48,0,0,0-1-.73,1.24,1.24,0,0,0-1,.27,1.26,1.26,0,0,0-.36.87,1.23,1.23,0,0,0,.17.8,1.09,1.09,0,0,0,.63.47,1,1,0,0,0,.87-.16.94.94,0,0,0,.35-.89.88.88,0,0,0-.5-.65.73.73,0,0,0-.75.1.58.58,0,0,0-.2.54.69.69,0,0,0,.25.33,1.2,1.2,0,0,0,.25.17l.05-.35-.14-.07a.3.3,0,0,1,.34-.48.52.52,0,0,1,.36.46.63.63,0,0,1-.4.65.67.67,0,0,1-.62-.11.71.71,0,0,1-.23-.4.88.88,0,0,1,1.47-.88,1.1,1.1,0,0,1,.32.69,1.41,1.41,0,0,1-1.53,1.69c-.19,0-.18,0-.54-.09a2.48,2.48,0,0,0-.94,0,1.31,1.31,0,0,0-.91.78c0,.14,0,.13-.05.34a2,2,0,0,1-.48.84,2.51,2.51,0,0,1-.28.27l-1.82-1.23L9,66a1.22,1.22,0,0,1-.42.81,1.12,1.12,0,0,1-.86.25L7.6,67A1.93,1.93,0,0,0,6,67.09a1.85,1.85,0,0,0-.81,1.1,1.79,1.79,0,0,0,.11,1.44,1.48,1.48,0,0,0,1,.73,1.24,1.24,0,0,0,1-.27,1.26,1.26,0,0,0,.36-.87,1.23,1.23,0,0,0-.17-.8,1.09,1.09,0,0,0-.63-.47A1,1,0,0,0,6,68.1a.94.94,0,0,0-.35.89.88.88,0,0,0,.5.65.73.73,0,0,0,.75-.1.58.58,0,0,0,.2-.54.69.69,0,0,0-.25-.33,1.2,1.2,0,0,0-.25-.17l-.05.35.14.07a.3.3,0,0,1-.34.48A.52.52,0,0,1,6,68.95a.63.63,0,0,1,.4-.65.67.67,0,0,1,.62.11.71.71,0,0,1,.23.4,1,1,0,0,1-.34,1,1,1,0,0,1-1.14-.13A1.1,1.1,0,0,1,5.48,69a1.54,1.54,0,0,1,.41-1.31A1.54,1.54,0,0,1,7,67.3c.19,0,.18,0,.54.09a2.48,2.48,0,0,0,.94,0,1.31,1.31,0,0,0,.91-.78c0-.14,0-.13.05-.34a2,2,0,0,1,.48-.84,2.51,2.51,0,0,1,.28-.27l1.82,1.23,1.12-1.62a1.22,1.22,0,0,1,.42-.81,1.12,1.12,0,0,1,.86-.25l.17.05a1.93,1.93,0,0,0,1.57-.11,1.85,1.85,0,0,0,.81-1.1A1.79,1.79,0,0,0,16.89,61.14Z" transform="translate(0 -0.06)"/><path class="cls-2" d="M52.56,61.14a1.48,1.48,0,0,0-1-.73,1.24,1.24,0,0,0-1,.27,1.26,1.26,0,0,0-.36.87,1.23,1.23,0,0,0,.17.8,1.09,1.09,0,0,0,.63.47,1,1,0,0,0,.87-.16.94.94,0,0,0,.35-.89.88.88,0,0,0-.5-.65.73.73,0,0,0-.75.1.58.58,0,0,0-.2.54.69.69,0,0,0,.25.33,1.2,1.2,0,0,0,.25.17l.05-.35-.14-.07a.3.3,0,0,1,.34-.48.52.52,0,0,1,.36.46.63.63,0,0,1-.4.65.67.67,0,0,1-.62-.11.71.71,0,0,1-.23-.4.88.88,0,0,1,1.47-.88,1.1,1.1,0,0,1,.32.69,1.41,1.41,0,0,1-1.53,1.69c-.19,0-.18,0-.54-.09a2.48,2.48,0,0,0-.94,0,1.31,1.31,0,0,0-.91.78c0,.14,0,.13-.05.34a2,2,0,0,1-.48.84,2.51,2.51,0,0,1-.28.27l-1.82-1.23L44.72,66a1.22,1.22,0,0,1-.42.81,1.12,1.12,0,0,1-.86.25L43.27,67a1.93,1.93,0,0,0-1.57.11,1.85,1.85,0,0,0-.81,1.1A1.79,1.79,0,0,0,41,69.63a1.48,1.48,0,0,0,1,.73,1.24,1.24,0,0,0,1-.27,1.26,1.26,0,0,0,.36-.87,1.23,1.23,0,0,0-.17-.8,1.09,1.09,0,0,0-.63-.47,1,1,0,0,0-.87.16.94.94,0,0,0-.35.89.88.88,0,0,0,.5.65.73.73,0,0,0,.75-.1.58.58,0,0,0,.2-.54.69.69,0,0,0-.25-.33,1.2,1.2,0,0,0-.25-.17l-.05.35.14.07a.3.3,0,0,1-.34.48.52.52,0,0,1-.36-.46.63.63,0,0,1,.4-.65.67.67,0,0,1,.62.11.71.71,0,0,1,.23.4.88.88,0,0,1-1.47.88,1.1,1.1,0,0,1-.32-.69,1.41,1.41,0,0,1,1.53-1.69c.19,0,.18,0,.54.09a2.48,2.48,0,0,0,.94,0,1.31,1.31,0,0,0,.91-.78c0-.14,0-.13.05-.34a2,2,0,0,1,.48-.84,2.51,2.51,0,0,1,.28-.27l1.82,1.23,1.12-1.62a1.22,1.22,0,0,1,.42-.81,1.12,1.12,0,0,1,.86-.25l.17.05a1.93,1.93,0,0,0,1.57-.11,1.85,1.85,0,0,0,.81-1.1A1.79,1.79,0,0,0,52.56,61.14Z" transform="translate(0 -0.06)"/></svg>