<svg id="Layer_1" data-name="Layer 1" xmlns="http://www.w3.org/2000/svg" viewBox="0 0 72 72"><defs><style>.cls-1{fill:#e6e7e8;}.cls-2{fill:#231f20;}</style></defs><title>wallpaper_color_w1</title><rect class="cls-1" width="72" height="72"/><path class="cls-2" d="M42.31,20.4a1.2,1.2,0,0,0-.81-.59,1,1,0,0,0-.84.22,1,1,0,0,0-.29.71,1,1,0,0,0,.13.65.89.89,0,0,0,.52.38.83.83,0,0,0,.71-.13.76.76,0,0,0,.29-.72.71.71,0,0,0-.4-.53.6.6,0,0,0-.61.08.47.47,0,0,0-.17.44.56.56,0,0,0,.21.27,1,1,0,0,0,.2.14l0-.29L41.18,21a.25.25,0,0,1,.27-.39.42.42,0,0,1,.29.37.51.51,0,0,1-.32.53.55.55,0,0,1-.5-.09.58.58,0,0,1-.19-.33.71.71,0,0,1,1.2-.72.9.9,0,0,1,.26.56,1.15,1.15,0,0,1-1.24,1.38c-.15,0-.15,0-.44-.07a2,2,0,0,0-.77,0,1.06,1.06,0,0,0-.74.64c0,.12,0,.11,0,.27a1.65,1.65,0,0,1-.39.69,2,2,0,0,1-.23.22l-1.48-1-.91,1.32a1,1,0,0,1-.34.66.91.91,0,0,1-.7.21l-.13,0a1.57,1.57,0,0,0-1.28.09,1.5,1.5,0,0,0-.66.89,1.46,1.46,0,0,0,.09,1.17,1.2,1.2,0,0,0,.81.59,1,1,0,0,0,.84-.22,1,1,0,0,0,.29-.71,1,1,0,0,0-.13-.65.89.89,0,0,0-.52-.38.83.83,0,0,0-.71.13.76.76,0,0,0-.29.72.71.71,0,0,0,.4.53.6.6,0,0,0,.61-.08.47.47,0,0,0,.17-.44.56.56,0,0,0-.21-.27,1,1,0,0,0-.2-.14l0,.29.12.05a.25.25,0,0,1-.27.39.42.42,0,0,1-.29-.37.51.51,0,0,1,.32-.53.55.55,0,0,1,.5.09.58.58,0,0,1,.19.33.71.71,0,0,1-1.2.72.9.9,0,0,1-.26-.56,1.15,1.15,0,0,1,1.24-1.38c.15,0,.15,0,.44.07a2,2,0,0,0,.77,0,1.06,1.06,0,0,0,.74-.64c0-.12,0-.11,0-.27a1.65,1.65,0,0,1,.39-.69,2,2,0,0,1,.23-.22l1.48,1,.91-1.32a1,1,0,0,1,.34-.66.91.91,0,0,1,.7-.21l.13,0a1.57,1.57,0,0,0,1.28-.09,1.5,1.5,0,0,0,.66-.89A1.46,1.46,0,0,0,42.31,20.4Z"/><path class="cls-2" d="M27.87,20.4a1.2,1.2,0,0,0-.81-.59,1,1,0,0,0-.84.22,1,1,0,0,0-.29.71,1,1,0,0,0,.13.65.89.89,0,0,0,.52.38.83.83,0,0,0,.71-.13.76.76,0,0,0,.29-.72.71.71,0,0,0-.4-.53.6.6,0,0,0-.61.08.47.47,0,0,0-.17.44.56.56,0,0,0,.21.27,1,1,0,0,0,.2.14l0-.29L26.73,21a.25.25,0,0,1,.27-.39.42.42,0,0,1,.29.37.51.51,0,0,1-.32.53.55.55,0,0,1-.5-.09.58.58,0,0,1-.19-.33.71.71,0,0,1,1.2-.72.9.9,0,0,1,.26.56,1.15,1.15,0,0,1-1.24,1.38c-.15,0-.15,0-.44-.07a2,2,0,0,0-.77,0,1.06,1.06,0,0,0-.74.64c0,.12,0,.11,0,.27a1.65,1.65,0,0,1-.39.69,2,2,0,0,1-.23.22L22.4,23l-.91,1.32a1,1,0,0,1-.34.66.91.91,0,0,1-.7.21l-.13,0a1.57,1.57,0,0,0-1.28.09,1.5,1.5,0,0,0-.66.89,1.46,1.46,0,0,0,.09,1.17,1.2,1.2,0,0,0,.81.59,1,1,0,0,0,.84-.22A1,1,0,0,0,20.4,27a1,1,0,0,0-.13-.65.89.89,0,0,0-.52-.38.83.83,0,0,0-.71.13.76.76,0,0,0-.29.72.71.71,0,0,0,.4.53.6.6,0,0,0,.61-.08.47.47,0,0,0,.17-.44.56.56,0,0,0-.21-.27,1,1,0,0,0-.2-.14l0,.29.12.05a.25.25,0,0,1-.27.39.42.42,0,0,1-.29-.37.51.51,0,0,1,.32-.53.55.55,0,0,1,.5.09.58.58,0,0,1,.19.33.71.71,0,0,1-1.2.72.9.9,0,0,1-.26-.56,1.15,1.15,0,0,1,1.24-1.38c.15,0,.15,0,.44.07a2,2,0,0,0,.77,0,1.06,1.06,0,0,0,.74-.64c0-.12,0-.11,0-.27a1.65,1.65,0,0,1,.39-.69,2,2,0,0,1,.23-.22l1.48,1,.91-1.32a1,1,0,0,1,.34-.66.91.91,0,0,1,.7-.21l.13,0a1.57,1.57,0,0,0,1.28-.09,1.5,1.5,0,0,0,.66-.89A1.46,1.46,0,0,0,27.87,20.4Z"/><path class="cls-2" d="M56.91,20.4a1.2,1.2,0,0,0-.81-.59,1,1,0,0,0-.84.22,1,1,0,0,0-.29.71,1,1,0,0,0,.13.65.89.89,0,0,0,.52.38.83.83,0,0,0,.71-.13.76.76,0,0,0,.29-.72.71.71,0,0,0-.4-.53.6.6,0,0,0-.61.08.47.47,0,0,0-.17.44.56.56,0,0,0,.21.27,1,1,0,0,0,.2.14l0-.29L55.78,21a.25.25,0,0,1,.27-.39.42.42,0,0,1,.29.37.51.51,0,0,1-.32.53.55.55,0,0,1-.5-.09.58.58,0,0,1-.19-.33.71.71,0,0,1,1.2-.72.9.9,0,0,1,.26.56,1.15,1.15,0,0,1-1.24,1.38c-.15,0-.15,0-.44-.07a2,2,0,0,0-.77,0,1.06,1.06,0,0,0-.74.64c0,.12,0,.11,0,.27a1.65,1.65,0,0,1-.39.69,2,2,0,0,1-.23.22l-1.48-1-.91,1.32a1,1,0,0,1-.34.66.91.91,0,0,1-.7.21l-.13,0a1.57,1.57,0,0,0-1.28.09,1.5,1.5,0,0,0-.66.89,1.46,1.46,0,0,0,.09,1.17,1.2,1.2,0,0,0,.81.59,1,1,0,0,0,.84-.22,1,1,0,0,0,.29-.71,1,1,0,0,0-.13-.65.89.89,0,0,0-.52-.38.83.83,0,0,0-.71.13.76.76,0,0,0-.29.72.71.71,0,0,0,.4.53.6.6,0,0,0,.61-.08A.47.47,0,0,0,49,26.8a.56.56,0,0,0-.21-.27,1,1,0,0,0-.2-.14l0,.29.12.05a.25.25,0,0,1-.27.39.42.42,0,0,1-.29-.37.51.51,0,0,1,.32-.53.55.55,0,0,1,.5.09.58.58,0,0,1,.19.33.71.71,0,0,1-1.2.72.9.9,0,0,1-.26-.56,1.15,1.15,0,0,1,1.24-1.38c.15,0,.15,0,.44.07a2,2,0,0,0,.77,0,1.06,1.06,0,0,0,.74-.64c0-.12,0-.11,0-.27a1.65,1.65,0,0,1,.39-.69,2,2,0,0,1,.23-.22l1.48,1,.91-1.32a1,1,0,0,1,.34-.66.91.91,0,0,1,.7-.21l.13,0a1.57,1.57,0,0,0,1.28-.09,1.5,1.5,0,0,0,.66-.89A1.46,1.46,0,0,0,56.91,20.4Z"/><path class="cls-2" d="M42.2,34.84a1.2,1.2,0,0,0-.81-.59,1,1,0,0,0-.84.22,1,1,0,0,0-.29.71,1,1,0,0,0,.13.65.89.89,0,0,0,.52.38.83.83,0,0,0,.71-.13.76.76,0,0,0,.29-.72.71.71,0,0,0-.4-.53.6.6,0,0,0-.61.08.47.47,0,0,0-.17.44.56.56,0,0,0,.21.27,1,1,0,0,0,.2.14l0-.29-.12-.05a.25.25,0,0,1,.27-.39.42.42,0,0,1,.29.37.51.51,0,0,1-.32.53.55.55,0,0,1-.5-.09.58.58,0,0,1-.19-.33.71.71,0,0,1,1.2-.72.9.9,0,0,1,.26.56,1.15,1.15,0,0,1-1.24,1.38c-.15,0-.15,0-.44-.07a2,2,0,0,0-.77,0,1.06,1.06,0,0,0-.74.64c0,.12,0,.11,0,.27a1.65,1.65,0,0,1-.39.69,2,2,0,0,1-.23.22l-1.48-1-.91,1.32a1,1,0,0,1-.34.66.91.91,0,0,1-.7.21l-.13,0a1.57,1.57,0,0,0-1.28.09,1.5,1.5,0,0,0-.66.89,1.46,1.46,0,0,0,.09,1.17,1.2,1.2,0,0,0,.81.59,1,1,0,0,0,.84-.22,1,1,0,0,0,.29-.71,1,1,0,0,0-.13-.65.89.89,0,0,0-.52-.38.83.83,0,0,0-.71.13.76.76,0,0,0-.29.72.71.71,0,0,0,.4.53.6.6,0,0,0,.61-.08.47.47,0,0,0,.17-.44.56.56,0,0,0-.21-.27,1,1,0,0,0-.2-.14l0,.29.12.05a.25.25,0,0,1-.27.39.42.42,0,0,1-.29-.37.51.51,0,0,1,.32-.53.55.55,0,0,1,.5.09.58.58,0,0,1,.19.33.71.71,0,0,1-1.2.72.9.9,0,0,1-.26-.56,1.15,1.15,0,0,1,1.24-1.38c.15,0,.15,0,.44.07a2,2,0,0,0,.77,0,1.06,1.06,0,0,0,.74-.64c0-.12,0-.11,0-.27a1.65,1.65,0,0,1,.39-.69,2,2,0,0,1,.23-.22l1.48,1,.91-1.32a1,1,0,0,1,.34-.66.91.91,0,0,1,.7-.21l.13,0a1.57,1.57,0,0,0,1.28-.09,1.5,1.5,0,0,0,.66-.89A1.46,1.46,0,0,0,42.2,34.84Z"/><path class="cls-2" d="M27.76,34.84a1.2,1.2,0,0,0-.81-.59,1,1,0,0,0-.84.22,1,1,0,0,0-.29.71,1,1,0,0,0,.13.65.89.89,0,0,0,.52.38.83.83,0,0,0,.71-.13.76.76,0,0,0,.29-.72.71.71,0,0,0-.4-.53.6.6,0,0,0-.61.08.47.47,0,0,0-.17.44.56.56,0,0,0,.21.27,1,1,0,0,0,.2.14l0-.29-.12-.05A.25.25,0,0,1,26.9,35a.42.42,0,0,1,.29.37.51.51,0,0,1-.32.53.55.55,0,0,1-.5-.09.58.58,0,0,1-.19-.33.71.71,0,0,1,1.2-.72.9.9,0,0,1,.26.56,1.15,1.15,0,0,1-1.24,1.38c-.15,0-.15,0-.44-.07a2,2,0,0,0-.77,0,1.06,1.06,0,0,0-.74.64c0,.12,0,.11,0,.27a1.65,1.65,0,0,1-.39.69,2,2,0,0,1-.23.22l-1.48-1-.91,1.32a1,1,0,0,1-.34.66.91.91,0,0,1-.7.21l-.13,0a1.57,1.57,0,0,0-1.28.09,1.5,1.5,0,0,0-.66.89,1.46,1.46,0,0,0,.09,1.17,1.2,1.2,0,0,0,.81.59,1,1,0,0,0,.84-.22,1,1,0,0,0,.29-.71,1,1,0,0,0-.13-.65.89.89,0,0,0-.52-.38.83.83,0,0,0-.71.13.76.76,0,0,0-.29.72.71.71,0,0,0,.4.53.6.6,0,0,0,.61-.08.47.47,0,0,0,.17-.44.56.56,0,0,0-.21-.27,1,1,0,0,0-.2-.14l0,.29.12.05a.25.25,0,0,1-.27.39.42.42,0,0,1-.29-.37.51.51,0,0,1,.32-.53.55.55,0,0,1,.5.09.58.58,0,0,1,.19.33.71.71,0,0,1-1.2.72.9.9,0,0,1-.26-.56,1.15,1.15,0,0,1,1.24-1.38c.15,0,.15,0,.44.07a2,2,0,0,0,.77,0,1.06,1.06,0,0,0,.74-.64c0-.12,0-.11,0-.27a1.65,1.65,0,0,1,.39-.69,2,2,0,0,1,.23-.22l1.48,1,.91-1.32a1,1,0,0,1,.34-.66.91.91,0,0,1,.7-.21l.13,0a1.57,1.57,0,0,0,1.28-.09,1.5,1.5,0,0,0,.66-.89A1.46,1.46,0,0,0,27.76,34.84Z"/><path class="cls-2" d="M56.8,34.84a1.2,1.2,0,0,0-.81-.59,1,1,0,0,0-.84.22,1,1,0,0,0-.29.71,1,1,0,0,0,.13.65.89.89,0,0,0,.52.38.83.83,0,0,0,.71-.13.76.76,0,0,0,.29-.72.71.71,0,0,0-.4-.53.6.6,0,0,0-.61.08.47.47,0,0,0-.17.44.56.56,0,0,0,.21.27,1,1,0,0,0,.2.14l0-.29-.12-.05a.25.25,0,0,1,.27-.39.42.42,0,0,1,.29.37.51.51,0,0,1-.32.53.55.55,0,0,1-.5-.09.58.58,0,0,1-.19-.33.71.71,0,0,1,1.2-.72.9.9,0,0,1,.26.56,1.15,1.15,0,0,1-1.24,1.38c-.15,0-.15,0-.44-.07a2,2,0,0,0-.77,0,1.06,1.06,0,0,0-.74.64c0,.12,0,.11,0,.27a1.65,1.65,0,0,1-.39.69,2,2,0,0,1-.23.22l-1.48-1-.91,1.32a1,1,0,0,1-.34.66.91.91,0,0,1-.7.21l-.13,0a1.57,1.57,0,0,0-1.28.09,1.5,1.5,0,0,0-.66.89,1.46,1.46,0,0,0,.09,1.17,1.2,1.2,0,0,0,.81.59,1,1,0,0,0,.84-.22,1,1,0,0,0,.29-.71,1,1,0,0,0-.13-.65.89.89,0,0,0-.52-.38.83.83,0,0,0-.71.13.76.76,0,0,0-.29.72.71.71,0,0,0,.4.53.6.6,0,0,0,.61-.08.47.47,0,0,0,.17-.44.56.56,0,0,0-.21-.27,1,1,0,0,0-.2-.14l0,.29.12.05a.25.25,0,0,1-.27.39.42.42,0,0,1-.29-.37.51.51,0,0,1,.32-.53.55.55,0,0,1,.5.09.58.58,0,0,1,.19.33.71.71,0,0,1-1.2.72.9.9,0,0,1-.26-.56,1.15,1.15,0,0,1,1.24-1.38c.15,0,.15,0,.44.07A2,2,0,0,0,50,40a1.06,1.06,0,0,0,.74-.64c0-.12,0-.11,0-.27a1.65,1.65,0,0,1,.39-.69,2,2,0,0,1,.23-.22l1.48,1,.91-1.32a1,1,0,0,1,.34-.66.91.91,0,0,1,.7-.21L55,37a1.57,1.57,0,0,0,1.28-.09,1.5,1.5,0,0,0,.66-.89A1.46,1.46,0,0,0,56.8,34.84Z"/><path class="cls-2" d="M42.31,49.8a1.2,1.2,0,0,0-.81-.59,1,1,0,0,0-.84.22,1,1,0,0,0-.29.71,1,1,0,0,0,.13.65.89.89,0,0,0,.52.38.83.83,0,0,0,.71-.13.76.76,0,0,0,.29-.72.71.71,0,0,0-.4-.53.6.6,0,0,0-.61.08.47.47,0,0,0-.17.44.56.56,0,0,0,.21.27,1,1,0,0,0,.2.14l0-.29-.12-.05a.25.25,0,0,1,.27-.39.42.42,0,0,1,.29.37.51.51,0,0,1-.32.53.55.55,0,0,1-.5-.09.58.58,0,0,1-.19-.33.71.71,0,0,1,1.2-.72.9.9,0,0,1,.26.56,1.15,1.15,0,0,1-1.24,1.38c-.15,0-.15,0-.44-.07a2,2,0,0,0-.77,0,1.06,1.06,0,0,0-.74.64c0,.12,0,.11,0,.27a1.65,1.65,0,0,1-.39.69,2,2,0,0,1-.23.22l-1.48-1-.91,1.32a1,1,0,0,1-.34.66.91.91,0,0,1-.7.21l-.13,0a1.57,1.57,0,0,0-1.28.09,1.5,1.5,0,0,0-.66.89,1.46,1.46,0,0,0,.09,1.17,1.2,1.2,0,0,0,.81.59,1,1,0,0,0,.84-.22,1,1,0,0,0,.29-.71,1,1,0,0,0-.13-.65.89.89,0,0,0-.52-.38.83.83,0,0,0-.71.13.76.76,0,0,0-.29.72.71.71,0,0,0,.4.53.6.6,0,0,0,.61-.08.47.47,0,0,0,.17-.44.56.56,0,0,0-.21-.27,1,1,0,0,0-.2-.14l0,.29.12.05a.25.25,0,0,1-.27.39.42.42,0,0,1-.29-.37.51.51,0,0,1,.32-.53.55.55,0,0,1,.5.09.58.58,0,0,1,.19.33.71.71,0,0,1-1.2.72.9.9,0,0,1-.26-.56,1.15,1.15,0,0,1,1.24-1.38c.15,0,.15,0,.44.07a2,2,0,0,0,.77,0,1.06,1.06,0,0,0,.74-.64c0-.12,0-.11,0-.27a1.65,1.65,0,0,1,.39-.69,2,2,0,0,1,.23-.22l1.48,1,.91-1.32a1,1,0,0,1,.34-.66.91.91,0,0,1,.7-.21l.13,0a1.57,1.57,0,0,0,1.28-.09A1.5,1.5,0,0,0,42.4,51,1.46,1.46,0,0,0,42.31,49.8Z"/><path class="cls-2" d="M27.87,49.8a1.2,1.2,0,0,0-.81-.59,1,1,0,0,0-.84.22,1,1,0,0,0-.29.71,1,1,0,0,0,.13.65.89.89,0,0,0,.52.38.83.83,0,0,0,.71-.13.76.76,0,0,0,.29-.72.71.71,0,0,0-.4-.53.6.6,0,0,0-.61.08.47.47,0,0,0-.17.44.56.56,0,0,0,.21.27,1,1,0,0,0,.2.14l0-.29-.12-.05A.25.25,0,0,1,27,50a.42.42,0,0,1,.29.37.51.51,0,0,1-.32.53.55.55,0,0,1-.5-.09.58.58,0,0,1-.19-.33.71.71,0,0,1,1.2-.72.9.9,0,0,1,.26.56,1.15,1.15,0,0,1-1.24,1.38c-.15,0-.15,0-.44-.07a2,2,0,0,0-.77,0,1.06,1.06,0,0,0-.74.64c0,.12,0,.11,0,.27a1.65,1.65,0,0,1-.39.69,2,2,0,0,1-.23.22l-1.48-1-.91,1.32a1,1,0,0,1-.34.66.91.91,0,0,1-.7.21l-.13,0a1.57,1.57,0,0,0-1.28.09,1.5,1.5,0,0,0-.66.89,1.46,1.46,0,0,0,.09,1.17,1.2,1.2,0,0,0,.81.59,1,1,0,0,0,.84-.22,1,1,0,0,0,.29-.71,1,1,0,0,0-.13-.65.89.89,0,0,0-.52-.38.83.83,0,0,0-.71.13.76.76,0,0,0-.29.72.71.71,0,0,0,.4.53.6.6,0,0,0,.61-.08.47.47,0,0,0,.17-.44.56.56,0,0,0-.21-.27,1,1,0,0,0-.2-.14l0,.29.12.05a.25.25,0,0,1-.27.39.42.42,0,0,1-.29-.37.51.51,0,0,1,.32-.53.55.55,0,0,1,.5.09A.58.58,0,0,1,20,56a.71.71,0,0,1-1.2.72.9.9,0,0,1-.26-.56,1.15,1.15,0,0,1,1.24-1.38c.15,0,.15,0,.44.07a2,2,0,0,0,.77,0,1.06,1.06,0,0,0,.74-.64c0-.12,0-.11,0-.27a1.65,1.65,0,0,1,.39-.69,2,2,0,0,1,.23-.22l1.48,1,.91-1.32a1,1,0,0,1,.34-.66.91.91,0,0,1,.7-.21L26,52a1.57,1.57,0,0,0,1.28-.09A1.5,1.5,0,0,0,28,51,1.46,1.46,0,0,0,27.87,49.8Z"/><path class="cls-2" d="M56.91,49.8a1.2,1.2,0,0,0-.81-.59,1,1,0,0,0-.84.22,1,1,0,0,0-.29.71,1,1,0,0,0,.13.65.89.89,0,0,0,.52.38.83.83,0,0,0,.71-.13.76.76,0,0,0,.29-.72.71.71,0,0,0-.4-.53.6.6,0,0,0-.61.08.47.47,0,0,0-.17.44.56.56,0,0,0,.21.27,1,1,0,0,0,.2.14l0-.29-.12-.05A.25.25,0,0,1,56,50a.42.42,0,0,1,.29.37.51.51,0,0,1-.32.53.55.55,0,0,1-.5-.09.58.58,0,0,1-.19-.33.71.71,0,0,1,1.2-.72.9.9,0,0,1,.26.56,1.15,1.15,0,0,1-1.24,1.38c-.15,0-.15,0-.44-.07a2,2,0,0,0-.77,0,1.06,1.06,0,0,0-.74.64c0,.12,0,.11,0,.27a1.65,1.65,0,0,1-.39.69,2,2,0,0,1-.23.22l-1.48-1-.91,1.32a1,1,0,0,1-.34.66.91.91,0,0,1-.7.21l-.13,0a1.57,1.57,0,0,0-1.28.09,1.5,1.5,0,0,0-.66.89,1.46,1.46,0,0,0,.09,1.17,1.2,1.2,0,0,0,.81.59,1,1,0,0,0,.84-.22,1,1,0,0,0,.29-.71,1,1,0,0,0-.13-.65.89.89,0,0,0-.52-.38.83.83,0,0,0-.71.13.76.76,0,0,0-.29.72.71.71,0,0,0,.4.53.6.6,0,0,0,.61-.08A.47.47,0,0,0,49,56.2a.56.56,0,0,0-.21-.27,1,1,0,0,0-.2-.14l0,.29.12.05a.25.25,0,0,1-.27.39.42.42,0,0,1-.29-.37.51.51,0,0,1,.32-.53.55.55,0,0,1,.5.09.58.58,0,0,1,.19.33.71.71,0,0,1-1.2.72.9.9,0,0,1-.26-.56,1.15,1.15,0,0,1,1.24-1.38c.15,0,.15,0,.44.07a2,2,0,0,0,.77,0,1.06,1.06,0,0,0,.74-.64c0-.12,0-.11,0-.27a1.65,1.65,0,0,1,.39-.69,2,2,0,0,1,.23-.22l1.48,1,.91-1.32a1,1,0,0,1,.34-.66.91.91,0,0,1,.7-.21l.13,0a1.57,1.57,0,0,0,1.28-.09A1.5,1.5,0,0,0,57,51,1.46,1.46,0,0,0,56.91,49.8Z"/><path class="cls-2" d="M62.7,71.21l-.08-.08h-.24l0,.08Z"/><path class="cls-2" d="M62.38,71.13h-.31l0,.08h.32Z"/><polygon class="cls-2" points="9.74 60.62 10.19 61.04 9.65 61.59 7.83 59.86 7.39 59.44 7.92 58.89 9.74 60.62"/><polygon class="cls-2" points="24.54 60.66 24.98 61.07 24.44 61.62 22.63 59.88 22.2 59.45 22.73 58.91 24.54 60.66"/><polygon class="cls-2" points="39 60.63 39.45 61.04 38.92 61.6 37.07 59.9 36.62 59.49 37.14 58.93 39 60.63"/><polygon class="cls-2" points="53.58 60.67 54.01 61.1 53.46 61.64 51.68 59.86 51.25 59.43 51.8 58.89 53.58 60.67"/><polygon class="cls-2" points="68.22 60.57 68.67 60.97 68.15 61.54 66.28 59.86 65.83 59.46 66.34 58.89 68.22 60.57"/><circle class="cls-2" cx="15.43" cy="23.85" r="0.91"/><circle class="cls-2" cx="30.39" cy="23.85" r="0.91"/><circle class="cls-2" cx="44.91" cy="23.85" r="0.91"/><circle class="cls-2" cx="59.55" cy="23.85" r="0.91"/><circle class="cls-2" cx="15.4" cy="38.27" r="0.91"/><circle class="cls-2" cx="30.35" cy="38.27" r="0.91"/><circle class="cls-2" cx="44.87" cy="38.27" r="0.91"/><circle class="cls-2" cx="59.51" cy="38.27" r="0.91"/><circle class="cls-2" cx="15.64" cy="53.14" r="0.91"/><circle class="cls-2" cx="30.6" cy="53.14" r="0.91"/><circle class="cls-2" cx="45.12" cy="53.14" r="0.91"/><circle class="cls-2" cx="59.76" cy="53.14" r="0.91"/><circle class="cls-2" cx="15.61" cy="67.56" r="0.91"/><circle class="cls-2" cx="30.56" cy="67.56" r="0.91"/><circle class="cls-2" cx="45.08" cy="67.56" r="0.91"/><circle class="cls-2" cx="59.72" cy="67.56" r="0.91"/><circle class="cls-2" cx="15.62" cy="9.34" r="0.91"/><circle class="cls-2" cx="30.58" cy="9.34" r="0.91"/><circle class="cls-2" cx="45.1" cy="9.34" r="0.91"/><circle class="cls-2" cx="59.74" cy="9.34" r="0.91"/><polygon class="cls-2" points="9.75 45.84 10.19 46.25 9.65 46.8 7.83 45.07 7.39 44.65 7.92 44.11 9.75 45.84"/><polygon class="cls-2" points="24.54 45.87 24.98 46.29 24.44 46.84 22.63 45.09 22.2 44.67 22.73 44.13 24.54 45.87"/><polygon class="cls-2" points="39 45.84 39.45 46.25 38.92 46.81 37.07 45.12 36.62 44.7 37.15 44.15 39 45.84"/><polygon class="cls-2" points="53.58 45.89 54.01 46.32 53.46 46.85 51.68 45.07 51.26 44.64 51.8 44.11 53.58 45.89"/><polygon class="cls-2" points="68.22 45.78 68.68 46.18 68.16 46.75 66.28 45.08 65.83 44.67 66.35 44.11 68.22 45.78"/><polygon class="cls-2" points="9.75 31.61 10.19 32.02 9.66 32.58 7.83 30.85 7.39 30.43 7.93 29.88 9.75 31.61"/><polygon class="cls-2" points="24.55 31.64 24.99 32.06 24.45 32.61 22.64 30.86 22.2 30.44 22.74 29.9 24.55 31.64"/><polygon class="cls-2" points="39 31.62 39.45 32.02 38.93 32.59 37.07 30.89 36.63 30.48 37.15 29.92 39 31.62"/><polygon class="cls-2" points="53.58 31.66 54.01 32.09 53.46 32.62 51.69 30.84 51.26 30.41 51.81 29.88 53.58 31.66"/><polygon class="cls-2" points="68.22 31.55 68.68 31.96 68.16 32.52 66.28 30.85 65.83 30.44 66.35 29.88 68.22 31.55"/><polygon class="cls-2" points="9.75 16.9 10.2 17.31 9.66 17.86 7.84 16.14 7.4 15.71 7.93 15.17 9.75 16.9"/><polygon class="cls-2" points="24.55 16.93 24.99 17.35 24.45 17.9 22.64 16.15 22.2 15.73 22.74 15.19 24.55 16.93"/><polygon class="cls-2" points="39 16.9 39.45 17.31 38.93 17.87 37.08 16.18 36.63 15.76 37.15 15.21 39 16.9"/><polygon class="cls-2" points="53.58 16.95 54.02 17.38 53.46 17.91 51.69 16.13 51.26 15.7 51.81 15.17 53.58 16.95"/><polygon class="cls-2" points="68.22 16.84 68.68 17.24 68.16 17.81 66.29 16.14 65.84 15.73 66.35 15.17 68.22 16.84"/><path class="cls-2" d="M71.68,20.47a1.2,1.2,0,0,0-.81-.59,1,1,0,0,0-.84.22,1,1,0,0,0-.29.71,1,1,0,0,0,.13.65.89.89,0,0,0,.52.38.83.83,0,0,0,.71-.13.76.76,0,0,0,.29-.72.71.71,0,0,0-.4-.53.6.6,0,0,0-.61.08.47.47,0,0,0-.17.44.56.56,0,0,0,.21.27,1,1,0,0,0,.2.14l0-.29L70.54,21a.25.25,0,0,1,.27-.39.42.42,0,0,1,.29.37.51.51,0,0,1-.32.53.55.55,0,0,1-.5-.09.58.58,0,0,1-.19-.33.71.71,0,0,1,1.2-.72.9.9,0,0,1,.26.56,1.15,1.15,0,0,1-1.24,1.38c-.15,0-.15,0-.44-.07a2,2,0,0,0-.77,0,1.06,1.06,0,0,0-.74.64c0,.12,0,.11,0,.27a1.65,1.65,0,0,1-.39.69,2,2,0,0,1-.23.22l-1.48-1-.91,1.32a1,1,0,0,1-.34.66.91.91,0,0,1-.7.21l-.13,0a1.57,1.57,0,0,0-1.28.09,1.5,1.5,0,0,0-.66.89,1.46,1.46,0,0,0,.09,1.17,1.2,1.2,0,0,0,.81.59,1,1,0,0,0,.84-.22A1,1,0,0,0,64.2,27a1,1,0,0,0-.13-.65.89.89,0,0,0-.52-.38.83.83,0,0,0-.71.13.76.76,0,0,0-.29.72.71.71,0,0,0,.4.53.6.6,0,0,0,.61-.08.47.47,0,0,0,.17-.44.56.56,0,0,0-.21-.27,1,1,0,0,0-.2-.14l0,.29.12.05a.25.25,0,0,1-.27.39.42.42,0,0,1-.29-.37.51.51,0,0,1,.32-.53.55.55,0,0,1,.5.09.58.58,0,0,1,.19.33.71.71,0,0,1-1.2.72.9.9,0,0,1-.26-.56,1.15,1.15,0,0,1,1.24-1.38c.15,0,.15,0,.44.07a2,2,0,0,0,.77,0,1.06,1.06,0,0,0,.74-.64c0-.12,0-.11,0-.27A1.65,1.65,0,0,1,66,24a2,2,0,0,1,.23-.22l1.48,1,.91-1.32a1,1,0,0,1,.34-.66.91.91,0,0,1,.7-.21l.13,0a1.57,1.57,0,0,0,1.28-.09,1.5,1.5,0,0,0,.66-.89A1.46,1.46,0,0,0,71.68,20.47Z"/><path class="cls-2" d="M71.57,34.9a1.2,1.2,0,0,0-.81-.59,1,1,0,0,0-.84.22,1,1,0,0,0-.29.71,1,1,0,0,0,.13.65.89.89,0,0,0,.52.38.83.83,0,0,0,.71-.13.76.76,0,0,0,.29-.72.71.71,0,0,0-.4-.53.6.6,0,0,0-.61.08.47.47,0,0,0-.17.44.56.56,0,0,0,.21.27,1,1,0,0,0,.2.14l0-.29-.12-.05a.25.25,0,0,1,.27-.39.42.42,0,0,1,.29.37.51.51,0,0,1-.32.53.55.55,0,0,1-.5-.09.58.58,0,0,1-.19-.33.71.71,0,0,1,1.2-.72.9.9,0,0,1,.26.56A1.15,1.15,0,0,1,70.2,36.8c-.15,0-.15,0-.44-.07a2,2,0,0,0-.77,0,1.06,1.06,0,0,0-.74.64c0,.12,0,.11,0,.27a1.65,1.65,0,0,1-.39.69,2,2,0,0,1-.23.22l-1.48-1-.91,1.32a1,1,0,0,1-.34.66.91.91,0,0,1-.7.21l-.13,0a1.57,1.57,0,0,0-1.28.09,1.5,1.5,0,0,0-.66.89,1.46,1.46,0,0,0,.09,1.17,1.2,1.2,0,0,0,.81.59,1,1,0,0,0,.84-.22,1,1,0,0,0,.29-.71,1,1,0,0,0-.13-.65.89.89,0,0,0-.52-.38.83.83,0,0,0-.71.13.76.76,0,0,0-.29.72.71.71,0,0,0,.4.53.6.6,0,0,0,.61-.08.47.47,0,0,0,.17-.44.56.56,0,0,0-.21-.27,1,1,0,0,0-.2-.14l0,.29.12.05a.25.25,0,0,1-.27.39.42.42,0,0,1-.29-.37.51.51,0,0,1,.32-.53.55.55,0,0,1,.5.09.58.58,0,0,1,.19.33.71.71,0,0,1-1.2.72.9.9,0,0,1-.26-.56,1.15,1.15,0,0,1,1.24-1.38c.15,0,.15,0,.44.07a2,2,0,0,0,.77,0,1.06,1.06,0,0,0,.74-.64c0-.12,0-.11,0-.27a1.65,1.65,0,0,1,.39-.69,2,2,0,0,1,.23-.22l1.48,1,.91-1.32a1,1,0,0,1,.34-.66.91.91,0,0,1,.7-.21l.13,0A1.57,1.57,0,0,0,71,37a1.5,1.5,0,0,0,.66-.89A1.46,1.46,0,0,0,71.57,34.9Z"/><path class="cls-2" d="M71.68,49.87a1.2,1.2,0,0,0-.81-.59,1,1,0,0,0-.84.22,1,1,0,0,0-.29.71,1,1,0,0,0,.13.65.89.89,0,0,0,.52.38.83.83,0,0,0,.71-.13.76.76,0,0,0,.29-.72.71.71,0,0,0-.4-.53.6.6,0,0,0-.61.08.47.47,0,0,0-.17.44.56.56,0,0,0,.21.27,1,1,0,0,0,.2.14l0-.29-.12-.05a.25.25,0,0,1,.27-.39.42.42,0,0,1,.29.37.51.51,0,0,1-.32.53.55.55,0,0,1-.5-.09.58.58,0,0,1-.19-.33.71.71,0,0,1,1.2-.72.9.9,0,0,1,.26.56,1.15,1.15,0,0,1-1.24,1.38c-.15,0-.15,0-.44-.07a2,2,0,0,0-.77,0,1.06,1.06,0,0,0-.74.64c0,.12,0,.11,0,.27a1.65,1.65,0,0,1-.39.69,2,2,0,0,1-.23.22l-1.48-1-.91,1.32a1,1,0,0,1-.34.66.91.91,0,0,1-.7.21l-.13,0a1.57,1.57,0,0,0-1.28.09,1.5,1.5,0,0,0-.66.89,1.46,1.46,0,0,0,.09,1.17,1.2,1.2,0,0,0,.81.59,1,1,0,0,0,.84-.22,1,1,0,0,0,.29-.71,1,1,0,0,0-.13-.65.89.89,0,0,0-.52-.38.83.83,0,0,0-.71.13.76.76,0,0,0-.29.72.71.71,0,0,0,.4.53.6.6,0,0,0,.61-.08.47.47,0,0,0,.17-.44.56.56,0,0,0-.21-.27,1,1,0,0,0-.2-.14l0,.29.12.05a.25.25,0,0,1-.27.39.42.42,0,0,1-.29-.37.51.51,0,0,1,.32-.53.55.55,0,0,1,.5.09.58.58,0,0,1,.19.33.71.71,0,0,1-1.2.72.9.9,0,0,1-.26-.56,1.15,1.15,0,0,1,1.24-1.38c.15,0,.15,0,.44.07a2,2,0,0,0,.77,0,1.06,1.06,0,0,0,.74-.64c0-.12,0-.11,0-.27a1.65,1.65,0,0,1,.39-.69,2,2,0,0,1,.23-.22l1.48,1,.91-1.32a1,1,0,0,1,.34-.66.91.91,0,0,1,.7-.21l.13,0a1.57,1.57,0,0,0,1.28-.09,1.5,1.5,0,0,0,.66-.89A1.46,1.46,0,0,0,71.68,49.87Z"/><path class="cls-2" d="M71.52,64.33a1.2,1.2,0,0,0-.81-.59,1,1,0,0,0-.84.22,1,1,0,0,0-.29.71,1,1,0,0,0,.13.65.89.89,0,0,0,.52.38.83.83,0,0,0,.71-.13.76.76,0,0,0,.29-.72.71.71,0,0,0-.4-.53.6.6,0,0,0-.61.08.47.47,0,0,0-.17.44.56.56,0,0,0,.21.27,1,1,0,0,0,.2.14l0-.29-.12-.05a.25.25,0,0,1,.27-.39.42.42,0,0,1,.29.37.51.51,0,0,1-.32.53.55.55,0,0,1-.5-.09.58.58,0,0,1-.19-.33.71.71,0,0,1,1.2-.72.9.9,0,0,1,.26.56,1.15,1.15,0,0,1-1.24,1.38c-.15,0-.15,0-.44-.07a2,2,0,0,0-.77,0,1.06,1.06,0,0,0-.74.64c0,.12,0,.11,0,.27a1.65,1.65,0,0,1-.39.69,2,2,0,0,1-.23.22l-1.48-1-.91,1.32a1,1,0,0,1-.34.66.91.91,0,0,1-.7.21l-.13,0a1.57,1.57,0,0,0-1.28.09,1.5,1.5,0,0,0-.66.89,1.46,1.46,0,0,0,.09,1.17,1.2,1.2,0,0,0,.81.59,1,1,0,0,0,.84-.22,1,1,0,0,0,.29-.71,1,1,0,0,0-.13-.65.89.89,0,0,0-.52-.38.83.83,0,0,0-.71.13.76.76,0,0,0-.29.72.71.71,0,0,0,.4.53.6.6,0,0,0,.61-.08.47.47,0,0,0,.17-.44.56.56,0,0,0-.21-.27,1,1,0,0,0-.2-.14l0,.29.12.05a.25.25,0,0,1-.27.39.42.42,0,0,1-.29-.37.51.51,0,0,1,.32-.53.55.55,0,0,1,.5.09.58.58,0,0,1,.19.33.71.71,0,0,1-1.2.72.9.9,0,0,1-.26-.56,1.15,1.15,0,0,1,1.24-1.38c.15,0,.15,0,.44.07a2,2,0,0,0,.77,0,1.06,1.06,0,0,0,.74-.64c0-.12,0-.11,0-.27a1.65,1.65,0,0,1,.39-.69,2,2,0,0,1,.23-.22l1.48,1,.91-1.32a1,1,0,0,1,.34-.66.91.91,0,0,1,.7-.21l.13,0A1.57,1.57,0,0,0,71,66.4a1.5,1.5,0,0,0,.66-.89A1.46,1.46,0,0,0,71.52,64.33Z"/><path class="cls-2" d="M42.32,64.33a1.2,1.2,0,0,0-.81-.59,1,1,0,0,0-.84.22,1,1,0,0,0-.29.71,1,1,0,0,0,.13.65.89.89,0,0,0,.52.38.83.83,0,0,0,.71-.13.76.76,0,0,0,.29-.72.71.71,0,0,0-.4-.53.6.6,0,0,0-.61.08.47.47,0,0,0-.17.44.56.56,0,0,0,.21.27,1,1,0,0,0,.2.14l0-.29-.12-.05a.25.25,0,0,1,.27-.39.42.42,0,0,1,.29.37.51.51,0,0,1-.32.53.55.55,0,0,1-.5-.09.58.58,0,0,1-.19-.33.71.71,0,0,1,1.2-.72.9.9,0,0,1,.26.56,1.15,1.15,0,0,1-1.24,1.38c-.15,0-.15,0-.44-.07a2,2,0,0,0-.77,0,1.06,1.06,0,0,0-.74.64c0,.12,0,.11,0,.27a1.65,1.65,0,0,1-.39.69,2,2,0,0,1-.23.22l-1.48-1-.91,1.32a1,1,0,0,1-.34.66.91.91,0,0,1-.7.21l-.13,0a1.57,1.57,0,0,0-1.28.09,1.5,1.5,0,0,0-.66.89,1.46,1.46,0,0,0,.09,1.17,1.2,1.2,0,0,0,.81.59,1,1,0,0,0,.84-.22,1,1,0,0,0,.29-.71,1,1,0,0,0-.13-.65.89.89,0,0,0-.52-.38.83.83,0,0,0-.71.13.76.76,0,0,0-.29.72.71.71,0,0,0,.4.53.6.6,0,0,0,.61-.08.47.47,0,0,0,.17-.44.56.56,0,0,0-.21-.27,1,1,0,0,0-.2-.14l0,.29.12.05a.25.25,0,0,1-.27.39.42.42,0,0,1-.29-.37.51.51,0,0,1,.32-.53.55.55,0,0,1,.5.09.58.58,0,0,1,.19.33.71.71,0,0,1-1.2.72.9.9,0,0,1-.26-.56,1.15,1.15,0,0,1,1.24-1.38c.15,0,.15,0,.44.07a2,2,0,0,0,.77,0,1.06,1.06,0,0,0,.74-.64c0-.12,0-.11,0-.27a1.65,1.65,0,0,1,.39-.69,2,2,0,0,1,.23-.22l1.48,1,.91-1.32a1,1,0,0,1,.34-.66.91.91,0,0,1,.7-.21l.13,0a1.57,1.57,0,0,0,1.28-.09,1.5,1.5,0,0,0,.66-.89A1.46,1.46,0,0,0,42.32,64.33Z"/><path class="cls-2" d="M27.87,64.33a1.2,1.2,0,0,0-.81-.59,1,1,0,0,0-.84.22,1,1,0,0,0-.29.71,1,1,0,0,0,.13.65.89.89,0,0,0,.52.38.83.83,0,0,0,.71-.13.76.76,0,0,0,.29-.72.71.71,0,0,0-.4-.53.6.6,0,0,0-.61.08.47.47,0,0,0-.17.44.56.56,0,0,0,.21.27,1,1,0,0,0,.2.14l0-.29-.12-.05a.25.25,0,0,1,.27-.39.42.42,0,0,1,.29.37.51.51,0,0,1-.32.53.55.55,0,0,1-.5-.09.58.58,0,0,1-.19-.33.71.71,0,0,1,1.2-.72.9.9,0,0,1,.26.56,1.15,1.15,0,0,1-1.24,1.38c-.15,0-.15,0-.44-.07a2,2,0,0,0-.77,0,1.06,1.06,0,0,0-.74.64c0,.12,0,.11,0,.27a1.65,1.65,0,0,1-.39.69,2,2,0,0,1-.23.22l-1.48-1-.91,1.32a1,1,0,0,1-.34.66.91.91,0,0,1-.7.21l-.13,0a1.57,1.57,0,0,0-1.28.09,1.5,1.5,0,0,0-.66.89,1.46,1.46,0,0,0,.09,1.17,1.2,1.2,0,0,0,.81.59,1,1,0,0,0,.84-.22,1,1,0,0,0,.29-.71,1,1,0,0,0-.13-.65.89.89,0,0,0-.52-.38A.83.83,0,0,0,19,70a.76.76,0,0,0-.29.72.71.71,0,0,0,.4.53.6.6,0,0,0,.61-.08.47.47,0,0,0,.17-.44.56.56,0,0,0-.21-.27,1,1,0,0,0-.2-.14l0,.29.12.05a.25.25,0,0,1-.27.39.42.42,0,0,1-.29-.37.51.51,0,0,1,.32-.53.55.55,0,0,1,.5.09.58.58,0,0,1,.19.33.71.71,0,0,1-1.2.72.9.9,0,0,1-.26-.56,1.15,1.15,0,0,1,1.24-1.38c.15,0,.15,0,.44.07a2,2,0,0,0,.77,0,1.06,1.06,0,0,0,.74-.64c0-.12,0-.11,0-.27a1.65,1.65,0,0,1,.39-.69,2,2,0,0,1,.23-.22l1.48,1,.91-1.32a1,1,0,0,1,.34-.66.91.91,0,0,1,.7-.21l.13,0a1.57,1.57,0,0,0,1.28-.09,1.5,1.5,0,0,0,.66-.89A1.46,1.46,0,0,0,27.87,64.33Z"/><path class="cls-2" d="M56.91,64.33a1.2,1.2,0,0,0-.81-.59,1,1,0,0,0-.84.22,1,1,0,0,0-.29.71,1,1,0,0,0,.13.65.89.89,0,0,0,.52.38.83.83,0,0,0,.71-.13.76.76,0,0,0,.29-.72.71.71,0,0,0-.4-.53.6.6,0,0,0-.61.08.47.47,0,0,0-.17.44.56.56,0,0,0,.21.27,1,1,0,0,0,.2.14l0-.29-.12-.05a.25.25,0,0,1,.27-.39.42.42,0,0,1,.29.37.51.51,0,0,1-.32.53.55.55,0,0,1-.5-.09.58.58,0,0,1-.19-.33.71.71,0,0,1,1.2-.72.9.9,0,0,1,.26.56,1.15,1.15,0,0,1-1.24,1.38c-.15,0-.15,0-.44-.07a2,2,0,0,0-.77,0,1.06,1.06,0,0,0-.74.64c0,.12,0,.11,0,.27a1.65,1.65,0,0,1-.39.69,2,2,0,0,1-.23.22l-1.48-1-.91,1.32a1,1,0,0,1-.34.66.91.91,0,0,1-.7.21l-.13,0a1.57,1.57,0,0,0-1.28.09,1.5,1.5,0,0,0-.66.89,1.46,1.46,0,0,0,.09,1.17,1.2,1.2,0,0,0,.81.59,1,1,0,0,0,.84-.22,1,1,0,0,0,.29-.71,1,1,0,0,0-.13-.65.89.89,0,0,0-.52-.38.83.83,0,0,0-.71.13.76.76,0,0,0-.29.72.71.71,0,0,0,.4.53.6.6,0,0,0,.61-.08.47.47,0,0,0,.17-.44.56.56,0,0,0-.21-.27,1,1,0,0,0-.2-.14l0,.29.12.05a.25.25,0,0,1-.27.39.42.42,0,0,1-.29-.37.51.51,0,0,1,.32-.53.55.55,0,0,1,.5.09.58.58,0,0,1,.19.33.71.71,0,0,1-1.2.72.9.9,0,0,1-.26-.56,1.15,1.15,0,0,1,1.24-1.38c.15,0,.15,0,.44.07a2,2,0,0,0,.77,0,1.06,1.06,0,0,0,.74-.64c0-.12,0-.11,0-.27a1.65,1.65,0,0,1,.39-.69,2,2,0,0,1,.23-.22l1.48,1,.91-1.32a1,1,0,0,1,.34-.66.91.91,0,0,1,.7-.21l.13,0a1.57,1.57,0,0,0,1.28-.09,1.5,1.5,0,0,0,.66-.89A1.46,1.46,0,0,0,56.91,64.33Z"/><path class="cls-2" d="M13.06,20.11a1.2,1.2,0,0,0-.81-.59,1,1,0,0,0-.84.22,1,1,0,0,0-.29.71,1,1,0,0,0,.13.65.89.89,0,0,0,.52.38.83.83,0,0,0,.71-.13.76.76,0,0,0,.29-.72.71.71,0,0,0-.4-.53.6.6,0,0,0-.61.08.47.47,0,0,0-.17.44.56.56,0,0,0,.21.27A1,1,0,0,0,12,21l0-.29-.12-.05a.25.25,0,0,1,.27-.39.42.42,0,0,1,.29.37.51.51,0,0,1-.32.53.55.55,0,0,1-.5-.09.58.58,0,0,1-.19-.33.71.71,0,0,1,1.2-.72.9.9,0,0,1,.26.56A1.15,1.15,0,0,1,11.69,22c-.15,0-.15,0-.44-.07a2,2,0,0,0-.77,0,1.06,1.06,0,0,0-.74.64c0,.12,0,.11,0,.27a1.65,1.65,0,0,1-.39.69,2,2,0,0,1-.23.22l-1.48-1L6.68,24a1,1,0,0,1-.34.66.91.91,0,0,1-.7.21l-.13,0A1.57,1.57,0,0,0,4.22,25a1.5,1.5,0,0,0-.66.89A1.46,1.46,0,0,0,3.65,27a1.2,1.2,0,0,0,.81.59,1,1,0,0,0,.84-.22,1,1,0,0,0,.29-.71A1,1,0,0,0,5.45,26a.89.89,0,0,0-.52-.38.83.83,0,0,0-.71.13.76.76,0,0,0-.29.72.71.71,0,0,0,.4.53A.6.6,0,0,0,5,26.95a.47.47,0,0,0,.17-.44.56.56,0,0,0-.21-.27,1,1,0,0,0-.2-.14l0,.29.12.05a.25.25,0,0,1-.27.39.42.42,0,0,1-.29-.37.51.51,0,0,1,.32-.53A.55.55,0,0,1,5,26a.58.58,0,0,1,.19.33.78.78,0,0,1-.27.82A.78.78,0,0,1,4,27.07a.9.9,0,0,1-.26-.56,1.25,1.25,0,0,1,.33-1.07A1.25,1.25,0,0,1,5,25.13c.15,0,.15,0,.44.07a2,2,0,0,0,.77,0A1.06,1.06,0,0,0,7,24.59c0-.12,0-.11,0-.27a1.65,1.65,0,0,1,.39-.69,2,2,0,0,1,.23-.22l1.48,1L10,23.09a1,1,0,0,1,.34-.66.91.91,0,0,1,.7-.21l.13,0a1.57,1.57,0,0,0,1.28-.09,1.5,1.5,0,0,0,.66-.89A1.46,1.46,0,0,0,13.06,20.11Z"/><path class="cls-2" d="M13,34.55a1.2,1.2,0,0,0-.81-.59,1,1,0,0,0-.84.22,1,1,0,0,0-.29.71,1,1,0,0,0,.13.65.89.89,0,0,0,.52.38.83.83,0,0,0,.71-.13.76.76,0,0,0,.29-.72.71.71,0,0,0-.4-.53.6.6,0,0,0-.61.08.47.47,0,0,0-.17.44.56.56,0,0,0,.21.27,1,1,0,0,0,.2.14l0-.29-.12-.05a.25.25,0,0,1,.27-.39.42.42,0,0,1,.29.37.51.51,0,0,1-.32.53.55.55,0,0,1-.5-.09.58.58,0,0,1-.19-.33.71.71,0,0,1,1.2-.72.9.9,0,0,1,.26.56,1.15,1.15,0,0,1-1.24,1.38c-.15,0-.15,0-.44-.07a2,2,0,0,0-.77,0,1.06,1.06,0,0,0-.74.64c0,.12,0,.11,0,.27a1.65,1.65,0,0,1-.39.69,2,2,0,0,1-.23.22l-1.48-1-.91,1.32a1,1,0,0,1-.34.66.91.91,0,0,1-.7.21l-.13,0a1.57,1.57,0,0,0-1.28.09,1.5,1.5,0,0,0-.66.89,1.46,1.46,0,0,0,.09,1.17,1.2,1.2,0,0,0,.81.59,1,1,0,0,0,.84-.22,1,1,0,0,0,.29-.71,1,1,0,0,0-.13-.65.89.89,0,0,0-.52-.38.83.83,0,0,0-.71.13.76.76,0,0,0-.29.72.71.71,0,0,0,.4.53.6.6,0,0,0,.61-.08A.47.47,0,0,0,5,40.95a.56.56,0,0,0-.21-.27,1,1,0,0,0-.2-.14l0,.29.12.05a.25.25,0,0,1-.27.39.42.42,0,0,1-.29-.37.51.51,0,0,1,.32-.53.55.55,0,0,1,.5.09.58.58,0,0,1,.19.33.78.78,0,0,1-.27.82.78.78,0,0,1-.92-.11.9.9,0,0,1-.26-.56A1.25,1.25,0,0,1,4,39.88a1.25,1.25,0,0,1,.91-.31c.15,0,.15,0,.44.07a2,2,0,0,0,.77,0A1.06,1.06,0,0,0,6.86,39c0-.12,0-.11,0-.27a1.65,1.65,0,0,1,.39-.69,2,2,0,0,1,.23-.22l1.48,1,.91-1.32a1,1,0,0,1,.34-.66.91.91,0,0,1,.7-.21l.13,0a1.57,1.57,0,0,0,1.28-.09,1.5,1.5,0,0,0,.66-.89A1.46,1.46,0,0,0,13,34.55Z"/><path class="cls-2" d="M13.06,49.52a1.2,1.2,0,0,0-.81-.59,1,1,0,0,0-.84.22,1,1,0,0,0-.29.71,1,1,0,0,0,.13.65.89.89,0,0,0,.52.38.83.83,0,0,0,.71-.13.76.76,0,0,0,.29-.72.71.71,0,0,0-.4-.53.6.6,0,0,0-.61.08.47.47,0,0,0-.17.44.56.56,0,0,0,.21.27,1,1,0,0,0,.2.14l0-.29-.12-.05a.25.25,0,0,1,.27-.39.42.42,0,0,1,.29.37.51.51,0,0,1-.32.53.55.55,0,0,1-.5-.09.58.58,0,0,1-.19-.33.71.71,0,0,1,1.2-.72.9.9,0,0,1,.26.56,1.15,1.15,0,0,1-1.24,1.38c-.15,0-.15,0-.44-.07a2,2,0,0,0-.77,0,1.06,1.06,0,0,0-.74.64c0,.12,0,.11,0,.27a1.65,1.65,0,0,1-.39.69,2,2,0,0,1-.23.22l-1.48-1-.91,1.32a1,1,0,0,1-.34.66.91.91,0,0,1-.7.21l-.13,0a1.57,1.57,0,0,0-1.28.09,1.5,1.5,0,0,0-.66.89,1.46,1.46,0,0,0,.09,1.17,1.2,1.2,0,0,0,.81.59,1,1,0,0,0,.84-.22,1,1,0,0,0,.29-.71,1,1,0,0,0-.13-.65.89.89,0,0,0-.52-.38.83.83,0,0,0-.71.13.76.76,0,0,0-.29.72.71.71,0,0,0,.4.53A.6.6,0,0,0,5,56.35a.47.47,0,0,0,.17-.44.56.56,0,0,0-.21-.27,1,1,0,0,0-.2-.14l0,.29.12.05a.25.25,0,0,1-.27.39.42.42,0,0,1-.29-.37.51.51,0,0,1,.32-.53.55.55,0,0,1,.5.09.58.58,0,0,1,.19.33.78.78,0,0,1-.27.82A.78.78,0,0,1,4,56.47a.9.9,0,0,1-.26-.56,1.25,1.25,0,0,1,.33-1.07A1.25,1.25,0,0,1,5,54.53c.15,0,.15,0,.44.07a2,2,0,0,0,.77,0A1.06,1.06,0,0,0,7,54c0-.12,0-.11,0-.27A1.65,1.65,0,0,1,7.41,53a2,2,0,0,1,.23-.22l1.48,1L10,52.49a1,1,0,0,1,.34-.66.91.91,0,0,1,.7-.21l.13,0a1.57,1.57,0,0,0,1.28-.09,1.5,1.5,0,0,0,.66-.89A1.46,1.46,0,0,0,13.06,49.52Z"/><path class="cls-2" d="M12.91,64a1.2,1.2,0,0,0-.81-.59,1,1,0,0,0-.84.22,1,1,0,0,0-.29.71,1,1,0,0,0,.13.65.89.89,0,0,0,.52.38.83.83,0,0,0,.71-.13.76.76,0,0,0,.29-.72.71.71,0,0,0-.4-.53.6.6,0,0,0-.61.08.47.47,0,0,0-.17.44.56.56,0,0,0,.21.27,1,1,0,0,0,.2.14l0-.29-.12-.05a.25.25,0,0,1,.27-.39.42.42,0,0,1,.29.37.51.51,0,0,1-.32.53.55.55,0,0,1-.5-.09.58.58,0,0,1-.19-.33.71.71,0,0,1,1.2-.72.9.9,0,0,1,.26.56,1.15,1.15,0,0,1-1.24,1.38c-.15,0-.15,0-.44-.07a2,2,0,0,0-.77,0,1.06,1.06,0,0,0-.74.64c0,.12,0,.11,0,.27a1.65,1.65,0,0,1-.39.69,2,2,0,0,1-.23.22l-1.48-1-.91,1.32a1,1,0,0,1-.34.66.91.91,0,0,1-.7.21l-.13,0a1.57,1.57,0,0,0-1.28.09,1.5,1.5,0,0,0-.66.89,1.46,1.46,0,0,0,.09,1.17,1.2,1.2,0,0,0,.81.59,1,1,0,0,0,.84-.22,1,1,0,0,0,.29-.71,1,1,0,0,0-.13-.65.89.89,0,0,0-.52-.38.83.83,0,0,0-.71.13.76.76,0,0,0-.29.72.71.71,0,0,0,.4.53.6.6,0,0,0,.61-.08A.47.47,0,0,0,5,70.38a.56.56,0,0,0-.21-.27,1,1,0,0,0-.2-.14l0,.29.12.05a.25.25,0,0,1-.27.39.42.42,0,0,1-.29-.37.51.51,0,0,1,.32-.53.55.55,0,0,1,.5.09.58.58,0,0,1,.19.33.78.78,0,0,1-.27.82.78.78,0,0,1-.92-.11.9.9,0,0,1-.26-.56A1.25,1.25,0,0,1,4,69.31,1.25,1.25,0,0,1,4.87,69c.15,0,.15,0,.44.07a2,2,0,0,0,.77,0,1.06,1.06,0,0,0,.74-.64c0-.12,0-.11,0-.27a1.65,1.65,0,0,1,.39-.69,2,2,0,0,1,.23-.22l1.48,1L9.88,67a1,1,0,0,1,.34-.66.91.91,0,0,1,.7-.21l.13,0A1.57,1.57,0,0,0,12.34,66a1.5,1.5,0,0,0,.66-.89A1.46,1.46,0,0,0,12.91,64Z"/><circle class="cls-2" cx="0.94" cy="23.85" r="0.91"/><circle class="cls-2" cx="0.91" cy="38.27" r="0.91"/><circle class="cls-2" cx="1.15" cy="53.14" r="0.91"/><circle class="cls-2" cx="1.12" cy="67.56" r="0.91"/><circle class="cls-2" cx="1.13" cy="9.34" r="0.91"/><polygon class="cls-2" points="9.17 2.75 9.62 3.17 9.08 3.72 7.25 1.99 6.82 1.57 7.35 1.02 9.17 2.75"/><polygon class="cls-2" points="23.97 2.78 24.41 3.2 23.87 3.75 22.06 2.01 21.62 1.58 22.16 1.04 23.97 2.78"/><polygon class="cls-2" points="38.42 2.76 38.87 3.17 38.35 3.73 36.49 2.03 36.05 1.62 36.57 1.06 38.42 2.76"/><polygon class="cls-2" points="53 2.8 53.43 3.23 52.88 3.77 51.11 1.99 50.68 1.55 51.23 1.02 53 2.8"/><polygon class="cls-2" points="67.64 2.7 68.1 3.1 67.58 3.67 65.7 1.99 65.25 1.58 65.77 1.02 67.64 2.7"/><path class="cls-2" d="M42.26,6a1.2,1.2,0,0,0-.81-.59,1,1,0,0,0-.84.22,1,1,0,0,0-.29.71,1,1,0,0,0,.13.65.89.89,0,0,0,.52.38.83.83,0,0,0,.71-.13A.76.76,0,0,0,42,6.51a.71.71,0,0,0-.4-.53.6.6,0,0,0-.61.08.47.47,0,0,0-.17.44.56.56,0,0,0,.21.27,1,1,0,0,0,.2.14l0-.29-.12-.05a.25.25,0,0,1,.27-.39.42.42,0,0,1,.29.37.51.51,0,0,1-.32.53.55.55,0,0,1-.5-.09.58.58,0,0,1-.19-.33.71.71,0,0,1,1.2-.72.9.9,0,0,1,.26.56,1.25,1.25,0,0,1-.33,1.07,1.25,1.25,0,0,1-.91.31c-.15,0-.15,0-.44-.07a2,2,0,0,0-.77,0,1.06,1.06,0,0,0-.74.64c0,.12,0,.11,0,.27a1.65,1.65,0,0,1-.39.69,2,2,0,0,1-.23.22l-1.48-1-.91,1.32a1,1,0,0,1-.34.66.91.91,0,0,1-.7.21l-.13,0a1.57,1.57,0,0,0-1.28.09,1.5,1.5,0,0,0-.66.89,1.46,1.46,0,0,0,.09,1.17,1.2,1.2,0,0,0,.81.59,1,1,0,0,0,.84-.22,1,1,0,0,0,.29-.71,1,1,0,0,0-.13-.65.89.89,0,0,0-.52-.38.83.83,0,0,0-.71.13.76.76,0,0,0-.29.72.71.71,0,0,0,.4.53.6.6,0,0,0,.61-.08.47.47,0,0,0,.17-.44.56.56,0,0,0-.21-.27,1,1,0,0,0-.2-.14l0,.29.12.05a.25.25,0,0,1-.27.39.42.42,0,0,1-.29-.37.51.51,0,0,1,.32-.53.55.55,0,0,1,.5.09.58.58,0,0,1,.19.33.71.71,0,0,1-1.2.72.9.9,0,0,1-.26-.56A1.15,1.15,0,0,1,34.22,11c.15,0,.15,0,.44.07a2,2,0,0,0,.77,0,1.06,1.06,0,0,0,.74-.64c0-.12,0-.11,0-.27a1.65,1.65,0,0,1,.39-.69,2,2,0,0,1,.23-.22l1.48,1L39.23,9a1,1,0,0,1,.34-.66.91.91,0,0,1,.7-.21l.13,0a1.57,1.57,0,0,0,1.28-.09,1.5,1.5,0,0,0,.66-.89A1.46,1.46,0,0,0,42.26,6Z"/><path class="cls-2" d="M27.81,6A1.2,1.2,0,0,0,27,5.4a1,1,0,0,0-.84.22,1,1,0,0,0-.29.71A1,1,0,0,0,26,7a.89.89,0,0,0,.52.38.83.83,0,0,0,.71-.13.76.76,0,0,0,.29-.72.71.71,0,0,0-.4-.53.6.6,0,0,0-.61.08.47.47,0,0,0-.17.44.56.56,0,0,0,.21.27,1,1,0,0,0,.2.14l0-.29-.12-.05A.25.25,0,0,1,27,6.18a.42.42,0,0,1,.29.37.51.51,0,0,1-.32.53.55.55,0,0,1-.5-.09.58.58,0,0,1-.19-.33.71.71,0,0,1,1.2-.72.9.9,0,0,1,.26.56,1.25,1.25,0,0,1-.33,1.07,1.25,1.25,0,0,1-.91.31c-.15,0-.15,0-.44-.07a2,2,0,0,0-.77,0,1.06,1.06,0,0,0-.74.64c0,.12,0,.11,0,.27a1.65,1.65,0,0,1-.39.69,2,2,0,0,1-.23.22l-1.48-1-.91,1.32a1,1,0,0,1-.34.66.91.91,0,0,1-.7.21l-.13,0a1.57,1.57,0,0,0-1.28.09,1.5,1.5,0,0,0-.66.89,1.46,1.46,0,0,0,.09,1.17,1.2,1.2,0,0,0,.81.59,1,1,0,0,0,.84-.22,1,1,0,0,0,.29-.71,1,1,0,0,0-.13-.65.89.89,0,0,0-.52-.38.83.83,0,0,0-.71.13.76.76,0,0,0-.29.72.71.71,0,0,0,.4.53.6.6,0,0,0,.61-.08.47.47,0,0,0,.17-.44.56.56,0,0,0-.21-.27,1,1,0,0,0-.2-.14l0,.29.12.05a.25.25,0,0,1-.27.39.42.42,0,0,1-.29-.37.51.51,0,0,1,.32-.53.55.55,0,0,1,.5.09.58.58,0,0,1,.19.33.71.71,0,0,1-1.2.72.9.9,0,0,1-.26-.56A1.15,1.15,0,0,1,19.77,11c.15,0,.15,0,.44.07a2,2,0,0,0,.77,0,1.06,1.06,0,0,0,.74-.64c0-.12,0-.11,0-.27a1.65,1.65,0,0,1,.39-.69,2,2,0,0,1,.23-.22l1.48,1L24.79,9a1,1,0,0,1,.34-.66.91.91,0,0,1,.7-.21l.13,0a1.57,1.57,0,0,0,1.28-.09,1.5,1.5,0,0,0,.66-.89A1.46,1.46,0,0,0,27.81,6Z"/><path class="cls-2" d="M56.86,6A1.2,1.2,0,0,0,56,5.4a1,1,0,0,0-.84.22,1,1,0,0,0-.29.71,1,1,0,0,0,.13.65.89.89,0,0,0,.52.38.83.83,0,0,0,.71-.13.76.76,0,0,0,.29-.72.71.71,0,0,0-.4-.53.6.6,0,0,0-.61.08.47.47,0,0,0-.17.44.56.56,0,0,0,.21.27,1,1,0,0,0,.2.14l0-.29-.12-.05A.25.25,0,0,1,56,6.18a.42.42,0,0,1,.29.37.51.51,0,0,1-.32.53.55.55,0,0,1-.5-.09.58.58,0,0,1-.19-.33.71.71,0,0,1,1.2-.72.9.9,0,0,1,.26.56,1.25,1.25,0,0,1-.33,1.07,1.25,1.25,0,0,1-.91.31c-.15,0-.15,0-.44-.07a2,2,0,0,0-.77,0,1.06,1.06,0,0,0-.74.64c0,.12,0,.11,0,.27a1.65,1.65,0,0,1-.39.69,2,2,0,0,1-.23.22l-1.48-1-.91,1.32a1,1,0,0,1-.34.66.91.91,0,0,1-.7.21l-.13,0a1.57,1.57,0,0,0-1.28.09,1.5,1.5,0,0,0-.66.89,1.46,1.46,0,0,0,.09,1.17,1.2,1.2,0,0,0,.81.59,1,1,0,0,0,.84-.22,1,1,0,0,0,.29-.71,1,1,0,0,0-.13-.65.89.89,0,0,0-.52-.38.83.83,0,0,0-.71.13.76.76,0,0,0-.29.72.71.71,0,0,0,.4.53.6.6,0,0,0,.61-.08.47.47,0,0,0,.17-.44.56.56,0,0,0-.21-.27,1,1,0,0,0-.2-.14l0,.29.12.05a.25.25,0,0,1-.27.39.42.42,0,0,1-.29-.37.51.51,0,0,1,.32-.53.55.55,0,0,1,.5.09.58.58,0,0,1,.19.33.71.71,0,0,1-1.2.72.9.9,0,0,1-.26-.56A1.15,1.15,0,0,1,48.82,11c.15,0,.15,0,.44.07a2,2,0,0,0,.77,0,1.06,1.06,0,0,0,.74-.64c0-.12,0-.11,0-.27a1.65,1.65,0,0,1,.39-.69,2,2,0,0,1,.23-.22l1.48,1L53.83,9a1,1,0,0,1,.34-.66.91.91,0,0,1,.7-.21l.13,0a1.57,1.57,0,0,0,1.28-.09,1.5,1.5,0,0,0,.66-.89A1.46,1.46,0,0,0,56.86,6Z"/><path class="cls-2" d="M71.62,6.06a1.2,1.2,0,0,0-.81-.59,1,1,0,0,0-.84.22,1,1,0,0,0-.29.71,1,1,0,0,0,.13.65.89.89,0,0,0,.52.38A.83.83,0,0,0,71,7.3a.76.76,0,0,0,.29-.72.71.71,0,0,0-.4-.53.6.6,0,0,0-.61.08.47.47,0,0,0-.17.44.56.56,0,0,0,.21.27,1,1,0,0,0,.2.14l0-.29-.12-.05a.25.25,0,0,1,.27-.39.42.42,0,0,1,.29.37.51.51,0,0,1-.32.53.55.55,0,0,1-.5-.09A.58.58,0,0,1,70,6.73.71.71,0,0,1,71.23,6a.9.9,0,0,1,.26.56,1.25,1.25,0,0,1-.33,1.07,1.25,1.25,0,0,1-.91.31c-.15,0-.15,0-.44-.07a2,2,0,0,0-.77,0,1.06,1.06,0,0,0-.74.64c0,.12,0,.11,0,.27a1.65,1.65,0,0,1-.39.69,2,2,0,0,1-.23.22l-1.48-1L65.24,10a1,1,0,0,1-.34.66.91.91,0,0,1-.7.21l-.13,0a1.57,1.57,0,0,0-1.28.09,1.5,1.5,0,0,0-.66.89A1.46,1.46,0,0,0,62.21,13a1.2,1.2,0,0,0,.81.59,1,1,0,0,0,.84-.22,1,1,0,0,0,.29-.71A1,1,0,0,0,64,12a.89.89,0,0,0-.52-.38.83.83,0,0,0-.71.13.76.76,0,0,0-.29.72.71.71,0,0,0,.4.53.6.6,0,0,0,.61-.08.47.47,0,0,0,.17-.44.56.56,0,0,0-.21-.27,1,1,0,0,0-.2-.14l0,.29.12.05a.25.25,0,0,1-.27.39.42.42,0,0,1-.29-.37.51.51,0,0,1,.32-.53.55.55,0,0,1,.5.09.58.58,0,0,1,.19.33.71.71,0,0,1-1.2.72.9.9,0,0,1-.26-.56,1.15,1.15,0,0,1,1.24-1.38c.15,0,.15,0,.44.07a2,2,0,0,0,.77,0,1.06,1.06,0,0,0,.74-.64c0-.12,0-.11,0-.27A1.65,1.65,0,0,1,66,9.58a2,2,0,0,1,.23-.22l1.48,1L68.6,9a1,1,0,0,1,.34-.66.91.91,0,0,1,.7-.21l.13,0a1.57,1.57,0,0,0,1.28-.09,1.5,1.5,0,0,0,.66-.89A1.46,1.46,0,0,0,71.62,6.06Z"/><path class="cls-2" d="M13,5.71a1.2,1.2,0,0,0-.81-.59,1,1,0,0,0-.84.22,1,1,0,0,0-.29.71,1,1,0,0,0,.13.65.89.89,0,0,0,.52.38A.83.83,0,0,0,12.43,7a.76.76,0,0,0,.29-.72.71.71,0,0,0-.4-.53.6.6,0,0,0-.61.08.47.47,0,0,0-.17.44.56.56,0,0,0,.21.27,1,1,0,0,0,.2.14l0-.29-.12-.05a.25.25,0,0,1,.27-.39.42.42,0,0,1,.29.37.51.51,0,0,1-.32.53.55.55,0,0,1-.5-.09.58.58,0,0,1-.19-.33.71.71,0,0,1,1.2-.72.9.9,0,0,1,.26.56,1.25,1.25,0,0,1-.33,1.07,1.25,1.25,0,0,1-.91.31c-.15,0-.15,0-.44-.07a2,2,0,0,0-.77,0,1.06,1.06,0,0,0-.74.64c0,.12,0,.11,0,.27a1.65,1.65,0,0,1-.39.69A2,2,0,0,1,9,9.32l-1.48-1L6.62,9.64a1,1,0,0,1-.34.66.91.91,0,0,1-.7.21l-.13,0a1.57,1.57,0,0,0-1.28.09,1.5,1.5,0,0,0-.66.89,1.46,1.46,0,0,0,.09,1.17,1.2,1.2,0,0,0,.81.59A1,1,0,0,0,5.25,13a1,1,0,0,0,.29-.71,1,1,0,0,0-.13-.65.89.89,0,0,0-.52-.38.83.83,0,0,0-.71.13.76.76,0,0,0-.29.72.71.71,0,0,0,.4.53.6.6,0,0,0,.61-.08.47.47,0,0,0,.17-.44.56.56,0,0,0-.21-.27,1,1,0,0,0-.2-.14l0,.29.12.05a.25.25,0,0,1-.27.39.42.42,0,0,1-.29-.37.51.51,0,0,1,.32-.53.55.55,0,0,1,.5.09.58.58,0,0,1,.19.33.78.78,0,0,1-.27.82A.78.78,0,0,1,4,12.67a.9.9,0,0,1-.26-.56A1.25,1.25,0,0,1,4.05,11,1.25,1.25,0,0,1,5,10.73c.15,0,.15,0,.44.07a2,2,0,0,0,.77,0,1.06,1.06,0,0,0,.74-.64c0-.12,0-.11,0-.27a1.65,1.65,0,0,1,.39-.69A2,2,0,0,1,7.58,9l1.48,1L10,8.69A1,1,0,0,1,10.32,8a.91.91,0,0,1,.7-.21l.13,0a1.57,1.57,0,0,0,1.28-.09,1.5,1.5,0,0,0,.66-.89A1.46,1.46,0,0,0,13,5.71Z"/></svg>