<svg id="Layer_1" data-name="Layer 1" xmlns="http://www.w3.org/2000/svg" viewBox="0 0 72 72"><defs><style>.cls-1{fill:#f05151;}.cls-2{fill:#9c2224;}.cls-3{fill:#231f20;}.cls-4{fill:#eb2227;}.cls-5{fill:#c72127;}</style></defs><title>wallpaper_color_r2</title><rect class="cls-1" width="72" height="72"/><path class="cls-2" d="M44.37,18.78a.93.93,0,0,0-.62-.46.78.78,0,0,0-.65.17.79.79,0,0,0-.22.54.77.77,0,0,0,.1.5.68.68,0,0,0,.4.29.64.64,0,0,0,.55-.1.59.59,0,0,0,.22-.55.55.55,0,0,0-.31-.41.46.46,0,0,0-.47.06.37.37,0,0,0-.13.34.43.43,0,0,0,.16.21.75.75,0,0,0,.16.1l0-.22-.09,0a.19.19,0,0,1,.21-.3.32.32,0,0,1,.22.29.4.4,0,0,1-.25.41.42.42,0,0,1-.39-.07.44.44,0,0,1-.15-.25.55.55,0,0,1,.92-.55.69.69,0,0,1,.2.43.88.88,0,0,1-1,1.06c-.12,0-.11,0-.34-.06a1.55,1.55,0,0,0-.59,0,.82.82,0,0,0-.57.49c0,.09,0,.08,0,.21a1.27,1.27,0,0,1-.3.53,1.57,1.57,0,0,1-.18.17l-1.14-.77-.7,1a.76.76,0,0,1-.26.51.7.7,0,0,1-.54.16l-.1,0a1.21,1.21,0,0,0-1,.07,1.16,1.16,0,0,0-.51.69,1.12,1.12,0,0,0,.07.9.93.93,0,0,0,.62.46.78.78,0,0,0,.65-.17.79.79,0,0,0,.22-.54.77.77,0,0,0-.1-.5.68.68,0,0,0-.4-.29.64.64,0,0,0-.55.1.59.59,0,0,0-.22.55.55.55,0,0,0,.31.41.46.46,0,0,0,.47-.06.37.37,0,0,0,.13-.34.43.43,0,0,0-.16-.21.75.75,0,0,0-.16-.1l0,.22.09,0a.19.19,0,0,1-.21.3.32.32,0,0,1-.22-.29.4.4,0,0,1,.25-.41.42.42,0,0,1,.39.07.44.44,0,0,1,.15.25.55.55,0,0,1-.92.55.69.69,0,0,1-.2-.43.88.88,0,0,1,1-1.06c.12,0,.11,0,.34.06a1.55,1.55,0,0,0,.59,0,.82.82,0,0,0,.57-.49c0-.09,0-.08,0-.21a1.27,1.27,0,0,1,.3-.53,1.57,1.57,0,0,1,.18-.17l1.14.77.7-1a.76.76,0,0,1,.26-.51.7.7,0,0,1,.54-.16l.1,0a1.21,1.21,0,0,0,1-.07,1.16,1.16,0,0,0,.51-.69A1.12,1.12,0,0,0,44.37,18.78Z" transform="translate(0 0.05)"/><path class="cls-2" d="M33.26,18.78a.93.93,0,0,0-.62-.46.78.78,0,0,0-.65.17.79.79,0,0,0-.22.54.77.77,0,0,0,.1.5.68.68,0,0,0,.4.29.64.64,0,0,0,.55-.1.59.59,0,0,0,.22-.55.55.55,0,0,0-.31-.41.46.46,0,0,0-.47.06.37.37,0,0,0-.13.34.43.43,0,0,0,.16.21.75.75,0,0,0,.16.1l0-.22-.09,0a.19.19,0,0,1,.21-.3.32.32,0,0,1,.22.29.4.4,0,0,1-.25.41.42.42,0,0,1-.39-.07.44.44,0,0,1-.15-.25.55.55,0,0,1,.92-.55.69.69,0,0,1,.2.43.88.88,0,0,1-1,1.06c-.12,0-.11,0-.34-.06a1.55,1.55,0,0,0-.59,0,.82.82,0,0,0-.57.49c0,.09,0,.08,0,.21a1.27,1.27,0,0,1-.3.53,1.57,1.57,0,0,1-.18.17l-1.14-.77-.7,1a.76.76,0,0,1-.26.51.7.7,0,0,1-.54.16l-.1,0a1.21,1.21,0,0,0-1,.07,1.16,1.16,0,0,0-.51.69,1.12,1.12,0,0,0,.07.9.93.93,0,0,0,.62.46.78.78,0,0,0,.65-.17.79.79,0,0,0,.22-.54.77.77,0,0,0-.1-.5A.68.68,0,0,0,27,23a.64.64,0,0,0-.55.1.59.59,0,0,0-.22.55.55.55,0,0,0,.31.41A.46.46,0,0,0,27,24a.37.37,0,0,0,.13-.34A.43.43,0,0,0,27,23.5a.75.75,0,0,0-.16-.1l0,.22.09,0a.19.19,0,0,1-.21.3.32.32,0,0,1-.22-.29.4.4,0,0,1,.25-.41.42.42,0,0,1,.39.07.44.44,0,0,1,.15.25.55.55,0,0,1-.92.55.69.69,0,0,1-.2-.43.88.88,0,0,1,1-1.06c.12,0,.11,0,.34.06a1.55,1.55,0,0,0,.59,0,.82.82,0,0,0,.57-.49c0-.09,0-.08,0-.21a1.27,1.27,0,0,1,.3-.53,1.57,1.57,0,0,1,.18-.17l1.14.77.7-1a.76.76,0,0,1,.26-.51.7.7,0,0,1,.54-.16l.1,0a1.21,1.21,0,0,0,1-.07,1.16,1.16,0,0,0,.51-.69A1.12,1.12,0,0,0,33.26,18.78Z" transform="translate(0 0.05)"/><path class="cls-2" d="M55.61,18.78a.93.93,0,0,0-.62-.46.78.78,0,0,0-.65.17.79.79,0,0,0-.22.54.77.77,0,0,0,.1.5.68.68,0,0,0,.4.29.64.64,0,0,0,.55-.1.59.59,0,0,0,.22-.55.55.55,0,0,0-.31-.41.46.46,0,0,0-.47.06.37.37,0,0,0-.13.34.43.43,0,0,0,.16.21.75.75,0,0,0,.16.1l0-.22-.09,0a.19.19,0,0,1,.21-.3.32.32,0,0,1,.22.29.4.4,0,0,1-.25.41.42.42,0,0,1-.39-.07.44.44,0,0,1-.15-.25.55.55,0,0,1,.92-.55.69.69,0,0,1,.2.43.88.88,0,0,1-1,1.06c-.12,0-.11,0-.34-.06a1.55,1.55,0,0,0-.59,0,.82.82,0,0,0-.57.49c0,.09,0,.08,0,.21a1.27,1.27,0,0,1-.3.53,1.57,1.57,0,0,1-.18.17l-1.14-.77-.7,1a.76.76,0,0,1-.26.51.7.7,0,0,1-.54.16l-.1,0a1.21,1.21,0,0,0-1,.07,1.16,1.16,0,0,0-.51.69,1.12,1.12,0,0,0,.07.9.93.93,0,0,0,.62.46.78.78,0,0,0,.65-.17.79.79,0,0,0,.22-.54.77.77,0,0,0-.1-.5.68.68,0,0,0-.4-.29.64.64,0,0,0-.55.1.59.59,0,0,0-.22.55.55.55,0,0,0,.31.41.46.46,0,0,0,.47-.06.37.37,0,0,0,.13-.34.43.43,0,0,0-.16-.21.75.75,0,0,0-.16-.1l0,.22.09,0A.19.19,0,0,1,49,24a.32.32,0,0,1-.22-.29.4.4,0,0,1,.25-.41.42.42,0,0,1,.39.07.44.44,0,0,1,.15.25.55.55,0,0,1-.92.55.69.69,0,0,1-.2-.43.88.88,0,0,1,1-1.06c.12,0,.11,0,.34.06a1.55,1.55,0,0,0,.59,0,.82.82,0,0,0,.57-.49c0-.09,0-.08,0-.21a1.27,1.27,0,0,1,.3-.53,1.57,1.57,0,0,1,.18-.17l1.14.77.7-1a.76.76,0,0,1,.26-.51.7.7,0,0,1,.54-.16l.1,0a1.21,1.21,0,0,0,1-.07,1.16,1.16,0,0,0,.51-.69A1.12,1.12,0,0,0,55.61,18.78Z" transform="translate(0 0.05)"/><path class="cls-2" d="M44.29,29.89a.93.93,0,0,0-.62-.46.78.78,0,0,0-.65.17.79.79,0,0,0-.22.54.77.77,0,0,0,.1.5.68.68,0,0,0,.4.29.64.64,0,0,0,.55-.1.59.59,0,0,0,.22-.55.55.55,0,0,0-.31-.41.46.46,0,0,0-.47.06.37.37,0,0,0-.13.34.43.43,0,0,0,.16.21.75.75,0,0,0,.16.1l0-.22-.09,0a.19.19,0,0,1,.21-.3.32.32,0,0,1,.22.29.4.4,0,0,1-.25.41.42.42,0,0,1-.39-.07.44.44,0,0,1-.15-.25.55.55,0,0,1,.92-.55.69.69,0,0,1,.2.43.88.88,0,0,1-1,1.06c-.12,0-.11,0-.34-.06a1.55,1.55,0,0,0-.59,0,.82.82,0,0,0-.57.49c0,.09,0,.08,0,.21a1.27,1.27,0,0,1-.3.53,1.57,1.57,0,0,1-.18.17l-1.14-.77-.7,1a.76.76,0,0,1-.26.51.7.7,0,0,1-.54.16l-.1,0a1.21,1.21,0,0,0-1,.07,1.16,1.16,0,0,0-.51.69,1.12,1.12,0,0,0,.07.9.93.93,0,0,0,.62.46.78.78,0,0,0,.65-.17.79.79,0,0,0,.22-.54.77.77,0,0,0-.1-.5.68.68,0,0,0-.4-.29.64.64,0,0,0-.55.1.59.59,0,0,0-.22.55.55.55,0,0,0,.31.41.46.46,0,0,0,.47-.06.37.37,0,0,0,.13-.34.43.43,0,0,0-.16-.21.75.75,0,0,0-.16-.1l0,.22.09,0a.19.19,0,0,1-.21.3.32.32,0,0,1-.22-.29.4.4,0,0,1,.25-.41.42.42,0,0,1,.39.07.44.44,0,0,1,.15.25.55.55,0,0,1-.92.55.69.69,0,0,1-.2-.43.88.88,0,0,1,1-1.06c.12,0,.11,0,.34.06a1.55,1.55,0,0,0,.59,0,.82.82,0,0,0,.57-.49c0-.09,0-.08,0-.21a1.27,1.27,0,0,1,.3-.53,1.57,1.57,0,0,1,.18-.17l1.14.77.7-1a.76.76,0,0,1,.26-.51.7.7,0,0,1,.54-.16l.1,0a1.21,1.21,0,0,0,1-.07,1.16,1.16,0,0,0,.51-.69A1.12,1.12,0,0,0,44.29,29.89Z" transform="translate(0 0.05)"/><path class="cls-2" d="M33.18,29.89a.93.93,0,0,0-.62-.46.78.78,0,0,0-.65.17.79.79,0,0,0-.22.54.77.77,0,0,0,.1.5.68.68,0,0,0,.4.29.64.64,0,0,0,.55-.1.59.59,0,0,0,.22-.55.55.55,0,0,0-.31-.41.46.46,0,0,0-.47.06.37.37,0,0,0-.13.34.43.43,0,0,0,.16.21.75.75,0,0,0,.16.1l0-.22-.09,0a.19.19,0,0,1,.21-.3.32.32,0,0,1,.22.29.4.4,0,0,1-.25.41.42.42,0,0,1-.39-.07A.44.44,0,0,1,32,30.4a.55.55,0,0,1,.92-.55.69.69,0,0,1,.2.43.88.88,0,0,1-1,1.06c-.12,0-.11,0-.34-.06a1.55,1.55,0,0,0-.59,0,.82.82,0,0,0-.57.49c0,.09,0,.08,0,.21a1.27,1.27,0,0,1-.3.53,1.57,1.57,0,0,1-.18.17L29,31.9l-.7,1a.76.76,0,0,1-.26.51.7.7,0,0,1-.54.16l-.1,0a1.21,1.21,0,0,0-1,.07,1.16,1.16,0,0,0-.51.69,1.12,1.12,0,0,0,.07.9.93.93,0,0,0,.62.46.78.78,0,0,0,.65-.17.79.79,0,0,0,.22-.54.77.77,0,0,0-.1-.5.68.68,0,0,0-.4-.29.64.64,0,0,0-.55.1.59.59,0,0,0-.22.55.55.55,0,0,0,.31.41.46.46,0,0,0,.47-.06.37.37,0,0,0,.13-.34.43.43,0,0,0-.16-.21.75.75,0,0,0-.16-.1l0,.22.09,0a.19.19,0,0,1-.21.3.32.32,0,0,1-.22-.29.4.4,0,0,1,.25-.41.42.42,0,0,1,.39.07.44.44,0,0,1,.15.25.55.55,0,0,1-.92.55.69.69,0,0,1-.2-.43.88.88,0,0,1,1-1.06c.12,0,.11,0,.34.06a1.55,1.55,0,0,0,.59,0,.82.82,0,0,0,.57-.49c0-.09,0-.08,0-.21a1.27,1.27,0,0,1,.3-.53,1.57,1.57,0,0,1,.18-.17l1.14.77.7-1a.76.76,0,0,1,.26-.51.7.7,0,0,1,.54-.16l.1,0a1.21,1.21,0,0,0,1-.07,1.16,1.16,0,0,0,.51-.69A1.12,1.12,0,0,0,33.18,29.89Z" transform="translate(0 0.05)"/><path class="cls-2" d="M55.52,29.89a.93.93,0,0,0-.62-.46.78.78,0,0,0-.65.17.79.79,0,0,0-.22.54.77.77,0,0,0,.1.5.68.68,0,0,0,.4.29.64.64,0,0,0,.55-.1.59.59,0,0,0,.22-.55.55.55,0,0,0-.31-.41.46.46,0,0,0-.47.06.37.37,0,0,0-.13.34.43.43,0,0,0,.16.21.75.75,0,0,0,.16.1l0-.22-.09,0a.19.19,0,0,1,.21-.3.32.32,0,0,1,.22.29.4.4,0,0,1-.25.41.42.42,0,0,1-.39-.07.44.44,0,0,1-.15-.25.55.55,0,0,1,.92-.55.69.69,0,0,1,.2.43.88.88,0,0,1-1,1.06c-.12,0-.11,0-.34-.06a1.55,1.55,0,0,0-.59,0,.82.82,0,0,0-.57.49c0,.09,0,.08,0,.21a1.27,1.27,0,0,1-.3.53,1.57,1.57,0,0,1-.18.17l-1.14-.77-.7,1a.76.76,0,0,1-.26.51.7.7,0,0,1-.54.16l-.1,0a1.21,1.21,0,0,0-1,.07,1.16,1.16,0,0,0-.51.69,1.12,1.12,0,0,0,.07.9.93.93,0,0,0,.62.46.78.78,0,0,0,.65-.17.79.79,0,0,0,.22-.54.77.77,0,0,0-.1-.5.68.68,0,0,0-.4-.29.64.64,0,0,0-.55.1.59.59,0,0,0-.22.55.55.55,0,0,0,.31.41.46.46,0,0,0,.47-.06.37.37,0,0,0,.13-.34.43.43,0,0,0-.16-.21.75.75,0,0,0-.16-.1l0,.22.09,0a.19.19,0,0,1-.21.3.32.32,0,0,1-.22-.29.4.4,0,0,1,.25-.41.42.42,0,0,1,.39.07.44.44,0,0,1,.15.25.55.55,0,0,1-.92.55.69.69,0,0,1-.2-.43.88.88,0,0,1,1-1.06c.12,0,.11,0,.34.06a1.55,1.55,0,0,0,.59,0,.82.82,0,0,0,.57-.49c0-.09,0-.08,0-.21a1.27,1.27,0,0,1,.3-.53,1.57,1.57,0,0,1,.18-.17l1.14.77.7-1a.76.76,0,0,1,.26-.51.7.7,0,0,1,.54-.16l.1,0a1.21,1.21,0,0,0,1-.07,1.16,1.16,0,0,0,.51-.69A1.12,1.12,0,0,0,55.52,29.89Z" transform="translate(0 0.05)"/><path class="cls-2" d="M44.37,41.4a.93.93,0,0,0-.62-.46.78.78,0,0,0-.65.17.79.79,0,0,0-.22.54.77.77,0,0,0,.1.5.68.68,0,0,0,.4.29.64.64,0,0,0,.55-.1.59.59,0,0,0,.22-.55.55.55,0,0,0-.31-.41.46.46,0,0,0-.47.06.37.37,0,0,0-.13.34.43.43,0,0,0,.16.21.75.75,0,0,0,.16.1l0-.22-.09,0a.19.19,0,0,1,.21-.3.32.32,0,0,1,.22.29.4.4,0,0,1-.25.41.42.42,0,0,1-.39-.07.44.44,0,0,1-.15-.25.55.55,0,0,1,.92-.55.69.69,0,0,1,.2.43.88.88,0,0,1-1,1.06c-.12,0-.11,0-.34-.06a1.55,1.55,0,0,0-.59,0,.82.82,0,0,0-.57.49c0,.09,0,.08,0,.21a1.27,1.27,0,0,1-.3.53,1.57,1.57,0,0,1-.18.17l-1.14-.77-.7,1a.76.76,0,0,1-.26.51.7.7,0,0,1-.54.16l-.1,0a1.21,1.21,0,0,0-1,.07,1.16,1.16,0,0,0-.51.69,1.12,1.12,0,0,0,.07.9.93.93,0,0,0,.62.46A.78.78,0,0,0,38.4,47a.79.79,0,0,0,.22-.54.77.77,0,0,0-.1-.5.68.68,0,0,0-.4-.29.64.64,0,0,0-.55.1.59.59,0,0,0-.22.55.55.55,0,0,0,.31.41.46.46,0,0,0,.47-.06.37.37,0,0,0,.13-.34.43.43,0,0,0-.16-.21A.75.75,0,0,0,38,46l0,.22.09,0a.19.19,0,0,1-.21.3.32.32,0,0,1-.22-.29.4.4,0,0,1,.25-.41.42.42,0,0,1,.39.07.44.44,0,0,1,.15.25.55.55,0,0,1-.92.55.69.69,0,0,1-.2-.43.88.88,0,0,1,1-1.06c.12,0,.11,0,.34.06a1.55,1.55,0,0,0,.59,0,.82.82,0,0,0,.57-.49c0-.09,0-.08,0-.21a1.27,1.27,0,0,1,.3-.53,1.57,1.57,0,0,1,.18-.17l1.14.77.7-1a.76.76,0,0,1,.26-.51.7.7,0,0,1,.54-.16l.1,0a1.21,1.21,0,0,0,1-.07,1.16,1.16,0,0,0,.51-.69A1.12,1.12,0,0,0,44.37,41.4Z" transform="translate(0 0.05)"/><path class="cls-2" d="M33.26,41.4a.93.93,0,0,0-.62-.46.78.78,0,0,0-.65.17.79.79,0,0,0-.22.54.77.77,0,0,0,.1.5.68.68,0,0,0,.4.29.64.64,0,0,0,.55-.1A.59.59,0,0,0,33,41.8a.55.55,0,0,0-.31-.41.46.46,0,0,0-.47.06.37.37,0,0,0-.13.34.43.43,0,0,0,.16.21.75.75,0,0,0,.16.1l0-.22-.09,0a.19.19,0,0,1,.21-.3.32.32,0,0,1,.22.29.4.4,0,0,1-.25.41.42.42,0,0,1-.39-.07.44.44,0,0,1-.15-.25.55.55,0,0,1,.92-.55.69.69,0,0,1,.2.43.88.88,0,0,1-1,1.06c-.12,0-.11,0-.34-.06a1.55,1.55,0,0,0-.59,0,.82.82,0,0,0-.57.49c0,.09,0,.08,0,.21a1.27,1.27,0,0,1-.3.53,1.57,1.57,0,0,1-.18.17l-1.14-.77-.7,1a.76.76,0,0,1-.26.51.7.7,0,0,1-.54.16l-.1,0a1.21,1.21,0,0,0-1,.07,1.16,1.16,0,0,0-.51.69,1.12,1.12,0,0,0,.07.9.93.93,0,0,0,.62.46.78.78,0,0,0,.65-.17.79.79,0,0,0,.22-.54.77.77,0,0,0-.1-.5.68.68,0,0,0-.4-.29.64.64,0,0,0-.55.1.59.59,0,0,0-.22.55.55.55,0,0,0,.31.41.46.46,0,0,0,.47-.06.37.37,0,0,0,.13-.34.43.43,0,0,0-.16-.21.75.75,0,0,0-.16-.1l0,.22.09,0a.19.19,0,0,1-.21.3.32.32,0,0,1-.22-.29.4.4,0,0,1,.25-.41.42.42,0,0,1,.39.07.44.44,0,0,1,.15.25.55.55,0,0,1-.92.55.69.69,0,0,1-.2-.43.88.88,0,0,1,1-1.06c.12,0,.11,0,.34.06a1.55,1.55,0,0,0,.59,0,.82.82,0,0,0,.57-.49c0-.09,0-.08,0-.21a1.27,1.27,0,0,1,.3-.53,1.57,1.57,0,0,1,.18-.17l1.14.77.7-1a.76.76,0,0,1,.26-.51.7.7,0,0,1,.54-.16l.1,0a1.21,1.21,0,0,0,1-.07,1.16,1.16,0,0,0,.51-.69A1.12,1.12,0,0,0,33.26,41.4Z" transform="translate(0 0.05)"/><path class="cls-2" d="M55.61,41.4a.93.93,0,0,0-.62-.46.78.78,0,0,0-.65.17.79.79,0,0,0-.22.54.77.77,0,0,0,.1.5.68.68,0,0,0,.4.29.64.64,0,0,0,.55-.1.59.59,0,0,0,.22-.55.55.55,0,0,0-.31-.41.46.46,0,0,0-.47.06.37.37,0,0,0-.13.34.43.43,0,0,0,.16.21.75.75,0,0,0,.16.1l0-.22-.09,0a.19.19,0,0,1,.21-.3.32.32,0,0,1,.22.29.4.4,0,0,1-.25.41.42.42,0,0,1-.39-.07.44.44,0,0,1-.15-.25.55.55,0,0,1,.92-.55.69.69,0,0,1,.2.43.88.88,0,0,1-1,1.06c-.12,0-.11,0-.34-.06a1.55,1.55,0,0,0-.59,0,.82.82,0,0,0-.57.49c0,.09,0,.08,0,.21a1.27,1.27,0,0,1-.3.53,1.57,1.57,0,0,1-.18.17l-1.14-.77-.7,1a.76.76,0,0,1-.26.51.7.7,0,0,1-.54.16l-.1,0a1.21,1.21,0,0,0-1,.07,1.16,1.16,0,0,0-.51.69,1.12,1.12,0,0,0,.07.9.93.93,0,0,0,.62.46.78.78,0,0,0,.65-.17.79.79,0,0,0,.22-.54.77.77,0,0,0-.1-.5.68.68,0,0,0-.4-.29.64.64,0,0,0-.55.1.59.59,0,0,0-.22.55.55.55,0,0,0,.31.41.46.46,0,0,0,.47-.06.37.37,0,0,0,.13-.34.43.43,0,0,0-.16-.21.75.75,0,0,0-.16-.1l0,.22.09,0a.19.19,0,0,1-.21.3.32.32,0,0,1-.22-.29.4.4,0,0,1,.25-.41.42.42,0,0,1,.39.07.44.44,0,0,1,.15.25.55.55,0,0,1-.92.55.69.69,0,0,1-.2-.43.88.88,0,0,1,1-1.06c.12,0,.11,0,.34.06a1.55,1.55,0,0,0,.59,0,.82.82,0,0,0,.57-.49c0-.09,0-.08,0-.21a1.27,1.27,0,0,1,.3-.53,1.57,1.57,0,0,1,.18-.17l1.14.77.7-1a.76.76,0,0,1,.26-.51.7.7,0,0,1,.54-.16l.1,0a1.21,1.21,0,0,0,1-.07,1.16,1.16,0,0,0,.51-.69A1.12,1.12,0,0,0,55.61,41.4Z" transform="translate(0 0.05)"/><path class="cls-3" d="M60.06,57.88,60,57.82h-.18l0,.06Z" transform="translate(0 0.05)"/><path class="cls-3" d="M59.81,57.82h-.24l0,.06h.25Z" transform="translate(0 0.05)"/><path class="cls-2" d="M67,18.83a.93.93,0,0,0-.62-.46.78.78,0,0,0-.65.17.79.79,0,0,0-.22.54.77.77,0,0,0,.1.5.68.68,0,0,0,.4.29.64.64,0,0,0,.55-.1.59.59,0,0,0,.22-.55.55.55,0,0,0-.31-.41.46.46,0,0,0-.47.06.37.37,0,0,0-.13.34.43.43,0,0,0,.16.21.75.75,0,0,0,.16.1l0-.22-.09,0a.19.19,0,0,1,.21-.3.32.32,0,0,1,.22.29.4.4,0,0,1-.25.41.42.42,0,0,1-.39-.07.44.44,0,0,1-.15-.25.55.55,0,0,1,.92-.55.69.69,0,0,1,.2.43.88.88,0,0,1-1,1.06c-.12,0-.11,0-.34-.06a1.55,1.55,0,0,0-.59,0,.82.82,0,0,0-.57.49c0,.09,0,.08,0,.21a1.27,1.27,0,0,1-.3.53,1.57,1.57,0,0,1-.18.17l-1.14-.77-.7,1a.76.76,0,0,1-.26.51.7.7,0,0,1-.54.16l-.1,0a1.21,1.21,0,0,0-1,.07,1.16,1.16,0,0,0-.51.69,1.12,1.12,0,0,0,.07.9.93.93,0,0,0,.62.46.78.78,0,0,0,.65-.17.79.79,0,0,0,.22-.54.77.77,0,0,0-.1-.5.68.68,0,0,0-.4-.29.64.64,0,0,0-.55.1.59.59,0,0,0-.22.55.55.55,0,0,0,.31.41.46.46,0,0,0,.47-.06.37.37,0,0,0,.13-.34.43.43,0,0,0-.16-.21.75.75,0,0,0-.16-.1l0,.22.09,0a.19.19,0,0,1-.21.3.32.32,0,0,1-.22-.29.4.4,0,0,1,.25-.41.42.42,0,0,1,.39.07.44.44,0,0,1,.15.25.55.55,0,0,1-.92.55.69.69,0,0,1-.2-.43.88.88,0,0,1,1-1.06c.12,0,.11,0,.34.06a1.55,1.55,0,0,0,.59,0,.82.82,0,0,0,.57-.49c0-.09,0-.08,0-.21a1.27,1.27,0,0,1,.3-.53,1.57,1.57,0,0,1,.18-.17l1.14.77.7-1a.76.76,0,0,1,.26-.51.7.7,0,0,1,.54-.16l.1,0a1.21,1.21,0,0,0,1-.07,1.16,1.16,0,0,0,.51-.69A1.12,1.12,0,0,0,67,18.83Z" transform="translate(0 0.05)"/><path class="cls-2" d="M66.88,29.94a.93.93,0,0,0-.62-.46.78.78,0,0,0-.65.17.79.79,0,0,0-.22.54.77.77,0,0,0,.1.5.68.68,0,0,0,.4.29.64.64,0,0,0,.55-.1.59.59,0,0,0,.22-.55.55.55,0,0,0-.31-.41.46.46,0,0,0-.47.06.37.37,0,0,0-.13.34.43.43,0,0,0,.16.21.75.75,0,0,0,.16.1l0-.22-.09,0a.19.19,0,0,1,.21-.3.32.32,0,0,1,.22.29.4.4,0,0,1-.25.41.42.42,0,0,1-.39-.07.44.44,0,0,1-.15-.25.55.55,0,0,1,.92-.55.69.69,0,0,1,.2.43.88.88,0,0,1-1,1.06c-.12,0-.11,0-.34-.06a1.55,1.55,0,0,0-.59,0,.82.82,0,0,0-.57.49c0,.09,0,.08,0,.21a1.27,1.27,0,0,1-.3.53,1.57,1.57,0,0,1-.18.17l-1.14-.77L62,33a.76.76,0,0,1-.26.51.7.7,0,0,1-.54.16l-.1,0a1.21,1.21,0,0,0-1,.07,1.16,1.16,0,0,0-.51.69,1.12,1.12,0,0,0,.07.9.93.93,0,0,0,.62.46.78.78,0,0,0,.65-.17.79.79,0,0,0,.22-.54.77.77,0,0,0-.1-.5.68.68,0,0,0-.4-.29.64.64,0,0,0-.55.1.59.59,0,0,0-.22.55.55.55,0,0,0,.31.41.46.46,0,0,0,.47-.06.37.37,0,0,0,.13-.34.43.43,0,0,0-.16-.21.75.75,0,0,0-.16-.1l0,.22.09,0a.19.19,0,0,1-.21.3.32.32,0,0,1-.22-.29.4.4,0,0,1,.25-.41.42.42,0,0,1,.39.07.44.44,0,0,1,.15.25.55.55,0,0,1-.92.55.69.69,0,0,1-.2-.43.88.88,0,0,1,1-1.06c.12,0,.11,0,.34.06a1.55,1.55,0,0,0,.59,0,.82.82,0,0,0,.57-.49c0-.09,0-.08,0-.21a1.27,1.27,0,0,1,.3-.53,1.57,1.57,0,0,1,.18-.17l1.14.77.7-1a.76.76,0,0,1,.26-.51.7.7,0,0,1,.54-.16l.1,0a1.21,1.21,0,0,0,1-.07,1.16,1.16,0,0,0,.51-.69A1.12,1.12,0,0,0,66.88,29.94Z" transform="translate(0 0.05)"/><path class="cls-2" d="M67,41.46a.93.93,0,0,0-.62-.46.78.78,0,0,0-.65.17.79.79,0,0,0-.22.54.77.77,0,0,0,.1.5.68.68,0,0,0,.4.29.64.64,0,0,0,.55-.1.59.59,0,0,0,.22-.55.55.55,0,0,0-.31-.41.46.46,0,0,0-.47.06.37.37,0,0,0-.13.34.43.43,0,0,0,.16.21.75.75,0,0,0,.16.1l0-.22-.09,0a.19.19,0,0,1,.21-.3.32.32,0,0,1,.22.29.4.4,0,0,1-.25.41.42.42,0,0,1-.39-.07.44.44,0,0,1-.15-.25.55.55,0,0,1,.92-.55.69.69,0,0,1,.2.43.88.88,0,0,1-1,1.06c-.12,0-.11,0-.34-.06a1.55,1.55,0,0,0-.59,0,.82.82,0,0,0-.57.49c0,.09,0,.08,0,.21a1.27,1.27,0,0,1-.3.53,1.57,1.57,0,0,1-.18.17l-1.14-.77-.7,1a.76.76,0,0,1-.26.51.7.7,0,0,1-.54.16l-.1,0a1.21,1.21,0,0,0-1,.07,1.16,1.16,0,0,0-.51.69,1.12,1.12,0,0,0,.07.9.93.93,0,0,0,.62.46.78.78,0,0,0,.65-.17.79.79,0,0,0,.22-.54.77.77,0,0,0-.1-.5.68.68,0,0,0-.4-.29.64.64,0,0,0-.55.1.59.59,0,0,0-.22.55.55.55,0,0,0,.31.41.46.46,0,0,0,.47-.06.37.37,0,0,0,.13-.34.43.43,0,0,0-.16-.21.75.75,0,0,0-.16-.1l0,.22.09,0a.19.19,0,0,1-.21.3.32.32,0,0,1-.22-.29.4.4,0,0,1,.25-.41.42.42,0,0,1,.39.07.44.44,0,0,1,.15.25.55.55,0,0,1-.92.55.69.69,0,0,1-.2-.43.88.88,0,0,1,1-1.06c.12,0,.11,0,.34.06a1.55,1.55,0,0,0,.59,0,.82.82,0,0,0,.57-.49c0-.09,0-.08,0-.21a1.27,1.27,0,0,1,.3-.53,1.57,1.57,0,0,1,.18-.17l1.14.77.7-1a.76.76,0,0,1,.26-.51.7.7,0,0,1,.54-.16l.1,0a1.21,1.21,0,0,0,1-.07,1.16,1.16,0,0,0,.51-.69A1.12,1.12,0,0,0,67,41.46Z" transform="translate(0 0.05)"/><path class="cls-2" d="M66.85,52.59a.93.93,0,0,0-.62-.46.78.78,0,0,0-.65.17.79.79,0,0,0-.22.54.77.77,0,0,0,.1.5.68.68,0,0,0,.4.29.64.64,0,0,0,.55-.1.59.59,0,0,0,.22-.55.55.55,0,0,0-.31-.41.46.46,0,0,0-.47.06.37.37,0,0,0-.13.34.43.43,0,0,0,.16.21.75.75,0,0,0,.16.1l0-.22L66,53a.19.19,0,0,1,.21-.3.32.32,0,0,1,.22.29.4.4,0,0,1-.25.41.42.42,0,0,1-.39-.07.44.44,0,0,1-.15-.25.55.55,0,0,1,.92-.55.69.69,0,0,1,.2.43.88.88,0,0,1-1,1.06c-.12,0-.11,0-.34-.06a1.55,1.55,0,0,0-.59,0,.82.82,0,0,0-.57.49c0,.09,0,.08,0,.21a1.27,1.27,0,0,1-.3.53,1.57,1.57,0,0,1-.18.17l-1.14-.77-.7,1a.76.76,0,0,1-.26.51.7.7,0,0,1-.54.16l-.1,0a1.21,1.21,0,0,0-1,.07,1.16,1.16,0,0,0-.51.69,1.12,1.12,0,0,0,.07.9.93.93,0,0,0,.62.46.78.78,0,0,0,.65-.17.79.79,0,0,0,.22-.54.77.77,0,0,0-.1-.5.68.68,0,0,0-.4-.29.64.64,0,0,0-.55.1.59.59,0,0,0-.22.55.55.55,0,0,0,.31.41.46.46,0,0,0,.47-.06.37.37,0,0,0,.13-.34.43.43,0,0,0-.16-.21.75.75,0,0,0-.16-.1l0,.22.09,0a.19.19,0,0,1-.21.3.32.32,0,0,1-.22-.29.4.4,0,0,1,.25-.41.42.42,0,0,1,.39.07.44.44,0,0,1,.15.25.55.55,0,0,1-.92.55.69.69,0,0,1-.2-.43.88.88,0,0,1,1-1.06c.12,0,.11,0,.34.06a1.55,1.55,0,0,0,.59,0,.82.82,0,0,0,.57-.49c0-.09,0-.08,0-.21a1.27,1.27,0,0,1,.3-.53,1.57,1.57,0,0,1,.18-.17l1.14.77.7-1a.76.76,0,0,1,.26-.51.7.7,0,0,1,.54-.16l.1,0a1.21,1.21,0,0,0,1-.07,1.16,1.16,0,0,0,.51-.69A1.12,1.12,0,0,0,66.85,52.59Z" transform="translate(0 0.05)"/><path class="cls-2" d="M44.38,52.59a.93.93,0,0,0-.62-.46.78.78,0,0,0-.65.17.79.79,0,0,0-.22.54.77.77,0,0,0,.1.5.68.68,0,0,0,.4.29.64.64,0,0,0,.55-.1.59.59,0,0,0,.22-.55.55.55,0,0,0-.31-.41.46.46,0,0,0-.47.06.37.37,0,0,0-.13.34.43.43,0,0,0,.16.21.75.75,0,0,0,.16.1l0-.22-.09,0a.19.19,0,0,1,.21-.3.32.32,0,0,1,.22.29.4.4,0,0,1-.25.41.42.42,0,0,1-.39-.07.44.44,0,0,1-.15-.25.55.55,0,0,1,.92-.55.69.69,0,0,1,.2.43.88.88,0,0,1-1,1.06c-.12,0-.11,0-.34-.06a1.55,1.55,0,0,0-.59,0,.82.82,0,0,0-.57.49c0,.09,0,.08,0,.21a1.27,1.27,0,0,1-.3.53,1.57,1.57,0,0,1-.18.17l-1.14-.77-.7,1a.76.76,0,0,1-.26.51.7.7,0,0,1-.54.16l-.1,0a1.21,1.21,0,0,0-1,.07,1.16,1.16,0,0,0-.51.69,1.12,1.12,0,0,0,.07.9.93.93,0,0,0,.62.46.78.78,0,0,0,.65-.17.79.79,0,0,0,.22-.54.77.77,0,0,0-.1-.5.68.68,0,0,0-.4-.29.64.64,0,0,0-.55.1.59.59,0,0,0-.22.55.55.55,0,0,0,.31.41.46.46,0,0,0,.47-.06.37.37,0,0,0,.13-.34.43.43,0,0,0-.16-.21.75.75,0,0,0-.16-.1l0,.22.09,0a.19.19,0,0,1-.21.3.32.32,0,0,1-.22-.29.4.4,0,0,1,.25-.41.42.42,0,0,1,.39.07.44.44,0,0,1,.15.25.55.55,0,0,1-.92.55.69.69,0,0,1-.2-.43.88.88,0,0,1,1-1.06c.12,0,.11,0,.34.06a1.55,1.55,0,0,0,.59,0,.82.82,0,0,0,.57-.49c0-.09,0-.08,0-.21a1.27,1.27,0,0,1,.3-.53,1.57,1.57,0,0,1,.18-.17l1.14.77.7-1a.76.76,0,0,1,.26-.51.7.7,0,0,1,.54-.16l.1,0a1.21,1.21,0,0,0,1-.07,1.16,1.16,0,0,0,.51-.69A1.12,1.12,0,0,0,44.38,52.59Z" transform="translate(0 0.05)"/><path class="cls-2" d="M33.26,52.59a.93.93,0,0,0-.62-.46.78.78,0,0,0-.65.17.79.79,0,0,0-.22.54.77.77,0,0,0,.1.5.68.68,0,0,0,.4.29.64.64,0,0,0,.55-.1A.59.59,0,0,0,33,53a.55.55,0,0,0-.31-.41.46.46,0,0,0-.47.06.37.37,0,0,0-.13.34.43.43,0,0,0,.16.21.75.75,0,0,0,.16.1l0-.22-.09,0a.19.19,0,0,1,.21-.3.32.32,0,0,1,.22.29.4.4,0,0,1-.25.41.42.42,0,0,1-.39-.07A.44.44,0,0,1,32,53.1a.55.55,0,0,1,.92-.55.69.69,0,0,1,.2.43.88.88,0,0,1-1,1.06c-.12,0-.11,0-.34-.06a1.55,1.55,0,0,0-.59,0,.82.82,0,0,0-.57.49c0,.09,0,.08,0,.21a1.27,1.27,0,0,1-.3.53,1.57,1.57,0,0,1-.18.17l-1.14-.77-.7,1a.76.76,0,0,1-.26.51.7.7,0,0,1-.54.16l-.1,0a1.21,1.21,0,0,0-1,.07A1.16,1.16,0,0,0,26,57a1.12,1.12,0,0,0,.07.9.93.93,0,0,0,.62.46.78.78,0,0,0,.65-.17.79.79,0,0,0,.22-.54.77.77,0,0,0-.1-.5.68.68,0,0,0-.4-.29.64.64,0,0,0-.55.1.59.59,0,0,0-.22.55.55.55,0,0,0,.31.41.46.46,0,0,0,.47-.06.37.37,0,0,0,.13-.34A.43.43,0,0,0,27,57.3a.75.75,0,0,0-.16-.1l0,.22.09,0a.19.19,0,0,1-.21.3.32.32,0,0,1-.22-.29.4.4,0,0,1,.25-.41.42.42,0,0,1,.39.07.44.44,0,0,1,.15.25.55.55,0,0,1-.92.55.69.69,0,0,1-.2-.43.88.88,0,0,1,1-1.06c.12,0,.11,0,.34.06a1.55,1.55,0,0,0,.59,0,.82.82,0,0,0,.57-.49c0-.09,0-.08,0-.21a1.27,1.27,0,0,1,.3-.53,1.57,1.57,0,0,1,.18-.17l1.14.77.7-1a.76.76,0,0,1,.26-.51.7.7,0,0,1,.54-.16l.1,0a1.21,1.21,0,0,0,1-.07,1.16,1.16,0,0,0,.51-.69A1.12,1.12,0,0,0,33.26,52.59Z" transform="translate(0 0.05)"/><path class="cls-2" d="M55.61,52.59a.93.93,0,0,0-.62-.46.78.78,0,0,0-.65.17.79.79,0,0,0-.22.54.77.77,0,0,0,.1.5.68.68,0,0,0,.4.29.64.64,0,0,0,.55-.1.59.59,0,0,0,.22-.55.55.55,0,0,0-.31-.41.46.46,0,0,0-.47.06.37.37,0,0,0-.13.34.43.43,0,0,0,.16.21.75.75,0,0,0,.16.1l0-.22-.09,0a.19.19,0,0,1,.21-.3.32.32,0,0,1,.22.29.4.4,0,0,1-.25.41.42.42,0,0,1-.39-.07.44.44,0,0,1-.15-.25.55.55,0,0,1,.92-.55.69.69,0,0,1,.2.43.88.88,0,0,1-1,1.06c-.12,0-.11,0-.34-.06a1.55,1.55,0,0,0-.59,0,.82.82,0,0,0-.57.49c0,.09,0,.08,0,.21a1.27,1.27,0,0,1-.3.53,1.57,1.57,0,0,1-.18.17l-1.14-.77-.7,1a.76.76,0,0,1-.26.51.7.7,0,0,1-.54.16l-.1,0a1.21,1.21,0,0,0-1,.07,1.16,1.16,0,0,0-.51.69,1.12,1.12,0,0,0,.07.9.93.93,0,0,0,.62.46.78.78,0,0,0,.65-.17.79.79,0,0,0,.22-.54.77.77,0,0,0-.1-.5.68.68,0,0,0-.4-.29.64.64,0,0,0-.55.1.59.59,0,0,0-.22.55.55.55,0,0,0,.31.41.46.46,0,0,0,.47-.06.37.37,0,0,0,.13-.34.43.43,0,0,0-.16-.21.75.75,0,0,0-.16-.1l0,.22.09,0a.19.19,0,0,1-.21.3.32.32,0,0,1-.22-.29.4.4,0,0,1,.25-.41.42.42,0,0,1,.39.07.44.44,0,0,1,.15.25.55.55,0,0,1-.92.55.69.69,0,0,1-.2-.43.88.88,0,0,1,1-1.06c.12,0,.11,0,.34.06a1.55,1.55,0,0,0,.59,0,.82.82,0,0,0,.57-.49c0-.09,0-.08,0-.21a1.27,1.27,0,0,1,.3-.53,1.57,1.57,0,0,1,.18-.17l1.14.77.7-1a.76.76,0,0,1,.26-.51.7.7,0,0,1,.54-.16l.1,0a1.21,1.21,0,0,0,1-.07,1.16,1.16,0,0,0,.51-.69A1.12,1.12,0,0,0,55.61,52.59Z" transform="translate(0 0.05)"/><path class="cls-2" d="M21.87,18.56a.93.93,0,0,0-.62-.46.78.78,0,0,0-.65.17.79.79,0,0,0-.22.54.77.77,0,0,0,.1.5.68.68,0,0,0,.4.29.64.64,0,0,0,.55-.1.59.59,0,0,0,.22-.55.55.55,0,0,0-.31-.41.46.46,0,0,0-.47.06.37.37,0,0,0-.13.34.43.43,0,0,0,.16.21.75.75,0,0,0,.16.1l0-.22L21,19a.19.19,0,0,1,.21-.3.32.32,0,0,1,.22.29.4.4,0,0,1-.25.41.42.42,0,0,1-.39-.07.44.44,0,0,1-.15-.25.55.55,0,0,1,.92-.55.69.69,0,0,1,.2.43.88.88,0,0,1-1,1.06c-.12,0-.11,0-.34-.06a1.55,1.55,0,0,0-.59,0,.82.82,0,0,0-.57.49c0,.09,0,.08,0,.21a1.27,1.27,0,0,1-.3.53,1.57,1.57,0,0,1-.18.17l-1.14-.77-.7,1a.76.76,0,0,1-.26.51.7.7,0,0,1-.54.16l-.1,0a1.21,1.21,0,0,0-1,.07,1.16,1.16,0,0,0-.51.69,1.12,1.12,0,0,0,.07.9.93.93,0,0,0,.62.46.78.78,0,0,0,.65-.17.79.79,0,0,0,.22-.54.77.77,0,0,0-.1-.5.68.68,0,0,0-.4-.29.64.64,0,0,0-.55.1.59.59,0,0,0-.22.55.55.55,0,0,0,.31.41.46.46,0,0,0,.47-.06.37.37,0,0,0,.13-.34.43.43,0,0,0-.16-.21.75.75,0,0,0-.16-.1l0,.22.09,0a.19.19,0,0,1-.21.3.32.32,0,0,1-.22-.29.4.4,0,0,1,.25-.41.42.42,0,0,1,.39.07.44.44,0,0,1,.15.25.55.55,0,0,1-.92.55.69.69,0,0,1-.2-.43.88.88,0,0,1,1-1.06c.12,0,.11,0,.34.06a1.55,1.55,0,0,0,.59,0,.82.82,0,0,0,.57-.49c0-.09,0-.08,0-.21a1.27,1.27,0,0,1,.3-.53,1.57,1.57,0,0,1,.18-.17l1.14.77.7-1a.76.76,0,0,1,.26-.51.7.7,0,0,1,.54-.16l.1,0a1.21,1.21,0,0,0,1-.07,1.16,1.16,0,0,0,.51-.69A1.12,1.12,0,0,0,21.87,18.56Z" transform="translate(0 0.05)"/><path class="cls-2" d="M21.78,29.67a.93.93,0,0,0-.62-.46.78.78,0,0,0-.65.17.79.79,0,0,0-.22.54.77.77,0,0,0,.1.5.68.68,0,0,0,.4.29.64.64,0,0,0,.55-.1.59.59,0,0,0,.22-.55.55.55,0,0,0-.31-.41.46.46,0,0,0-.47.06.37.37,0,0,0-.13.34.43.43,0,0,0,.16.21.75.75,0,0,0,.16.1l0-.22-.09,0a.19.19,0,0,1,.21-.3.32.32,0,0,1,.22.29.4.4,0,0,1-.25.41.42.42,0,0,1-.39-.07.44.44,0,0,1-.15-.25.55.55,0,0,1,.92-.55.69.69,0,0,1,.2.43.88.88,0,0,1-1,1.06c-.12,0-.11,0-.34-.06a1.55,1.55,0,0,0-.59,0,.82.82,0,0,0-.57.49c0,.09,0,.08,0,.21a1.27,1.27,0,0,1-.3.53,1.57,1.57,0,0,1-.18.17l-1.14-.77-.7,1a.76.76,0,0,1-.26.51.7.7,0,0,1-.54.16l-.1,0a1.21,1.21,0,0,0-1,.07,1.16,1.16,0,0,0-.51.69,1.12,1.12,0,0,0,.07.9.93.93,0,0,0,.62.46.78.78,0,0,0,.65-.17.79.79,0,0,0,.22-.54.77.77,0,0,0-.1-.5.68.68,0,0,0-.4-.29A.64.64,0,0,0,15,34a.59.59,0,0,0-.22.55.55.55,0,0,0,.31.41.46.46,0,0,0,.47-.06.37.37,0,0,0,.13-.34.43.43,0,0,0-.16-.21.75.75,0,0,0-.16-.1l0,.22.09,0a.19.19,0,0,1-.21.3.32.32,0,0,1-.22-.29.4.4,0,0,1,.25-.41.42.42,0,0,1,.39.07.44.44,0,0,1,.15.25.55.55,0,0,1-.92.55.69.69,0,0,1-.2-.43.88.88,0,0,1,1-1.06c.12,0,.11,0,.34.06a1.55,1.55,0,0,0,.59,0,.82.82,0,0,0,.57-.49c0-.09,0-.08,0-.21a1.27,1.27,0,0,1,.3-.53,1.57,1.57,0,0,1,.18-.17l1.14.77.7-1a.76.76,0,0,1,.26-.51.7.7,0,0,1,.54-.16l.1,0a1.21,1.21,0,0,0,1-.07,1.16,1.16,0,0,0,.51-.69A1.12,1.12,0,0,0,21.78,29.67Z" transform="translate(0 0.05)"/><path class="cls-2" d="M21.87,41.18a.93.93,0,0,0-.62-.46.78.78,0,0,0-.65.17.79.79,0,0,0-.22.54.77.77,0,0,0,.1.5.68.68,0,0,0,.4.29.64.64,0,0,0,.55-.1.59.59,0,0,0,.22-.55.55.55,0,0,0-.31-.41.46.46,0,0,0-.47.06.37.37,0,0,0-.13.34.43.43,0,0,0,.16.21.75.75,0,0,0,.16.1l0-.22-.09,0a.19.19,0,0,1,.21-.3.32.32,0,0,1,.22.29.4.4,0,0,1-.25.41.42.42,0,0,1-.39-.07.44.44,0,0,1-.15-.25.55.55,0,0,1,.92-.55.69.69,0,0,1,.2.43.88.88,0,0,1-1,1.06c-.12,0-.11,0-.34-.06a1.55,1.55,0,0,0-.59,0,.82.82,0,0,0-.57.49c0,.09,0,.08,0,.21a1.27,1.27,0,0,1-.3.53,1.57,1.57,0,0,1-.18.17l-1.14-.77-.7,1a.76.76,0,0,1-.26.51.7.7,0,0,1-.54.16l-.1,0a1.21,1.21,0,0,0-1,.07,1.16,1.16,0,0,0-.51.69,1.12,1.12,0,0,0,.07.9.93.93,0,0,0,.62.46.78.78,0,0,0,.65-.17.79.79,0,0,0,.22-.54.77.77,0,0,0-.1-.5.68.68,0,0,0-.4-.29.64.64,0,0,0-.55.1.59.59,0,0,0-.22.55.55.55,0,0,0,.31.41.46.46,0,0,0,.47-.06.37.37,0,0,0,.13-.34.43.43,0,0,0-.16-.21.75.75,0,0,0-.16-.1l0,.22.09,0a.19.19,0,0,1-.21.3.32.32,0,0,1-.22-.29.4.4,0,0,1,.25-.41.42.42,0,0,1,.39.07.44.44,0,0,1,.15.25.55.55,0,0,1-.92.55.69.69,0,0,1-.2-.43.88.88,0,0,1,1-1.06c.12,0,.11,0,.34.06a1.55,1.55,0,0,0,.59,0,.82.82,0,0,0,.57-.49c0-.09,0-.08,0-.21a1.27,1.27,0,0,1,.3-.53,1.57,1.57,0,0,1,.18-.17l1.14.77.7-1A.76.76,0,0,1,19.8,43a.7.7,0,0,1,.54-.16l.1,0a1.21,1.21,0,0,0,1-.07,1.16,1.16,0,0,0,.51-.69A1.12,1.12,0,0,0,21.87,41.18Z" transform="translate(0 0.05)"/><path class="cls-2" d="M21.75,52.31a.93.93,0,0,0-.62-.46.78.78,0,0,0-.65.17.79.79,0,0,0-.22.54.77.77,0,0,0,.1.5.68.68,0,0,0,.4.29.64.64,0,0,0,.55-.1.59.59,0,0,0,.22-.55.55.55,0,0,0-.31-.41.46.46,0,0,0-.47.06.37.37,0,0,0-.13.34.43.43,0,0,0,.16.21.75.75,0,0,0,.16.1l0-.22-.09,0a.19.19,0,0,1,.21-.3.32.32,0,0,1,.22.29.4.4,0,0,1-.25.41.42.42,0,0,1-.39-.07.44.44,0,0,1-.15-.25.55.55,0,0,1,.92-.55.69.69,0,0,1,.2.43.88.88,0,0,1-1,1.06c-.12,0-.11,0-.34-.06a1.55,1.55,0,0,0-.59,0,.82.82,0,0,0-.57.49c0,.09,0,.08,0,.21a1.27,1.27,0,0,1-.3.53,1.57,1.57,0,0,1-.18.17l-1.14-.77-.7,1a.76.76,0,0,1-.26.51A.7.7,0,0,1,16,56l-.1,0a1.21,1.21,0,0,0-1,.07,1.16,1.16,0,0,0-.51.69,1.12,1.12,0,0,0,.07.9.93.93,0,0,0,.62.46.78.78,0,0,0,.65-.17.79.79,0,0,0,.22-.54.77.77,0,0,0-.1-.5.68.68,0,0,0-.4-.29.64.64,0,0,0-.55.1.59.59,0,0,0-.22.55.55.55,0,0,0,.31.41.46.46,0,0,0,.47-.06.37.37,0,0,0,.13-.34.43.43,0,0,0-.16-.21.75.75,0,0,0-.16-.1l0,.22.09,0a.19.19,0,0,1-.21.3A.32.32,0,0,1,15,57.2a.4.4,0,0,1,.25-.41.42.42,0,0,1,.39.07.44.44,0,0,1,.15.25.55.55,0,0,1-.92.55.69.69,0,0,1-.2-.43.88.88,0,0,1,1-1.06c.12,0,.11,0,.34.06a1.55,1.55,0,0,0,.59,0,.82.82,0,0,0,.57-.49c0-.09,0-.08,0-.21a1.27,1.27,0,0,1,.3-.53,1.57,1.57,0,0,1,.18-.17l1.14.77.7-1a.76.76,0,0,1,.26-.51.7.7,0,0,1,.54-.16l.1,0a1.21,1.21,0,0,0,1-.07,1.16,1.16,0,0,0,.51-.69A1.12,1.12,0,0,0,21.75,52.31Z" transform="translate(0 0.05)"/><circle class="cls-4" cx="20.57" cy="12.73" r="0.7"/><polygon class="cls-5" points="23.91 15.33 24.27 15.64 23.86 16.08 22.42 14.79 22.08 14.48 22.47 14.05 23.91 15.33"/><polygon class="cls-5" points="32.94 13.88 33.3 14.19 32.9 14.63 31.45 13.34 31.11 13.03 31.5 12.59 32.94 13.88"/><circle class="cls-4" cx="34.69" cy="15.7" r="0.7"/><circle class="cls-4" cx="36.6" cy="17.32" r="0.7"/><circle class="cls-4" cx="38.39" cy="18.83" r="0.7"/><polygon class="cls-5" points="46.45 16 46.8 16.31 46.4 16.75 44.96 15.46 44.61 15.14 45.01 14.71 46.45 16"/><circle class="cls-4" cx="43.22" cy="13.52" r="0.7"/><circle class="cls-4" cx="48.2" cy="17.87" r="0.7"/><circle class="cls-4" cx="58.63" cy="17" r="0.7"/><polygon class="cls-5" points="56.88 15.04 57.23 15.35 56.83 15.79 55.39 14.5 55.04 14.19 55.44 13.75 56.88 15.04"/><circle class="cls-4" cx="20.57" cy="25.38" r="0.7"/><circle class="cls-4" cx="32.84" cy="25.48" r="0.7"/><circle class="cls-4" cx="34.75" cy="27.1" r="0.7"/><circle class="cls-4" cx="36.54" cy="28.62" r="0.7"/><circle class="cls-4" cx="44.21" cy="25.78" r="0.7"/><polygon class="cls-5" points="47.55 28.38 47.9 28.69 47.5 29.13 46.06 27.84 45.72 27.52 46.11 27.09 47.55 28.38"/><polygon class="cls-5" points="60.63 29.64 60.28 29.33 60.68 28.89 62.12 30.18 62.47 30.49 62.08 30.92 60.63 29.64"/><circle class="cls-4" cx="58.89" cy="27.82" r="0.7"/><circle class="cls-4" cx="56.98" cy="26.2" r="0.7"/><circle class="cls-4" cx="55.19" cy="24.69" r="0.7"/><circle class="cls-4" cx="21.04" cy="38.14" r="0.7"/><circle class="cls-4" cx="37.03" cy="40.16" r="0.7"/><polygon class="cls-5" points="33.69 37.56 33.33 37.25 33.73 36.81 35.18 38.1 35.52 38.41 35.13 38.85 33.69 37.56"/><polygon class="cls-5" points="47.21 39.83 46.86 39.52 47.26 39.08 48.7 40.37 49.05 40.68 48.66 41.11 47.21 39.83"/><circle class="cls-4" cx="45.47" cy="38.01" r="0.7"/><circle class="cls-4" cx="43.56" cy="36.39" r="0.7"/><circle class="cls-4" cx="56.77" cy="38.14" r="0.7"/><circle class="cls-4" cx="20.5" cy="47.43" r="0.7"/><polygon class="cls-5" points="23.85 50.03 24.2 50.34 23.8 50.78 22.36 49.49 22.01 49.18 22.41 48.74 23.85 50.03"/><polygon class="cls-5" points="32.88 48.58 33.23 48.89 32.83 49.33 31.39 48.04 31.04 47.72 31.44 47.29 32.88 48.58"/><circle class="cls-4" cx="34.63" cy="50.39" r="0.7"/><circle class="cls-4" cx="36.53" cy="52.02" r="0.7"/><circle class="cls-4" cx="38.33" cy="53.53" r="0.7"/><polygon class="cls-5" points="46.39 50.7 46.74 51.01 46.34 51.44 44.9 50.16 44.55 49.84 44.95 49.41 46.39 50.7"/><circle class="cls-4" cx="43.15" cy="48.22" r="0.7"/><circle class="cls-4" cx="48.13" cy="52.57" r="0.7"/><circle class="cls-4" cx="58.56" cy="51.7" r="0.7"/><polygon class="cls-5" points="56.82 49.74 57.17 50.05 56.77 50.49 55.33 49.2 54.98 48.88 55.38 48.45 56.82 49.74"/><circle class="cls-4" cx="19.35" cy="59.24" r="0.7"/><circle class="cls-4" cx="31.62" cy="59.34" r="0.7"/><circle class="cls-4" cx="33.52" cy="60.96" r="0.7"/><circle class="cls-4" cx="35.32" cy="62.48" r="0.7"/><circle class="cls-4" cx="42.98" cy="59.64" r="0.7"/><polygon class="cls-5" points="46.33 62.24 46.68 62.55 46.28 62.99 44.84 61.7 44.49 61.38 44.89 60.95 46.33 62.24"/><polygon class="cls-5" points="59.41 63.5 59.06 63.19 59.46 62.75 60.9 64.04 61.25 64.35 60.85 64.78 59.41 63.5"/><circle class="cls-4" cx="57.67" cy="61.68" r="0.7"/><circle class="cls-4" cx="55.76" cy="60.06" r="0.7"/><circle class="cls-4" cx="53.97" cy="58.55" r="0.7"/><polygon class="cls-5" points="23.15 4.04 23.5 4.35 23.1 4.79 21.66 3.5 21.31 3.19 21.71 2.75 23.15 4.04"/><polygon class="cls-5" points="32.18 2.59 32.53 2.9 32.13 3.34 30.69 2.05 30.34 1.73 30.74 1.3 32.18 2.59"/><circle class="cls-4" cx="33.93" cy="4.4" r="0.7"/><circle class="cls-4" cx="35.83" cy="6.03" r="0.7"/><circle class="cls-4" cx="37.63" cy="7.54" r="0.7"/><polygon class="cls-5" points="45.69 4.71 46.04 5.02 45.64 5.45 44.19 4.17 43.85 3.85 44.24 3.42 45.69 4.71"/><circle class="cls-4" cx="42.45" cy="2.23" r="0.7"/><circle class="cls-4" cx="47.43" cy="6.58" r="0.7"/><circle class="cls-4" cx="57.86" cy="5.71" r="0.7"/><polygon class="cls-5" points="56.12 3.75 56.47 4.06 56.06 4.5 54.62 3.21 54.28 2.9 54.67 2.46 56.12 3.75"/><path class="cls-3" d="M14.12,57.16l-.06-.06h-.18l0,.06Z" transform="translate(0 0.05)"/><path class="cls-3" d="M13.87,57.1h-.24l0,.06h.25Z" transform="translate(0 0.05)"/><circle class="cls-4" cx="12.68" cy="16.28" r="0.7"/><polygon class="cls-5" points="10.94 14.32 11.29 14.63 10.89 15.07 9.45 13.78 9.1 13.47 9.5 13.03 10.94 14.32"/><polygon class="cls-5" points="14.69 28.91 14.34 28.61 14.74 28.17 16.18 29.46 16.53 29.77 16.13 30.2 14.69 28.91"/><circle class="cls-4" cx="12.95" cy="27.1" r="0.7"/><circle class="cls-4" cx="11.04" cy="25.48" r="0.7"/><circle class="cls-4" cx="9.25" cy="23.97" r="0.7"/><circle class="cls-4" cx="10.83" cy="37.42" r="0.7"/><circle class="cls-4" cx="12.62" cy="50.98" r="0.7"/><polygon class="cls-5" points="10.88 49.02 11.23 49.33 10.83 49.77 9.38 48.48 9.04 48.16 9.43 47.73 10.88 49.02"/><polygon class="cls-5" points="13.47 62.77 13.12 62.47 13.52 62.03 14.96 63.32 15.31 63.63 14.91 64.06 13.47 62.77"/><circle class="cls-4" cx="11.72" cy="60.96" r="0.7"/><circle class="cls-4" cx="9.82" cy="59.34" r="0.7"/><circle class="cls-4" cx="8.03" cy="57.83" r="0.7"/><circle class="cls-4" cx="11.92" cy="4.99" r="0.7"/><polygon class="cls-5" points="10.17 3.03 10.53 3.34 10.13 3.78 8.68 2.49 8.34 2.17 8.73 1.74 10.17 3.03"/><circle class="cls-4" cx="68.3" cy="12.6" r="0.7"/><polygon class="cls-5" points="71.65 15.2 72 15.51 71.6 15.95 70.16 14.66 69.81 14.34 70.21 13.91 71.65 15.2"/><circle class="cls-4" cx="68.3" cy="25.24" r="0.7"/><circle class="cls-4" cx="68.77" cy="38.01" r="0.7"/><circle class="cls-4" cx="68.24" cy="47.29" r="0.7"/><polygon class="cls-5" points="71.59 49.9 71.94 50.21 71.54 50.65 70.1 49.36 69.75 49.04 70.14 48.61 71.59 49.9"/><circle class="cls-4" cx="67.08" cy="59.1" r="0.7"/><polygon class="cls-5" points="70.88 3.91 71.24 4.22 70.83 4.66 69.39 3.37 69.05 3.05 69.44 2.62 70.88 3.91"/><path class="cls-2" d="M44.37,7.71a.93.93,0,0,0-.62-.46.78.78,0,0,0-.65.17.79.79,0,0,0-.22.54.77.77,0,0,0,.1.5.68.68,0,0,0,.4.29.64.64,0,0,0,.55-.1.59.59,0,0,0,.22-.55.55.55,0,0,0-.31-.41.46.46,0,0,0-.47.06.37.37,0,0,0-.13.34.43.43,0,0,0,.16.21.75.75,0,0,0,.16.1l0-.22-.09,0a.19.19,0,0,1,.21-.3.32.32,0,0,1,.22.29.4.4,0,0,1-.25.41.42.42,0,0,1-.39-.07.44.44,0,0,1-.15-.25.55.55,0,0,1,.92-.55.69.69,0,0,1,.2.43.88.88,0,0,1-1,1.06c-.12,0-.11,0-.34-.06a1.55,1.55,0,0,0-.59,0,.82.82,0,0,0-.57.49c0,.09,0,.08,0,.21a1.27,1.27,0,0,1-.3.53,1.57,1.57,0,0,1-.18.17l-1.14-.77-.7,1a.76.76,0,0,1-.26.51.7.7,0,0,1-.54.16l-.1,0a1.21,1.21,0,0,0-1,.07,1.16,1.16,0,0,0-.51.69,1.12,1.12,0,0,0,.07.9.93.93,0,0,0,.62.46.78.78,0,0,0,.65-.17.79.79,0,0,0,.22-.54.77.77,0,0,0-.1-.5.68.68,0,0,0-.4-.29.64.64,0,0,0-.55.1.59.59,0,0,0-.22.55.55.55,0,0,0,.31.41.46.46,0,0,0,.47-.06.37.37,0,0,0,.13-.34.43.43,0,0,0-.16-.21.75.75,0,0,0-.16-.1l0,.22.09,0a.19.19,0,0,1-.21.3.32.32,0,0,1-.22-.29.4.4,0,0,1,.25-.41.42.42,0,0,1,.39.07.44.44,0,0,1,.15.25.55.55,0,0,1-.92.55.69.69,0,0,1-.2-.43.88.88,0,0,1,1-1.06c.12,0,.11,0,.34.06a1.55,1.55,0,0,0,.59,0,.82.82,0,0,0,.57-.49c0-.09,0-.08,0-.21a1.27,1.27,0,0,1,.3-.53,1.57,1.57,0,0,1,.18-.17l1.14.77.7-1a.76.76,0,0,1,.26-.51.7.7,0,0,1,.54-.16l.1,0a1.21,1.21,0,0,0,1-.07,1.16,1.16,0,0,0,.51-.69A1.12,1.12,0,0,0,44.37,7.71Z" transform="translate(0 0.05)"/><path class="cls-2" d="M33.26,7.71a.93.93,0,0,0-.62-.46.78.78,0,0,0-.65.17.79.79,0,0,0-.22.54.77.77,0,0,0,.1.5.68.68,0,0,0,.4.29.64.64,0,0,0,.55-.1A.59.59,0,0,0,33,8.11a.55.55,0,0,0-.31-.41.46.46,0,0,0-.47.06.37.37,0,0,0-.13.34.43.43,0,0,0,.16.21.75.75,0,0,0,.16.1l0-.22-.09,0a.19.19,0,0,1,.21-.3.32.32,0,0,1,.22.29.4.4,0,0,1-.25.41.42.42,0,0,1-.39-.07A.44.44,0,0,1,32,8.22.55.55,0,0,1,33,7.67a.69.69,0,0,1,.2.43.88.88,0,0,1-1,1.06c-.12,0-.11,0-.34-.06a1.55,1.55,0,0,0-.59,0,.82.82,0,0,0-.57.49c0,.09,0,.08,0,.21a1.27,1.27,0,0,1-.3.53,1.57,1.57,0,0,1-.18.17l-1.14-.77-.7,1a.76.76,0,0,1-.26.51.7.7,0,0,1-.54.16l-.1,0a1.21,1.21,0,0,0-1,.07,1.16,1.16,0,0,0-.51.69A1.12,1.12,0,0,0,26,13a.93.93,0,0,0,.62.46.78.78,0,0,0,.65-.17.79.79,0,0,0,.22-.54.77.77,0,0,0-.1-.5A.68.68,0,0,0,27,12a.64.64,0,0,0-.55.1.59.59,0,0,0-.22.55.55.55,0,0,0,.31.41A.46.46,0,0,0,27,13a.37.37,0,0,0,.13-.34.43.43,0,0,0-.16-.21.75.75,0,0,0-.16-.1l0,.22.09,0a.19.19,0,0,1-.21.3.32.32,0,0,1-.22-.29.4.4,0,0,1,.25-.41.42.42,0,0,1,.39.07.44.44,0,0,1,.15.25.55.55,0,0,1-.92.55.69.69,0,0,1-.2-.43.88.88,0,0,1,1-1.06c.12,0,.11,0,.34.06a1.55,1.55,0,0,0,.59,0,.82.82,0,0,0,.57-.49c0-.09,0-.08,0-.21a1.27,1.27,0,0,1,.3-.53,1.57,1.57,0,0,1,.18-.17l1.14.77.7-1a.76.76,0,0,1,.26-.51.7.7,0,0,1,.54-.16l.1,0a1.21,1.21,0,0,0,1-.07,1.16,1.16,0,0,0,.51-.69A1.12,1.12,0,0,0,33.26,7.71Z" transform="translate(0 0.05)"/><path class="cls-2" d="M55.61,7.71A.93.93,0,0,0,55,7.26a.78.78,0,0,0-.65.17.79.79,0,0,0-.22.54.77.77,0,0,0,.1.5.68.68,0,0,0,.4.29.64.64,0,0,0,.55-.1.59.59,0,0,0,.22-.55.55.55,0,0,0-.31-.41.46.46,0,0,0-.47.06.37.37,0,0,0-.13.34.43.43,0,0,0,.16.21.75.75,0,0,0,.16.1l0-.22-.09,0a.19.19,0,0,1,.21-.3.32.32,0,0,1,.22.29.4.4,0,0,1-.25.41.42.42,0,0,1-.39-.07.44.44,0,0,1-.15-.25.55.55,0,0,1,.92-.55.69.69,0,0,1,.2.43.88.88,0,0,1-1,1.06c-.12,0-.11,0-.34-.06a1.55,1.55,0,0,0-.59,0,.82.82,0,0,0-.57.49c0,.09,0,.08,0,.21a1.27,1.27,0,0,1-.3.53,1.57,1.57,0,0,1-.18.17L51.4,9.72l-.7,1a.76.76,0,0,1-.26.51.7.7,0,0,1-.54.16l-.1,0a1.21,1.21,0,0,0-1,.07,1.16,1.16,0,0,0-.51.69,1.12,1.12,0,0,0,.07.9.93.93,0,0,0,.62.46.78.78,0,0,0,.65-.17.79.79,0,0,0,.22-.54.77.77,0,0,0-.1-.5.68.68,0,0,0-.4-.29.64.64,0,0,0-.55.1.59.59,0,0,0-.22.55.55.55,0,0,0,.31.41.46.46,0,0,0,.47-.06.37.37,0,0,0,.13-.34.43.43,0,0,0-.16-.21.75.75,0,0,0-.16-.1l0,.22.09,0a.19.19,0,0,1-.21.3.32.32,0,0,1-.22-.29.4.4,0,0,1,.25-.41.42.42,0,0,1,.39.07.44.44,0,0,1,.15.25.55.55,0,0,1-.92.55.69.69,0,0,1-.2-.43.88.88,0,0,1,1-1.06c.12,0,.11,0,.34.06a1.55,1.55,0,0,0,.59,0,.82.82,0,0,0,.57-.49c0-.09,0-.08,0-.21a1.27,1.27,0,0,1,.3-.53,1.57,1.57,0,0,1,.18-.17l1.14.77.7-1a.76.76,0,0,1,.26-.51.7.7,0,0,1,.54-.16l.1,0a1.21,1.21,0,0,0,1-.07,1.16,1.16,0,0,0,.51-.69A1.12,1.12,0,0,0,55.61,7.71Z" transform="translate(0 0.05)"/><path class="cls-2" d="M67,7.76a.93.93,0,0,0-.62-.46.78.78,0,0,0-.65.17.79.79,0,0,0-.22.54.77.77,0,0,0,.1.5.68.68,0,0,0,.4.29.64.64,0,0,0,.55-.1.59.59,0,0,0,.22-.55.55.55,0,0,0-.31-.41.46.46,0,0,0-.47.06.37.37,0,0,0-.13.34.43.43,0,0,0,.16.21.75.75,0,0,0,.16.1l0-.22-.09,0a.19.19,0,0,1,.21-.3.32.32,0,0,1,.22.29.4.4,0,0,1-.25.41.42.42,0,0,1-.39-.07.44.44,0,0,1-.15-.25.55.55,0,0,1,.92-.55.69.69,0,0,1,.2.43.88.88,0,0,1-1,1.06c-.12,0-.11,0-.34-.06a1.55,1.55,0,0,0-.59,0,.82.82,0,0,0-.57.49c0,.09,0,.08,0,.21a1.27,1.27,0,0,1-.3.53,1.57,1.57,0,0,1-.18.17l-1.14-.77-.7,1a.76.76,0,0,1-.26.51.7.7,0,0,1-.54.16l-.1,0a1.21,1.21,0,0,0-1,.07,1.16,1.16,0,0,0-.51.69,1.12,1.12,0,0,0,.07.9.93.93,0,0,0,.62.46.78.78,0,0,0,.65-.17.79.79,0,0,0,.22-.54.77.77,0,0,0-.1-.5.68.68,0,0,0-.4-.29.64.64,0,0,0-.55.1.59.59,0,0,0-.22.55.55.55,0,0,0,.31.41.46.46,0,0,0,.47-.06.37.37,0,0,0,.13-.34.43.43,0,0,0-.16-.21.75.75,0,0,0-.16-.1l0,.22.09,0a.19.19,0,0,1-.21.3.32.32,0,0,1-.22-.29.4.4,0,0,1,.25-.41.42.42,0,0,1,.39.07.44.44,0,0,1,.15.25.55.55,0,0,1-.92.55.69.69,0,0,1-.2-.43.88.88,0,0,1,1-1.06c.12,0,.11,0,.34.06a1.55,1.55,0,0,0,.59,0,.82.82,0,0,0,.57-.49c0-.09,0-.08,0-.21a1.27,1.27,0,0,1,.3-.53,1.57,1.57,0,0,1,.18-.17l1.14.77.7-1a.76.76,0,0,1,.26-.51.7.7,0,0,1,.54-.16l.1,0a1.21,1.21,0,0,0,1-.07A1.16,1.16,0,0,0,67,8.67,1.12,1.12,0,0,0,67,7.76Z" transform="translate(0 0.05)"/><path class="cls-2" d="M21.87,7.49A.93.93,0,0,0,21.24,7a.78.78,0,0,0-.65.17.79.79,0,0,0-.22.54.77.77,0,0,0,.1.5.68.68,0,0,0,.4.29.64.64,0,0,0,.55-.1.59.59,0,0,0,.22-.55.55.55,0,0,0-.31-.41.46.46,0,0,0-.47.06.37.37,0,0,0-.13.34.43.43,0,0,0,.16.21.75.75,0,0,0,.16.1l0-.22-.09,0a.19.19,0,0,1,.21-.3.32.32,0,0,1,.22.29.4.4,0,0,1-.25.41.42.42,0,0,1-.39-.07A.44.44,0,0,1,20.65,8a.55.55,0,0,1,.92-.55.69.69,0,0,1,.2.43.88.88,0,0,1-1,1.06c-.12,0-.11,0-.34-.06a1.55,1.55,0,0,0-.59,0,.82.82,0,0,0-.57.49c0,.09,0,.08,0,.21a1.27,1.27,0,0,1-.3.53,1.57,1.57,0,0,1-.18.17L17.66,9.5l-.7,1a.76.76,0,0,1-.26.51.7.7,0,0,1-.54.16l-.1,0a1.21,1.21,0,0,0-1,.07,1.16,1.16,0,0,0-.51.69,1.12,1.12,0,0,0,.07.9.93.93,0,0,0,.62.46.78.78,0,0,0,.65-.17.79.79,0,0,0,.22-.54A.77.77,0,0,0,16,12a.68.68,0,0,0-.4-.29.64.64,0,0,0-.55.1.59.59,0,0,0-.22.55.55.55,0,0,0,.31.41.46.46,0,0,0,.47-.06.37.37,0,0,0,.13-.34.43.43,0,0,0-.16-.21.75.75,0,0,0-.16-.1l0,.22.09,0a.19.19,0,0,1-.21.3.32.32,0,0,1-.22-.29.4.4,0,0,1,.25-.41.42.42,0,0,1,.39.07.44.44,0,0,1,.15.25.55.55,0,0,1-.92.55.69.69,0,0,1-.2-.43.88.88,0,0,1,1-1.06c.12,0,.11,0,.34.06a1.55,1.55,0,0,0,.59,0,.82.82,0,0,0,.57-.49c0-.09,0-.08,0-.21a1.27,1.27,0,0,1,.3-.53A1.57,1.57,0,0,1,17.7,10l1.14.77.7-1a.76.76,0,0,1,.26-.51.7.7,0,0,1,.54-.16l.1,0a1.21,1.21,0,0,0,1-.07,1.16,1.16,0,0,0,.51-.69A1.12,1.12,0,0,0,21.87,7.49Z" transform="translate(0 0.05)"/><path class="cls-2" d="M8.4,18.78a.93.93,0,0,0-.62-.46.78.78,0,0,0-.65.17.79.79,0,0,0-.22.54.77.77,0,0,0,.1.5.68.68,0,0,0,.4.29.64.64,0,0,0,.55-.1.59.59,0,0,0,.22-.55.55.55,0,0,0-.31-.41.46.46,0,0,0-.47.06.37.37,0,0,0-.13.34.43.43,0,0,0,.16.21.75.75,0,0,0,.16.1l0-.22-.09,0a.19.19,0,0,1,.21-.3.32.32,0,0,1,.22.29.4.4,0,0,1-.25.41.42.42,0,0,1-.39-.07.44.44,0,0,1-.15-.25.55.55,0,0,1,.92-.55.69.69,0,0,1,.2.43.88.88,0,0,1-1,1.06c-.12,0-.11,0-.34-.06a1.55,1.55,0,0,0-.59,0,.82.82,0,0,0-.57.49c0,.09,0,.08,0,.21a1.27,1.27,0,0,1-.3.53,1.57,1.57,0,0,1-.18.17l-1.14-.77-.7,1a.76.76,0,0,1-.26.51.7.7,0,0,1-.54.16l-.1,0a1.21,1.21,0,0,0-1,.07,1.16,1.16,0,0,0-.51.69,1.12,1.12,0,0,0,.07.9.93.93,0,0,0,.62.46.78.78,0,0,0,.65-.17.79.79,0,0,0,.22-.54.77.77,0,0,0-.1-.5.68.68,0,0,0-.4-.29.64.64,0,0,0-.55.1.59.59,0,0,0-.22.55.55.55,0,0,0,.31.41A.46.46,0,0,0,2.16,24a.37.37,0,0,0,.13-.34.43.43,0,0,0-.16-.21.75.75,0,0,0-.16-.1l0,.22.09,0a.22.22,0,0,1,0,.2.22.22,0,0,1-.24.1.32.32,0,0,1-.22-.29.4.4,0,0,1,.25-.41.42.42,0,0,1,.39.07.44.44,0,0,1,.15.25.6.6,0,0,1-.21.63.6.6,0,0,1-.71-.08.69.69,0,0,1-.2-.43,1,1,0,0,1,.25-.82,1,1,0,0,1,.7-.24c.12,0,.11,0,.34.06a1.55,1.55,0,0,0,.59,0,.82.82,0,0,0,.57-.49c0-.09,0-.08,0-.21a1.27,1.27,0,0,1,.3-.53,1.57,1.57,0,0,1,.18-.17l1.14.77.7-1a.76.76,0,0,1,.26-.51.7.7,0,0,1,.54-.16l.1,0a1.21,1.21,0,0,0,1-.07,1.16,1.16,0,0,0,.51-.69A1.12,1.12,0,0,0,8.4,18.78Z" transform="translate(0 0.05)"/><path class="cls-2" d="M8.31,29.89a.93.93,0,0,0-.62-.46A.78.78,0,0,0,7,29.6a.79.79,0,0,0-.22.54.77.77,0,0,0,.1.5.68.68,0,0,0,.4.29.64.64,0,0,0,.55-.1.59.59,0,0,0,.22-.55.55.55,0,0,0-.31-.41.46.46,0,0,0-.47.06.37.37,0,0,0-.13.34.43.43,0,0,0,.16.21.75.75,0,0,0,.16.1l0-.22-.09,0a.19.19,0,0,1,.21-.3.32.32,0,0,1,.22.29.4.4,0,0,1-.25.41.42.42,0,0,1-.39-.07.44.44,0,0,1-.15-.25A.55.55,0,0,1,8,29.85a.69.69,0,0,1,.2.43.88.88,0,0,1-1,1.06c-.12,0-.11,0-.34-.06a1.55,1.55,0,0,0-.59,0,.82.82,0,0,0-.57.49c0,.09,0,.08,0,.21a1.27,1.27,0,0,1-.3.53,1.57,1.57,0,0,1-.18.17L4.1,31.9l-.7,1a.76.76,0,0,1-.26.51.7.7,0,0,1-.54.16l-.1,0a1.21,1.21,0,0,0-1,.07A1.16,1.16,0,0,0,1,34.3a1.12,1.12,0,0,0,.07.9.93.93,0,0,0,.62.46.78.78,0,0,0,.65-.17.79.79,0,0,0,.22-.54.77.77,0,0,0-.1-.5.68.68,0,0,0-.4-.29.64.64,0,0,0-.55.1.59.59,0,0,0-.22.55.55.55,0,0,0,.31.41.46.46,0,0,0,.47-.06.37.37,0,0,0,.13-.34A.43.43,0,0,0,2,34.61a.75.75,0,0,0-.16-.1l0,.22.09,0A.22.22,0,0,1,2,35a.22.22,0,0,1-.24.1.32.32,0,0,1-.22-.29.4.4,0,0,1,.25-.41.42.42,0,0,1,.39.07.44.44,0,0,1,.15.25.6.6,0,0,1-.21.63.6.6,0,0,1-.71-.08.69.69,0,0,1-.2-.43A1,1,0,0,1,1.42,34a1,1,0,0,1,.7-.24c.12,0,.11,0,.34.06a1.55,1.55,0,0,0,.59,0,.82.82,0,0,0,.57-.49c0-.09,0-.08,0-.21A1.27,1.27,0,0,1,4,32.6a1.57,1.57,0,0,1,.18-.17l1.14.77.7-1a.76.76,0,0,1,.26-.51.7.7,0,0,1,.54-.16l.1,0a1.21,1.21,0,0,0,1-.07,1.16,1.16,0,0,0,.51-.69A1.12,1.12,0,0,0,8.31,29.89Z" transform="translate(0 0.05)"/><path class="cls-2" d="M8.4,41.4a.93.93,0,0,0-.62-.46.78.78,0,0,0-.65.17.79.79,0,0,0-.22.54.77.77,0,0,0,.1.5.68.68,0,0,0,.4.29.64.64,0,0,0,.55-.1.59.59,0,0,0,.22-.55.55.55,0,0,0-.31-.41.46.46,0,0,0-.47.06.37.37,0,0,0-.13.34.43.43,0,0,0,.16.21.75.75,0,0,0,.16.1l0-.22-.09,0a.19.19,0,0,1,.21-.3.32.32,0,0,1,.22.29.4.4,0,0,1-.25.41.42.42,0,0,1-.39-.07.44.44,0,0,1-.15-.25.55.55,0,0,1,.92-.55.69.69,0,0,1,.2.43.88.88,0,0,1-1,1.06c-.12,0-.11,0-.34-.06a1.55,1.55,0,0,0-.59,0,.82.82,0,0,0-.57.49c0,.09,0,.08,0,.21a1.27,1.27,0,0,1-.3.53,1.57,1.57,0,0,1-.18.17l-1.14-.77-.7,1a.76.76,0,0,1-.26.51.7.7,0,0,1-.54.16l-.1,0a1.21,1.21,0,0,0-1,.07,1.16,1.16,0,0,0-.51.69,1.12,1.12,0,0,0,.07.9.93.93,0,0,0,.62.46A.78.78,0,0,0,2.43,47a.79.79,0,0,0,.22-.54.77.77,0,0,0-.1-.5.68.68,0,0,0-.4-.29.64.64,0,0,0-.55.1.59.59,0,0,0-.22.55.55.55,0,0,0,.31.41.46.46,0,0,0,.47-.06.37.37,0,0,0,.13-.34.43.43,0,0,0-.16-.21A.75.75,0,0,0,2,46l0,.22.09,0a.22.22,0,0,1,0,.2.22.22,0,0,1-.24.1.32.32,0,0,1-.22-.29.4.4,0,0,1,.25-.41.42.42,0,0,1,.39.07.44.44,0,0,1,.15.25.6.6,0,0,1-.21.63.6.6,0,0,1-.71-.08.69.69,0,0,1-.2-.43,1,1,0,0,1,.25-.82,1,1,0,0,1,.7-.24c.12,0,.11,0,.34.06a1.55,1.55,0,0,0,.59,0,.82.82,0,0,0,.57-.49c0-.09,0-.08,0-.21a1.27,1.27,0,0,1,.3-.53,1.57,1.57,0,0,1,.18-.17l1.14.77.7-1a.76.76,0,0,1,.26-.51A.7.7,0,0,1,6.87,43l.1,0A1.21,1.21,0,0,0,8,43a1.16,1.16,0,0,0,.51-.69A1.12,1.12,0,0,0,8.4,41.4Z" transform="translate(0 0.05)"/><path class="cls-2" d="M8.28,52.53a.93.93,0,0,0-.62-.46.78.78,0,0,0-.65.17.79.79,0,0,0-.22.54.77.77,0,0,0,.1.5.68.68,0,0,0,.4.29.64.64,0,0,0,.55-.1.59.59,0,0,0,.22-.55.55.55,0,0,0-.31-.41.46.46,0,0,0-.47.06.37.37,0,0,0-.13.34.43.43,0,0,0,.16.21.75.75,0,0,0,.16.1l0-.22-.09,0a.19.19,0,0,1,.21-.3.32.32,0,0,1,.22.29.4.4,0,0,1-.25.41.42.42,0,0,1-.39-.07A.44.44,0,0,1,7.06,53,.55.55,0,0,1,8,52.49a.69.69,0,0,1,.2.43.88.88,0,0,1-1,1.06c-.12,0-.11,0-.34-.06a1.55,1.55,0,0,0-.59,0,.82.82,0,0,0-.57.49c0,.09,0,.08,0,.21a1.27,1.27,0,0,1-.3.53,1.57,1.57,0,0,1-.18.17l-1.14-.77-.7,1a.76.76,0,0,1-.26.51.7.7,0,0,1-.54.16l-.1,0a1.21,1.21,0,0,0-1,.07,1.16,1.16,0,0,0-.51.69,1.12,1.12,0,0,0,.07.9.93.93,0,0,0,.62.46.78.78,0,0,0,.65-.17.79.79,0,0,0,.22-.54.77.77,0,0,0-.1-.5.68.68,0,0,0-.4-.29.64.64,0,0,0-.55.1.59.59,0,0,0-.22.55.55.55,0,0,0,.31.41A.46.46,0,0,0,2,57.79a.37.37,0,0,0,.13-.34A.43.43,0,0,0,2,57.25a.75.75,0,0,0-.16-.1l0,.22.09,0a.22.22,0,0,1,0,.2.22.22,0,0,1-.24.1.32.32,0,0,1-.22-.29A.4.4,0,0,1,1.73,57a.42.42,0,0,1,.39.07.44.44,0,0,1,.15.25.6.6,0,0,1-.21.63.6.6,0,0,1-.71-.08.69.69,0,0,1-.2-.43,1,1,0,0,1,.25-.82,1,1,0,0,1,.7-.24c.12,0,.11,0,.34.06a1.55,1.55,0,0,0,.59,0A.82.82,0,0,0,3.6,56c0-.09,0-.08,0-.21a1.27,1.27,0,0,1,.3-.53,1.57,1.57,0,0,1,.18-.17l1.14.77.7-1a.76.76,0,0,1,.26-.51.7.7,0,0,1,.54-.16l.1,0a1.21,1.21,0,0,0,1-.07,1.16,1.16,0,0,0,.51-.69A1.12,1.12,0,0,0,8.28,52.53Z" transform="translate(0 0.05)"/><path class="cls-2" d="M8.4,7.71a.93.93,0,0,0-.62-.46.78.78,0,0,0-.65.17A.79.79,0,0,0,6.91,8a.77.77,0,0,0,.1.5.68.68,0,0,0,.4.29A.64.64,0,0,0,8,8.67a.59.59,0,0,0,.22-.55.55.55,0,0,0-.31-.41.46.46,0,0,0-.47.06.37.37,0,0,0-.13.34.43.43,0,0,0,.16.21.75.75,0,0,0,.16.1l0-.22-.09,0a.19.19,0,0,1,.21-.3A.32.32,0,0,1,8,8.14a.4.4,0,0,1-.25.41.42.42,0,0,1-.39-.07.44.44,0,0,1-.15-.25.55.55,0,0,1,.92-.55.69.69,0,0,1,.2.43.88.88,0,0,1-1,1.06c-.12,0-.11,0-.34-.06a1.55,1.55,0,0,0-.59,0,.82.82,0,0,0-.57.49c0,.09,0,.08,0,.21a1.27,1.27,0,0,1-.3.53,1.57,1.57,0,0,1-.18.17L4.19,9.72l-.7,1a.76.76,0,0,1-.26.51.7.7,0,0,1-.54.16l-.1,0a1.21,1.21,0,0,0-1,.07,1.16,1.16,0,0,0-.51.69,1.12,1.12,0,0,0,.07.9.93.93,0,0,0,.62.46.78.78,0,0,0,.65-.17.79.79,0,0,0,.22-.54.77.77,0,0,0-.1-.5.68.68,0,0,0-.4-.29.64.64,0,0,0-.55.1.59.59,0,0,0-.22.55.55.55,0,0,0,.31.41A.46.46,0,0,0,2.16,13a.37.37,0,0,0,.13-.34.43.43,0,0,0-.16-.21.75.75,0,0,0-.16-.1l0,.22.09,0a.22.22,0,0,1,0,.2.22.22,0,0,1-.24.1.32.32,0,0,1-.22-.29.4.4,0,0,1,.25-.41.42.42,0,0,1,.39.07.44.44,0,0,1,.15.25.6.6,0,0,1-.21.63.6.6,0,0,1-.71-.08.69.69,0,0,1-.2-.43,1,1,0,0,1,.25-.82,1,1,0,0,1,.7-.24c.12,0,.11,0,.34.06a1.55,1.55,0,0,0,.59,0,.82.82,0,0,0,.57-.49c0-.09,0-.08,0-.21a1.27,1.27,0,0,1,.3-.53,1.57,1.57,0,0,1,.18-.17L5.37,11l.7-1a.76.76,0,0,1,.26-.51.7.7,0,0,1,.54-.16l.1,0A1.21,1.21,0,0,0,8,9.3a1.16,1.16,0,0,0,.51-.69A1.12,1.12,0,0,0,8.4,7.71Z" transform="translate(0 0.05)"/><path class="cls-2" d="M66.85,64.58a.93.93,0,0,0-.62-.46.78.78,0,0,0-.65.17.79.79,0,0,0-.22.54.77.77,0,0,0,.1.5.68.68,0,0,0,.4.29.64.64,0,0,0,.55-.1.59.59,0,0,0,.22-.55.55.55,0,0,0-.31-.41.46.46,0,0,0-.47.06.37.37,0,0,0-.13.34.43.43,0,0,0,.16.21.75.75,0,0,0,.16.1l0-.22L66,65a.19.19,0,0,1,.21-.3.32.32,0,0,1,.22.29.4.4,0,0,1-.25.41.42.42,0,0,1-.39-.07.44.44,0,0,1-.15-.25.55.55,0,0,1,.92-.55.69.69,0,0,1,.2.43.88.88,0,0,1-1,1.06c-.12,0-.11,0-.34-.06a1.55,1.55,0,0,0-.59,0,.82.82,0,0,0-.57.49c0,.09,0,.08,0,.21a1.27,1.27,0,0,1-.3.53,1.57,1.57,0,0,1-.18.17l-1.14-.77-.7,1a.76.76,0,0,1-.26.51.7.7,0,0,1-.54.16l-.1,0a1.21,1.21,0,0,0-1,.07,1.16,1.16,0,0,0-.51.69,1.12,1.12,0,0,0,.07.9.93.93,0,0,0,.62.46.78.78,0,0,0,.65-.17.79.79,0,0,0,.22-.54.77.77,0,0,0-.1-.5.68.68,0,0,0-.4-.29.64.64,0,0,0-.55.1.59.59,0,0,0-.22.55.55.55,0,0,0,.31.41.46.46,0,0,0,.47-.06.37.37,0,0,0,.13-.34.43.43,0,0,0-.16-.21.75.75,0,0,0-.16-.1l0,.22.09,0a.19.19,0,0,1-.21.3.32.32,0,0,1-.22-.29.4.4,0,0,1,.25-.41.42.42,0,0,1,.39.07.44.44,0,0,1,.15.25.55.55,0,0,1-.92.55.69.69,0,0,1-.2-.43.88.88,0,0,1,1-1.06c.12,0,.11,0,.34.06a1.55,1.55,0,0,0,.59,0,.82.82,0,0,0,.57-.49c0-.09,0-.08,0-.21a1.27,1.27,0,0,1,.3-.53,1.57,1.57,0,0,1,.18-.17l1.14.77.7-1a.76.76,0,0,1,.26-.51.7.7,0,0,1,.54-.16l.1,0a1.21,1.21,0,0,0,1-.07,1.16,1.16,0,0,0,.51-.69A1.12,1.12,0,0,0,66.85,64.58Z" transform="translate(0 0.05)"/><path class="cls-2" d="M44.38,64.58a.93.93,0,0,0-.62-.46.78.78,0,0,0-.65.17.79.79,0,0,0-.22.54.77.77,0,0,0,.1.5.68.68,0,0,0,.4.29.64.64,0,0,0,.55-.1.59.59,0,0,0,.22-.55.55.55,0,0,0-.31-.41.46.46,0,0,0-.47.06.37.37,0,0,0-.13.34.43.43,0,0,0,.16.21.75.75,0,0,0,.16.1l0-.22-.09,0a.19.19,0,0,1,.21-.3.32.32,0,0,1,.22.29.4.4,0,0,1-.25.41.42.42,0,0,1-.39-.07.44.44,0,0,1-.15-.25.55.55,0,0,1,.92-.55.69.69,0,0,1,.2.43.88.88,0,0,1-1,1.06c-.12,0-.11,0-.34-.06a1.55,1.55,0,0,0-.59,0,.82.82,0,0,0-.57.49c0,.09,0,.08,0,.21a1.27,1.27,0,0,1-.3.53,1.57,1.57,0,0,1-.18.17l-1.14-.77-.7,1a.76.76,0,0,1-.26.51.7.7,0,0,1-.54.16l-.1,0a1.21,1.21,0,0,0-1,.07,1.16,1.16,0,0,0-.51.69,1.12,1.12,0,0,0,.07.9.93.93,0,0,0,.62.46.78.78,0,0,0,.65-.17.79.79,0,0,0,.22-.54.77.77,0,0,0-.1-.5.68.68,0,0,0-.4-.29.64.64,0,0,0-.55.1.59.59,0,0,0-.22.55.55.55,0,0,0,.31.41.46.46,0,0,0,.47-.06.37.37,0,0,0,.13-.34.43.43,0,0,0-.16-.21.75.75,0,0,0-.16-.1l0,.22.09,0a.19.19,0,0,1-.21.3.32.32,0,0,1-.22-.29.4.4,0,0,1,.25-.41.42.42,0,0,1,.39.07.44.44,0,0,1,.15.25.55.55,0,0,1-.92.55.69.69,0,0,1-.2-.43.88.88,0,0,1,1-1.06c.12,0,.11,0,.34.06a1.55,1.55,0,0,0,.59,0,.82.82,0,0,0,.57-.49c0-.09,0-.08,0-.21a1.27,1.27,0,0,1,.3-.53,1.57,1.57,0,0,1,.18-.17l1.14.77.7-1a.76.76,0,0,1,.26-.51.7.7,0,0,1,.54-.16l.1,0a1.21,1.21,0,0,0,1-.07,1.16,1.16,0,0,0,.51-.69A1.12,1.12,0,0,0,44.38,64.58Z" transform="translate(0 0.05)"/><path class="cls-2" d="M33.26,64.58a.93.93,0,0,0-.62-.46.78.78,0,0,0-.65.17.79.79,0,0,0-.22.54.77.77,0,0,0,.1.5.68.68,0,0,0,.4.29.64.64,0,0,0,.55-.1A.59.59,0,0,0,33,65a.55.55,0,0,0-.31-.41.46.46,0,0,0-.47.06.37.37,0,0,0-.13.34.43.43,0,0,0,.16.21.75.75,0,0,0,.16.1l0-.22-.09,0a.19.19,0,0,1,.21-.3.32.32,0,0,1,.22.29.4.4,0,0,1-.25.41.42.42,0,0,1-.39-.07.44.44,0,0,1-.15-.25.55.55,0,0,1,.92-.55.69.69,0,0,1,.2.43.88.88,0,0,1-1,1.06c-.12,0-.11,0-.34-.06a1.55,1.55,0,0,0-.59,0,.82.82,0,0,0-.57.49c0,.09,0,.08,0,.21a1.27,1.27,0,0,1-.3.53,1.57,1.57,0,0,1-.18.17l-1.14-.77-.7,1a.76.76,0,0,1-.26.51.7.7,0,0,1-.54.16l-.1,0a1.21,1.21,0,0,0-1,.07A1.16,1.16,0,0,0,26,69a1.12,1.12,0,0,0,.07.9.93.93,0,0,0,.62.46.78.78,0,0,0,.65-.17.79.79,0,0,0,.22-.54.77.77,0,0,0-.1-.5.68.68,0,0,0-.4-.29.64.64,0,0,0-.55.1.59.59,0,0,0-.22.55.55.55,0,0,0,.31.41.46.46,0,0,0,.47-.06.37.37,0,0,0,.13-.34.43.43,0,0,0-.16-.21.75.75,0,0,0-.16-.1l0,.22.09,0a.19.19,0,0,1-.21.3.32.32,0,0,1-.22-.29.4.4,0,0,1,.25-.41.42.42,0,0,1,.39.07.44.44,0,0,1,.15.25.55.55,0,0,1-.92.55.69.69,0,0,1-.2-.43.88.88,0,0,1,1-1.06c.12,0,.11,0,.34.06a1.55,1.55,0,0,0,.59,0,.82.82,0,0,0,.57-.49c0-.09,0-.08,0-.21a1.27,1.27,0,0,1,.3-.53,1.57,1.57,0,0,1,.18-.17l1.14.77.7-1a.76.76,0,0,1,.26-.51.7.7,0,0,1,.54-.16l.1,0a1.21,1.21,0,0,0,1-.07,1.16,1.16,0,0,0,.51-.69A1.12,1.12,0,0,0,33.26,64.58Z" transform="translate(0 0.05)"/><path class="cls-2" d="M55.61,64.58a.93.93,0,0,0-.62-.46.78.78,0,0,0-.65.17.79.79,0,0,0-.22.54.77.77,0,0,0,.1.5.68.68,0,0,0,.4.29.64.64,0,0,0,.55-.1.59.59,0,0,0,.22-.55.55.55,0,0,0-.31-.41.46.46,0,0,0-.47.06.37.37,0,0,0-.13.34.43.43,0,0,0,.16.21.75.75,0,0,0,.16.1l0-.22-.09,0a.19.19,0,0,1,.21-.3.32.32,0,0,1,.22.29.4.4,0,0,1-.25.41.42.42,0,0,1-.39-.07.44.44,0,0,1-.15-.25.55.55,0,0,1,.92-.55.69.69,0,0,1,.2.43.88.88,0,0,1-1,1.06c-.12,0-.11,0-.34-.06a1.55,1.55,0,0,0-.59,0,.82.82,0,0,0-.57.49c0,.09,0,.08,0,.21a1.27,1.27,0,0,1-.3.53,1.57,1.57,0,0,1-.18.17l-1.14-.77-.7,1a.76.76,0,0,1-.26.51.7.7,0,0,1-.54.16l-.1,0a1.21,1.21,0,0,0-1,.07,1.16,1.16,0,0,0-.51.69,1.12,1.12,0,0,0,.07.9.93.93,0,0,0,.62.46.78.78,0,0,0,.65-.17.79.79,0,0,0,.22-.54.77.77,0,0,0-.1-.5.68.68,0,0,0-.4-.29.64.64,0,0,0-.55.1.59.59,0,0,0-.22.55.55.55,0,0,0,.31.41.46.46,0,0,0,.47-.06.37.37,0,0,0,.13-.34.43.43,0,0,0-.16-.21.75.75,0,0,0-.16-.1l0,.22.09,0a.19.19,0,0,1-.21.3.32.32,0,0,1-.22-.29.4.4,0,0,1,.25-.41.42.42,0,0,1,.39.07.44.44,0,0,1,.15.25.55.55,0,0,1-.92.55.69.69,0,0,1-.2-.43.88.88,0,0,1,1-1.06c.12,0,.11,0,.34.06a1.55,1.55,0,0,0,.59,0,.82.82,0,0,0,.57-.49c0-.09,0-.08,0-.21a1.27,1.27,0,0,1,.3-.53,1.57,1.57,0,0,1,.18-.17l1.14.77.7-1a.76.76,0,0,1,.26-.51.7.7,0,0,1,.54-.16l.1,0a1.21,1.21,0,0,0,1-.07,1.16,1.16,0,0,0,.51-.69A1.12,1.12,0,0,0,55.61,64.58Z" transform="translate(0 0.05)"/><path class="cls-2" d="M21.75,64.31a.93.93,0,0,0-.62-.46.78.78,0,0,0-.65.17.79.79,0,0,0-.22.54.77.77,0,0,0,.1.5.68.68,0,0,0,.4.29.64.64,0,0,0,.55-.1.59.59,0,0,0,.22-.55.55.55,0,0,0-.31-.41.46.46,0,0,0-.47.06.37.37,0,0,0-.13.34.43.43,0,0,0,.16.21.75.75,0,0,0,.16.1l0-.22-.09,0a.19.19,0,0,1,.21-.3.32.32,0,0,1,.22.29.4.4,0,0,1-.25.41.42.42,0,0,1-.39-.07.44.44,0,0,1-.15-.25.55.55,0,0,1,.92-.55.69.69,0,0,1,.2.43.88.88,0,0,1-1,1.06c-.12,0-.11,0-.34-.06a1.55,1.55,0,0,0-.59,0,.82.82,0,0,0-.57.49c0,.09,0,.08,0,.21a1.27,1.27,0,0,1-.3.53,1.57,1.57,0,0,1-.18.17l-1.14-.77-.7,1a.76.76,0,0,1-.26.51A.7.7,0,0,1,16,68l-.1,0a1.21,1.21,0,0,0-1,.07,1.16,1.16,0,0,0-.51.69,1.12,1.12,0,0,0,.07.9.93.93,0,0,0,.62.46.78.78,0,0,0,.65-.17.79.79,0,0,0,.22-.54.77.77,0,0,0-.1-.5.68.68,0,0,0-.4-.29.64.64,0,0,0-.55.1.59.59,0,0,0-.22.55.55.55,0,0,0,.31.41.46.46,0,0,0,.47-.06.37.37,0,0,0,.13-.34.43.43,0,0,0-.16-.21.75.75,0,0,0-.16-.1l0,.22.09,0a.19.19,0,0,1-.21.3A.32.32,0,0,1,15,69.2a.4.4,0,0,1,.25-.41.42.42,0,0,1,.39.07.44.44,0,0,1,.15.25.55.55,0,0,1-.92.55.69.69,0,0,1-.2-.43.88.88,0,0,1,1-1.06c.12,0,.11,0,.34.06a1.55,1.55,0,0,0,.59,0,.82.82,0,0,0,.57-.49c0-.09,0-.08,0-.21a1.27,1.27,0,0,1,.3-.53,1.57,1.57,0,0,1,.18-.17l1.14.77.7-1a.76.76,0,0,1,.26-.51.7.7,0,0,1,.54-.16l.1,0a1.21,1.21,0,0,0,1-.07,1.16,1.16,0,0,0,.51-.69A1.12,1.12,0,0,0,21.75,64.31Z" transform="translate(0 0.05)"/><path class="cls-2" d="M8.28,64.53a.93.93,0,0,0-.62-.46.78.78,0,0,0-.65.17.79.79,0,0,0-.22.54.77.77,0,0,0,.1.5.68.68,0,0,0,.4.29.64.64,0,0,0,.55-.1.59.59,0,0,0,.22-.55.55.55,0,0,0-.31-.41.46.46,0,0,0-.47.06.37.37,0,0,0-.13.34.43.43,0,0,0,.16.21.75.75,0,0,0,.16.1l0-.22-.09,0a.19.19,0,0,1,.21-.3.32.32,0,0,1,.22.29.4.4,0,0,1-.25.41.42.42,0,0,1-.39-.07A.44.44,0,0,1,7.06,65,.55.55,0,0,1,8,64.49a.69.69,0,0,1,.2.43.88.88,0,0,1-1,1.06c-.12,0-.11,0-.34-.06a1.55,1.55,0,0,0-.59,0,.82.82,0,0,0-.57.49c0,.09,0,.08,0,.21a1.27,1.27,0,0,1-.3.53,1.57,1.57,0,0,1-.18.17l-1.14-.77-.7,1a.76.76,0,0,1-.26.51.7.7,0,0,1-.54.16l-.1,0a1.21,1.21,0,0,0-1,.07,1.16,1.16,0,0,0-.51.69,1.12,1.12,0,0,0,.07.9.93.93,0,0,0,.62.46.78.78,0,0,0,.65-.17.79.79,0,0,0,.22-.54.77.77,0,0,0-.1-.5.68.68,0,0,0-.4-.29.64.64,0,0,0-.55.1.59.59,0,0,0-.22.55.55.55,0,0,0,.31.41A.46.46,0,0,0,2,69.78a.37.37,0,0,0,.13-.34A.43.43,0,0,0,2,69.24a.75.75,0,0,0-.16-.1l0,.22.09,0a.22.22,0,0,1,0,.2.22.22,0,0,1-.24.1.32.32,0,0,1-.22-.29A.4.4,0,0,1,1.73,69a.42.42,0,0,1,.39.07.44.44,0,0,1,.15.25.6.6,0,0,1-.21.63.6.6,0,0,1-.71-.08.69.69,0,0,1-.2-.43,1,1,0,0,1,.25-.82,1,1,0,0,1,.7-.24c.12,0,.11,0,.34.06a1.55,1.55,0,0,0,.59,0A.82.82,0,0,0,3.6,68c0-.09,0-.08,0-.21a1.27,1.27,0,0,1,.3-.53,1.57,1.57,0,0,1,.18-.17l1.14.77.7-1a.76.76,0,0,1,.26-.51.7.7,0,0,1,.54-.16l.1,0a1.21,1.21,0,0,0,1-.07,1.16,1.16,0,0,0,.51-.69A1.12,1.12,0,0,0,8.28,64.53Z" transform="translate(0 0.05)"/><circle class="cls-4" cx="20.34" cy="1.74" r="0.7"/><circle class="cls-4" cx="67.8" cy="1.74" r="0.7"/></svg>