<svg id="Layer_1" data-name="Layer 1" xmlns="http://www.w3.org/2000/svg" viewBox="0 0 71.85 70.83"><defs><style>.cls-1{fill:#231f20;}</style></defs><title>wallpaper_color_w1</title><path class="cls-1" d="M42.31,20.4a1.2,1.2,0,0,0-.81-.59,1,1,0,0,0-.84.22,1,1,0,0,0-.29.71,1,1,0,0,0,.13.65.89.89,0,0,0,.52.38.83.83,0,0,0,.71-.13.76.76,0,0,0,.29-.72.71.71,0,0,0-.4-.53.6.6,0,0,0-.61.08.47.47,0,0,0-.17.44.56.56,0,0,0,.21.27,1,1,0,0,0,.2.14l0-.29L41.18,21a.25.25,0,0,1,.27-.39.42.42,0,0,1,.29.37.51.51,0,0,1-.32.53.55.55,0,0,1-.5-.09.58.58,0,0,1-.19-.33.71.71,0,0,1,1.2-.72.9.9,0,0,1,.26.56,1.15,1.15,0,0,1-1.24,1.38c-.15,0-.15,0-.44-.07a2,2,0,0,0-.77,0,1.06,1.06,0,0,0-.74.64c0,.12,0,.11,0,.27a1.65,1.65,0,0,1-.39.69,2,2,0,0,1-.23.22l-1.48-1-.91,1.32a1,1,0,0,1-.34.66.91.91,0,0,1-.7.21l-.13,0a1.57,1.57,0,0,0-1.28.09,1.5,1.5,0,0,0-.66.89,1.46,1.46,0,0,0,.09,1.17,1.2,1.2,0,0,0,.81.59,1,1,0,0,0,.84-.22,1,1,0,0,0,.29-.71,1,1,0,0,0-.13-.65.89.89,0,0,0-.52-.38.83.83,0,0,0-.71.13.76.76,0,0,0-.29.72.71.71,0,0,0,.4.53.6.6,0,0,0,.61-.08.47.47,0,0,0,.17-.44.56.56,0,0,0-.21-.27,1,1,0,0,0-.2-.14l0,.29.12.05a.25.25,0,0,1-.27.39.42.42,0,0,1-.29-.37.51.51,0,0,1,.32-.53.55.55,0,0,1,.5.09.58.58,0,0,1,.19.33.71.71,0,0,1-1.2.72.9.9,0,0,1-.26-.56,1.15,1.15,0,0,1,1.24-1.38c.15,0,.15,0,.44.07a2,2,0,0,0,.77,0,1.06,1.06,0,0,0,.74-.64c0-.12,0-.11,0-.27a1.65,1.65,0,0,1,.39-.69,2,2,0,0,1,.23-.22l1.48,1,.91-1.32a1,1,0,0,1,.34-.66.91.91,0,0,1,.7-.21l.13,0a1.57,1.57,0,0,0,1.28-.09,1.5,1.5,0,0,0,.66-.89A1.46,1.46,0,0,0,42.31,20.4Z" transform="translate(0 -1.02)"/><path class="cls-1" d="M27.87,20.4a1.2,1.2,0,0,0-.81-.59,1,1,0,0,0-.84.22,1,1,0,0,0-.29.71,1,1,0,0,0,.13.65.89.89,0,0,0,.52.38.83.83,0,0,0,.71-.13.76.76,0,0,0,.29-.72.71.71,0,0,0-.4-.53.6.6,0,0,0-.61.08.47.47,0,0,0-.17.44.56.56,0,0,0,.21.27,1,1,0,0,0,.2.14l0-.29L26.73,21a.25.25,0,0,1,.27-.39.42.42,0,0,1,.29.37.51.51,0,0,1-.32.53.55.55,0,0,1-.5-.09.58.58,0,0,1-.19-.33.71.71,0,0,1,1.2-.72.9.9,0,0,1,.26.56,1.15,1.15,0,0,1-1.24,1.38c-.15,0-.15,0-.44-.07a2,2,0,0,0-.77,0,1.06,1.06,0,0,0-.74.64c0,.12,0,.11,0,.27a1.65,1.65,0,0,1-.39.69,2,2,0,0,1-.23.22L22.4,23l-.91,1.32a1,1,0,0,1-.34.66.91.91,0,0,1-.7.21l-.13,0a1.57,1.57,0,0,0-1.28.09,1.5,1.5,0,0,0-.66.89,1.46,1.46,0,0,0,.09,1.17,1.2,1.2,0,0,0,.81.59,1,1,0,0,0,.84-.22A1,1,0,0,0,20.4,27a1,1,0,0,0-.13-.65.89.89,0,0,0-.52-.38.83.83,0,0,0-.71.13.76.76,0,0,0-.29.72.71.71,0,0,0,.4.53.6.6,0,0,0,.61-.08.47.47,0,0,0,.17-.44.56.56,0,0,0-.21-.27,1,1,0,0,0-.2-.14l0,.29.12.05a.25.25,0,0,1-.27.39.42.42,0,0,1-.29-.37.51.51,0,0,1,.32-.53.55.55,0,0,1,.5.09.58.58,0,0,1,.19.33.71.71,0,0,1-1.2.72.9.9,0,0,1-.26-.56,1.15,1.15,0,0,1,1.24-1.38c.15,0,.15,0,.44.07a2,2,0,0,0,.77,0,1.06,1.06,0,0,0,.74-.64c0-.12,0-.11,0-.27a1.65,1.65,0,0,1,.39-.69,2,2,0,0,1,.23-.22l1.48,1,.91-1.32a1,1,0,0,1,.34-.66.91.91,0,0,1,.7-.21l.13,0a1.57,1.57,0,0,0,1.28-.09,1.5,1.5,0,0,0,.66-.89A1.46,1.46,0,0,0,27.87,20.4Z" transform="translate(0 -1.02)"/><path class="cls-1" d="M56.91,20.4a1.2,1.2,0,0,0-.81-.59,1,1,0,0,0-.84.22,1,1,0,0,0-.29.71,1,1,0,0,0,.13.65.89.89,0,0,0,.52.38.83.83,0,0,0,.71-.13.76.76,0,0,0,.29-.72.71.71,0,0,0-.4-.53.6.6,0,0,0-.61.08.47.47,0,0,0-.17.44.56.56,0,0,0,.21.27,1,1,0,0,0,.2.14l0-.29L55.78,21a.25.25,0,0,1,.27-.39.42.42,0,0,1,.29.37.51.51,0,0,1-.32.53.55.55,0,0,1-.5-.09.58.58,0,0,1-.19-.33.71.71,0,0,1,1.2-.72.9.9,0,0,1,.26.56,1.15,1.15,0,0,1-1.24,1.38c-.15,0-.15,0-.44-.07a2,2,0,0,0-.77,0,1.06,1.06,0,0,0-.74.64c0,.12,0,.11,0,.27a1.65,1.65,0,0,1-.39.69,2,2,0,0,1-.23.22l-1.48-1-.91,1.32a1,1,0,0,1-.34.66.91.91,0,0,1-.7.21l-.13,0a1.57,1.57,0,0,0-1.28.09,1.5,1.5,0,0,0-.66.89,1.46,1.46,0,0,0,.09,1.17,1.2,1.2,0,0,0,.81.59,1,1,0,0,0,.84-.22,1,1,0,0,0,.29-.71,1,1,0,0,0-.13-.65.89.89,0,0,0-.52-.38.83.83,0,0,0-.71.13.76.76,0,0,0-.29.72.71.71,0,0,0,.4.53.6.6,0,0,0,.61-.08A.47.47,0,0,0,49,26.8a.56.56,0,0,0-.21-.27,1,1,0,0,0-.2-.14l0,.29.12.05a.25.25,0,0,1-.27.39.42.42,0,0,1-.29-.37.51.51,0,0,1,.32-.53.55.55,0,0,1,.5.09.58.58,0,0,1,.19.33.71.71,0,0,1-1.2.72.9.9,0,0,1-.26-.56,1.15,1.15,0,0,1,1.24-1.38c.15,0,.15,0,.44.07a2,2,0,0,0,.77,0,1.06,1.06,0,0,0,.74-.64c0-.12,0-.11,0-.27a1.65,1.65,0,0,1,.39-.69,2,2,0,0,1,.23-.22l1.48,1,.91-1.32a1,1,0,0,1,.34-.66.91.91,0,0,1,.7-.21l.13,0a1.57,1.57,0,0,0,1.28-.09,1.5,1.5,0,0,0,.66-.89A1.46,1.46,0,0,0,56.91,20.4Z" transform="translate(0 -1.02)"/><path class="cls-1" d="M42.2,34.84a1.2,1.2,0,0,0-.81-.59,1,1,0,0,0-.84.22,1,1,0,0,0-.29.71,1,1,0,0,0,.13.65.89.89,0,0,0,.52.38.83.83,0,0,0,.71-.13.76.76,0,0,0,.29-.72.71.71,0,0,0-.4-.53.6.6,0,0,0-.61.08.47.47,0,0,0-.17.44.56.56,0,0,0,.21.27,1,1,0,0,0,.2.14l0-.29-.12-.05a.25.25,0,0,1,.27-.39.42.42,0,0,1,.29.37.51.51,0,0,1-.32.53.55.55,0,0,1-.5-.09.58.58,0,0,1-.19-.33.71.71,0,0,1,1.2-.72.9.9,0,0,1,.26.56,1.15,1.15,0,0,1-1.24,1.38c-.15,0-.15,0-.44-.07a2,2,0,0,0-.77,0,1.06,1.06,0,0,0-.74.64c0,.12,0,.11,0,.27a1.65,1.65,0,0,1-.39.69,2,2,0,0,1-.23.22l-1.48-1-.91,1.32a1,1,0,0,1-.34.66.91.91,0,0,1-.7.21l-.13,0a1.57,1.57,0,0,0-1.28.09,1.5,1.5,0,0,0-.66.89,1.46,1.46,0,0,0,.09,1.17,1.2,1.2,0,0,0,.81.59,1,1,0,0,0,.84-.22,1,1,0,0,0,.29-.71,1,1,0,0,0-.13-.65.89.89,0,0,0-.52-.38.83.83,0,0,0-.71.13.76.76,0,0,0-.29.72.71.71,0,0,0,.4.53.6.6,0,0,0,.61-.08.47.47,0,0,0,.17-.44.56.56,0,0,0-.21-.27,1,1,0,0,0-.2-.14l0,.29.12.05a.25.25,0,0,1-.27.39.42.42,0,0,1-.29-.37.51.51,0,0,1,.32-.53.55.55,0,0,1,.5.09.58.58,0,0,1,.19.33.71.71,0,0,1-1.2.72.9.9,0,0,1-.26-.56,1.15,1.15,0,0,1,1.24-1.38c.15,0,.15,0,.44.07a2,2,0,0,0,.77,0,1.06,1.06,0,0,0,.74-.64c0-.12,0-.11,0-.27a1.65,1.65,0,0,1,.39-.69,2,2,0,0,1,.23-.22l1.48,1,.91-1.32a1,1,0,0,1,.34-.66.91.91,0,0,1,.7-.21l.13,0a1.57,1.57,0,0,0,1.28-.09,1.5,1.5,0,0,0,.66-.89A1.46,1.46,0,0,0,42.2,34.84Z" transform="translate(0 -1.02)"/><path class="cls-1" d="M27.76,34.84a1.2,1.2,0,0,0-.81-.59,1,1,0,0,0-.84.22,1,1,0,0,0-.29.71,1,1,0,0,0,.13.65.89.89,0,0,0,.52.38.83.83,0,0,0,.71-.13.76.76,0,0,0,.29-.72.71.71,0,0,0-.4-.53.6.6,0,0,0-.61.08.47.47,0,0,0-.17.44.56.56,0,0,0,.21.27,1,1,0,0,0,.2.14l0-.29-.12-.05A.25.25,0,0,1,26.9,35a.42.42,0,0,1,.29.37.51.51,0,0,1-.32.53.55.55,0,0,1-.5-.09.58.58,0,0,1-.19-.33.71.71,0,0,1,1.2-.72.9.9,0,0,1,.26.56,1.15,1.15,0,0,1-1.24,1.38c-.15,0-.15,0-.44-.07a2,2,0,0,0-.77,0,1.06,1.06,0,0,0-.74.64c0,.12,0,.11,0,.27a1.65,1.65,0,0,1-.39.69,2,2,0,0,1-.23.22l-1.48-1-.91,1.32a1,1,0,0,1-.34.66.91.91,0,0,1-.7.21l-.13,0a1.57,1.57,0,0,0-1.28.09,1.5,1.5,0,0,0-.66.89,1.46,1.46,0,0,0,.09,1.17,1.2,1.2,0,0,0,.81.59,1,1,0,0,0,.84-.22,1,1,0,0,0,.29-.71,1,1,0,0,0-.13-.65.89.89,0,0,0-.52-.38.83.83,0,0,0-.71.13.76.76,0,0,0-.29.72.71.71,0,0,0,.4.53.6.6,0,0,0,.61-.08.47.47,0,0,0,.17-.44.56.56,0,0,0-.21-.27,1,1,0,0,0-.2-.14l0,.29.12.05a.25.25,0,0,1-.27.39.42.42,0,0,1-.29-.37.51.51,0,0,1,.32-.53.55.55,0,0,1,.5.09.58.58,0,0,1,.19.33.71.71,0,0,1-1.2.72.9.9,0,0,1-.26-.56,1.15,1.15,0,0,1,1.24-1.38c.15,0,.15,0,.44.07a2,2,0,0,0,.77,0,1.06,1.06,0,0,0,.74-.64c0-.12,0-.11,0-.27a1.65,1.65,0,0,1,.39-.69,2,2,0,0,1,.23-.22l1.48,1,.91-1.32a1,1,0,0,1,.34-.66.91.91,0,0,1,.7-.21l.13,0a1.57,1.57,0,0,0,1.28-.09,1.5,1.5,0,0,0,.66-.89A1.46,1.46,0,0,0,27.76,34.84Z" transform="translate(0 -1.02)"/><path class="cls-1" d="M56.8,34.84a1.2,1.2,0,0,0-.81-.59,1,1,0,0,0-.84.22,1,1,0,0,0-.29.71,1,1,0,0,0,.13.65.89.89,0,0,0,.52.38.83.83,0,0,0,.71-.13.76.76,0,0,0,.29-.72.71.71,0,0,0-.4-.53.6.6,0,0,0-.61.08.47.47,0,0,0-.17.44.56.56,0,0,0,.21.27,1,1,0,0,0,.2.14l0-.29-.12-.05a.25.25,0,0,1,.27-.39.42.42,0,0,1,.29.37.51.51,0,0,1-.32.53.55.55,0,0,1-.5-.09.58.58,0,0,1-.19-.33.71.71,0,0,1,1.2-.72.9.9,0,0,1,.26.56,1.15,1.15,0,0,1-1.24,1.38c-.15,0-.15,0-.44-.07a2,2,0,0,0-.77,0,1.06,1.06,0,0,0-.74.64c0,.12,0,.11,0,.27a1.65,1.65,0,0,1-.39.69,2,2,0,0,1-.23.22l-1.48-1-.91,1.32a1,1,0,0,1-.34.66.91.91,0,0,1-.7.21l-.13,0a1.57,1.57,0,0,0-1.28.09,1.5,1.5,0,0,0-.66.89,1.46,1.46,0,0,0,.09,1.17,1.2,1.2,0,0,0,.81.59,1,1,0,0,0,.84-.22,1,1,0,0,0,.29-.71,1,1,0,0,0-.13-.65.89.89,0,0,0-.52-.38.83.83,0,0,0-.71.13.76.76,0,0,0-.29.72.71.71,0,0,0,.4.53.6.6,0,0,0,.61-.08.47.47,0,0,0,.17-.44.56.56,0,0,0-.21-.27,1,1,0,0,0-.2-.14l0,.29.12.05a.25.25,0,0,1-.27.39.42.42,0,0,1-.29-.37.51.51,0,0,1,.32-.53.55.55,0,0,1,.5.09.58.58,0,0,1,.19.33.71.71,0,0,1-1.2.72.9.9,0,0,1-.26-.56,1.15,1.15,0,0,1,1.24-1.38c.15,0,.15,0,.44.07A2,2,0,0,0,50,40a1.06,1.06,0,0,0,.74-.64c0-.12,0-.11,0-.27a1.65,1.65,0,0,1,.39-.69,2,2,0,0,1,.23-.22l1.48,1,.91-1.32a1,1,0,0,1,.34-.66.91.91,0,0,1,.7-.21L55,37a1.57,1.57,0,0,0,1.28-.09,1.5,1.5,0,0,0,.66-.89A1.46,1.46,0,0,0,56.8,34.84Z" transform="translate(0 -1.02)"/><path class="cls-1" d="M42.31,49.8a1.2,1.2,0,0,0-.81-.59,1,1,0,0,0-.84.22,1,1,0,0,0-.29.71,1,1,0,0,0,.13.65.89.89,0,0,0,.52.38.83.83,0,0,0,.71-.13.76.76,0,0,0,.29-.72.71.71,0,0,0-.4-.53.6.6,0,0,0-.61.08.47.47,0,0,0-.17.44.56.56,0,0,0,.21.27,1,1,0,0,0,.2.14l0-.29-.12-.05a.25.25,0,0,1,.27-.39.42.42,0,0,1,.29.37.51.51,0,0,1-.32.53.55.55,0,0,1-.5-.09.58.58,0,0,1-.19-.33.71.71,0,0,1,1.2-.72.9.9,0,0,1,.26.56,1.15,1.15,0,0,1-1.24,1.38c-.15,0-.15,0-.44-.07a2,2,0,0,0-.77,0,1.06,1.06,0,0,0-.74.64c0,.12,0,.11,0,.27a1.65,1.65,0,0,1-.39.69,2,2,0,0,1-.23.22l-1.48-1-.91,1.32a1,1,0,0,1-.34.66.91.91,0,0,1-.7.21l-.13,0a1.57,1.57,0,0,0-1.28.09,1.5,1.5,0,0,0-.66.89,1.46,1.46,0,0,0,.09,1.17,1.2,1.2,0,0,0,.81.59,1,1,0,0,0,.84-.22,1,1,0,0,0,.29-.71,1,1,0,0,0-.13-.65.89.89,0,0,0-.52-.38.83.83,0,0,0-.71.13.76.76,0,0,0-.29.72.71.71,0,0,0,.4.53.6.6,0,0,0,.61-.08.47.47,0,0,0,.17-.44.56.56,0,0,0-.21-.27,1,1,0,0,0-.2-.14l0,.29.12.05a.25.25,0,0,1-.27.39.42.42,0,0,1-.29-.37.51.51,0,0,1,.32-.53.55.55,0,0,1,.5.09.58.58,0,0,1,.19.33.71.71,0,0,1-1.2.72.9.9,0,0,1-.26-.56,1.15,1.15,0,0,1,1.24-1.38c.15,0,.15,0,.44.07a2,2,0,0,0,.77,0,1.06,1.06,0,0,0,.74-.64c0-.12,0-.11,0-.27a1.65,1.65,0,0,1,.39-.69,2,2,0,0,1,.23-.22l1.48,1,.91-1.32a1,1,0,0,1,.34-.66.91.91,0,0,1,.7-.21l.13,0a1.57,1.57,0,0,0,1.28-.09A1.5,1.5,0,0,0,42.4,51,1.46,1.46,0,0,0,42.31,49.8Z" transform="translate(0 -1.02)"/><path class="cls-1" d="M27.87,49.8a1.2,1.2,0,0,0-.81-.59,1,1,0,0,0-.84.22,1,1,0,0,0-.29.71,1,1,0,0,0,.13.65.89.89,0,0,0,.52.38.83.83,0,0,0,.71-.13.76.76,0,0,0,.29-.72.71.71,0,0,0-.4-.53.6.6,0,0,0-.61.08.47.47,0,0,0-.17.44.56.56,0,0,0,.21.27,1,1,0,0,0,.2.14l0-.29-.12-.05A.25.25,0,0,1,27,50a.42.42,0,0,1,.29.37.51.51,0,0,1-.32.53.55.55,0,0,1-.5-.09.58.58,0,0,1-.19-.33.71.71,0,0,1,1.2-.72.9.9,0,0,1,.26.56,1.15,1.15,0,0,1-1.24,1.38c-.15,0-.15,0-.44-.07a2,2,0,0,0-.77,0,1.06,1.06,0,0,0-.74.64c0,.12,0,.11,0,.27a1.65,1.65,0,0,1-.39.69,2,2,0,0,1-.23.22l-1.48-1-.91,1.32a1,1,0,0,1-.34.66.91.91,0,0,1-.7.21l-.13,0a1.57,1.57,0,0,0-1.28.09,1.5,1.5,0,0,0-.66.89,1.46,1.46,0,0,0,.09,1.17,1.2,1.2,0,0,0,.81.59,1,1,0,0,0,.84-.22,1,1,0,0,0,.29-.71,1,1,0,0,0-.13-.65.89.89,0,0,0-.52-.38.83.83,0,0,0-.71.13.76.76,0,0,0-.29.72.71.71,0,0,0,.4.53.6.6,0,0,0,.61-.08.47.47,0,0,0,.17-.44.56.56,0,0,0-.21-.27,1,1,0,0,0-.2-.14l0,.29.12.05a.25.25,0,0,1-.27.39.42.42,0,0,1-.29-.37.51.51,0,0,1,.32-.53.55.55,0,0,1,.5.09A.58.58,0,0,1,20,56a.71.71,0,0,1-1.2.72.9.9,0,0,1-.26-.56,1.15,1.15,0,0,1,1.24-1.38c.15,0,.15,0,.44.07a2,2,0,0,0,.77,0,1.06,1.06,0,0,0,.74-.64c0-.12,0-.11,0-.27a1.65,1.65,0,0,1,.39-.69,2,2,0,0,1,.23-.22l1.48,1,.91-1.32a1,1,0,0,1,.34-.66.91.91,0,0,1,.7-.21L26,52a1.57,1.57,0,0,0,1.28-.09A1.5,1.5,0,0,0,28,51,1.46,1.46,0,0,0,27.87,49.8Z" transform="translate(0 -1.02)"/><path class="cls-1" d="M56.91,49.8a1.2,1.2,0,0,0-.81-.59,1,1,0,0,0-.84.22,1,1,0,0,0-.29.71,1,1,0,0,0,.13.65.89.89,0,0,0,.52.38.83.83,0,0,0,.71-.13.76.76,0,0,0,.29-.72.71.71,0,0,0-.4-.53.6.6,0,0,0-.61.08.47.47,0,0,0-.17.44.56.56,0,0,0,.21.27,1,1,0,0,0,.2.14l0-.29-.12-.05A.25.25,0,0,1,56,50a.42.42,0,0,1,.29.37.51.51,0,0,1-.32.53.55.55,0,0,1-.5-.09.58.58,0,0,1-.19-.33.71.71,0,0,1,1.2-.72.9.9,0,0,1,.26.56,1.15,1.15,0,0,1-1.24,1.38c-.15,0-.15,0-.44-.07a2,2,0,0,0-.77,0,1.06,1.06,0,0,0-.74.64c0,.12,0,.11,0,.27a1.65,1.65,0,0,1-.39.69,2,2,0,0,1-.23.22l-1.48-1-.91,1.32a1,1,0,0,1-.34.66.91.91,0,0,1-.7.21l-.13,0a1.57,1.57,0,0,0-1.28.09,1.5,1.5,0,0,0-.66.89,1.46,1.46,0,0,0,.09,1.17,1.2,1.2,0,0,0,.81.59,1,1,0,0,0,.84-.22,1,1,0,0,0,.29-.71,1,1,0,0,0-.13-.65.89.89,0,0,0-.52-.38.83.83,0,0,0-.71.13.76.76,0,0,0-.29.72.71.71,0,0,0,.4.53.6.6,0,0,0,.61-.08A.47.47,0,0,0,49,56.2a.56.56,0,0,0-.21-.27,1,1,0,0,0-.2-.14l0,.29.12.05a.25.25,0,0,1-.27.39.42.42,0,0,1-.29-.37.51.51,0,0,1,.32-.53.55.55,0,0,1,.5.09.58.58,0,0,1,.19.33.71.71,0,0,1-1.2.72.9.9,0,0,1-.26-.56,1.15,1.15,0,0,1,1.24-1.38c.15,0,.15,0,.44.07a2,2,0,0,0,.77,0,1.06,1.06,0,0,0,.74-.64c0-.12,0-.11,0-.27a1.65,1.65,0,0,1,.39-.69,2,2,0,0,1,.23-.22l1.48,1,.91-1.32a1,1,0,0,1,.34-.66.91.91,0,0,1,.7-.21l.13,0a1.57,1.57,0,0,0,1.28-.09A1.5,1.5,0,0,0,57,51,1.46,1.46,0,0,0,56.91,49.8Z" transform="translate(0 -1.02)"/><path class="cls-1" d="M40.51,5.43a1,1,0,0,0-.29.71,1,1,0,0,0,.13.65.89.89,0,0,0,.52.38A.83.83,0,0,0,41.58,7a.76.76,0,0,0,.29-.72.71.71,0,0,0-.4-.53.6.6,0,0,0-.61.08.47.47,0,0,0-.17.44.56.56,0,0,0,.21.27,1,1,0,0,0,.2.14l0-.29L41,6.37A.25.25,0,0,1,41.3,6a.42.42,0,0,1,.29.37.51.51,0,0,1-.32.53.55.55,0,0,1-.5-.09.58.58,0,0,1-.19-.33.71.71,0,0,1,1.2-.72.9.9,0,0,1,.26.56,1.25,1.25,0,0,1-.33,1.07,1.25,1.25,0,0,1-.91.31c-.15,0-.15,0-.44-.07a2,2,0,0,0-.77,0,1.06,1.06,0,0,0-.74.64c0,.12,0,.11,0,.27a1.65,1.65,0,0,1-.39.69,2,2,0,0,1-.23.22l-1.48-1-.91,1.32a1,1,0,0,1-.34.66.91.91,0,0,1-.7.21l-.13,0a1.57,1.57,0,0,0-1.28.09,1.5,1.5,0,0,0-.66.89,1.46,1.46,0,0,0,.09,1.17,1.2,1.2,0,0,0,.81.59,1,1,0,0,0,.84-.22,1,1,0,0,0,.29-.71,1,1,0,0,0-.13-.65.89.89,0,0,0-.52-.38.83.83,0,0,0-.71.13.76.76,0,0,0-.29.72.71.71,0,0,0,.4.53.6.6,0,0,0,.61-.08.47.47,0,0,0,.17-.44.56.56,0,0,0-.21-.27,1,1,0,0,0-.2-.14l0,.29.12.05a.25.25,0,0,1-.27.39.42.42,0,0,1-.29-.37.51.51,0,0,1,.32-.53.55.55,0,0,1,.5.09.58.58,0,0,1,.19.33.71.71,0,0,1-1.2.72.9.9,0,0,1-.26-.56,1.15,1.15,0,0,1,1.24-1.38c.15,0,.15,0,.44.07a2,2,0,0,0,.77,0,1.06,1.06,0,0,0,.74-.64c0-.12,0-.11,0-.27a1.65,1.65,0,0,1,.39-.69,2,2,0,0,1,.23-.22l1.48,1,.91-1.32a1,1,0,0,1,.34-.66.91.91,0,0,1,.7-.21l.13,0a1.57,1.57,0,0,0,1.28-.09A1.5,1.5,0,0,0,42.25,7a1.46,1.46,0,0,0-.09-1.17,1.33,1.33,0,0,0-.4-.43H40.58Z" transform="translate(0 -1.02)"/><path class="cls-1" d="M26.07,5.43a1,1,0,0,0-.29.71,1,1,0,0,0,.13.65.89.89,0,0,0,.52.38A.83.83,0,0,0,27.14,7a.76.76,0,0,0,.29-.72.71.71,0,0,0-.4-.53.6.6,0,0,0-.61.08.47.47,0,0,0-.17.44.56.56,0,0,0,.21.27,1,1,0,0,0,.2.14l0-.29-.12-.05A.25.25,0,0,1,26.86,6a.42.42,0,0,1,.29.37.51.51,0,0,1-.32.53.55.55,0,0,1-.5-.09.58.58,0,0,1-.19-.33.71.71,0,0,1,1.2-.72.9.9,0,0,1,.26.56,1.25,1.25,0,0,1-.33,1.07,1.25,1.25,0,0,1-.91.31c-.15,0-.15,0-.44-.07a2,2,0,0,0-.77,0,1.06,1.06,0,0,0-.74.64c0,.12,0,.11,0,.27a1.65,1.65,0,0,1-.39.69,2,2,0,0,1-.23.22l-1.48-1-.91,1.32a1,1,0,0,1-.34.66.91.91,0,0,1-.7.21l-.13,0a1.57,1.57,0,0,0-1.28.09,1.5,1.5,0,0,0-.66.89,1.46,1.46,0,0,0,.09,1.17,1.2,1.2,0,0,0,.81.59,1,1,0,0,0,.84-.22,1,1,0,0,0,.29-.71,1,1,0,0,0-.13-.65.89.89,0,0,0-.52-.38.83.83,0,0,0-.71.13.76.76,0,0,0-.29.72.71.71,0,0,0,.4.53.6.6,0,0,0,.61-.08.47.47,0,0,0,.17-.44.56.56,0,0,0-.21-.27,1,1,0,0,0-.2-.14l0,.29.12.05a.25.25,0,0,1-.27.39.42.42,0,0,1-.29-.37.51.51,0,0,1,.32-.53.55.55,0,0,1,.5.09.58.58,0,0,1,.19.33.71.71,0,0,1-1.2.72.9.9,0,0,1-.26-.56,1.15,1.15,0,0,1,1.24-1.38c.15,0,.15,0,.44.07a2,2,0,0,0,.77,0,1.06,1.06,0,0,0,.74-.64c0-.12,0-.11,0-.27a1.65,1.65,0,0,1,.39-.69,2,2,0,0,1,.23-.22l1.48,1,.91-1.32A1,1,0,0,1,25,8.12a.91.91,0,0,1,.7-.21l.13,0a1.57,1.57,0,0,0,1.28-.09A1.5,1.5,0,0,0,27.81,7a1.46,1.46,0,0,0-.09-1.17,1.33,1.33,0,0,0-.4-.43H26.14Z" transform="translate(0 -1.02)"/><path class="cls-1" d="M55.11,5.43a1,1,0,0,0-.29.71,1,1,0,0,0,.13.65.89.89,0,0,0,.52.38A.83.83,0,0,0,56.18,7a.76.76,0,0,0,.29-.72.71.71,0,0,0-.4-.53.6.6,0,0,0-.61.08.47.47,0,0,0-.17.44.56.56,0,0,0,.21.27,1,1,0,0,0,.2.14l0-.29-.12-.05A.25.25,0,0,1,55.9,6a.42.42,0,0,1,.29.37.51.51,0,0,1-.32.53.55.55,0,0,1-.5-.09.58.58,0,0,1-.19-.33.71.71,0,0,1,1.2-.72.9.9,0,0,1,.26.56,1.25,1.25,0,0,1-.33,1.07,1.25,1.25,0,0,1-.91.31c-.15,0-.15,0-.44-.07a2,2,0,0,0-.77,0,1.06,1.06,0,0,0-.74.64c0,.12,0,.11,0,.27a1.65,1.65,0,0,1-.39.69,2,2,0,0,1-.23.22l-1.48-1-.91,1.32a1,1,0,0,1-.34.66.91.91,0,0,1-.7.21l-.13,0a1.57,1.57,0,0,0-1.28.09,1.5,1.5,0,0,0-.66.89,1.46,1.46,0,0,0,.09,1.17,1.2,1.2,0,0,0,.81.59,1,1,0,0,0,.84-.22,1,1,0,0,0,.29-.71,1,1,0,0,0-.13-.65.89.89,0,0,0-.52-.38.83.83,0,0,0-.71.13.76.76,0,0,0-.29.72.71.71,0,0,0,.4.53.6.6,0,0,0,.61-.08.47.47,0,0,0,.17-.44.56.56,0,0,0-.21-.27,1,1,0,0,0-.2-.14l0,.29.12.05a.25.25,0,0,1-.27.39.42.42,0,0,1-.29-.37.51.51,0,0,1,.32-.53.55.55,0,0,1,.5.09.58.58,0,0,1,.19.33.71.71,0,0,1-1.2.72.9.9,0,0,1-.26-.56,1.15,1.15,0,0,1,1.24-1.38c.15,0,.15,0,.44.07a2,2,0,0,0,.77,0,1.06,1.06,0,0,0,.74-.64c0-.12,0-.11,0-.27a1.65,1.65,0,0,1,.39-.69,2,2,0,0,1,.23-.22l1.48,1,.91-1.32a1,1,0,0,1,.34-.66.91.91,0,0,1,.7-.21l.13,0a1.57,1.57,0,0,0,1.28-.09A1.5,1.5,0,0,0,56.85,7a1.46,1.46,0,0,0-.09-1.17,1.33,1.33,0,0,0-.4-.43H55.18Z" transform="translate(0 -1.02)"/><path class="cls-1" d="M62.7,71.21l-.08-.08h-.24l0,.08Z" transform="translate(0 -1.02)"/><path class="cls-1" d="M62.38,71.13h-.31l0,.08h.32Z" transform="translate(0 -1.02)"/><path class="cls-1" d="M12.57,5.37H11.39l-.07.06h1.34Z" transform="translate(0 -1.02)"/><polygon class="cls-1" points="9.74 59.6 10.19 60.02 9.65 60.57 7.83 58.84 7.39 58.42 7.92 57.87 9.74 59.6"/><polygon class="cls-1" points="24.54 59.63 24.98 60.05 24.44 60.6 22.63 58.86 22.2 58.43 22.73 57.89 24.54 59.63"/><polygon class="cls-1" points="39 59.61 39.45 60.02 38.92 60.58 37.07 58.88 36.62 58.47 37.14 57.91 39 59.61"/><polygon class="cls-1" points="53.58 59.65 54.01 60.08 53.46 60.62 51.68 58.84 51.25 58.41 51.8 57.87 53.58 59.65"/><polygon class="cls-1" points="68.22 59.55 68.67 59.95 68.15 60.52 66.28 58.84 65.83 58.44 66.34 57.87 68.22 59.55"/><circle class="cls-1" cx="15.43" cy="22.83" r="0.91"/><circle class="cls-1" cx="30.39" cy="22.83" r="0.91"/><circle class="cls-1" cx="44.91" cy="22.83" r="0.91"/><circle class="cls-1" cx="59.55" cy="22.83" r="0.91"/><circle class="cls-1" cx="15.4" cy="37.25" r="0.91"/><circle class="cls-1" cx="30.35" cy="37.25" r="0.91"/><circle class="cls-1" cx="44.87" cy="37.25" r="0.91"/><circle class="cls-1" cx="59.51" cy="37.25" r="0.91"/><circle class="cls-1" cx="15.64" cy="52.11" r="0.91"/><circle class="cls-1" cx="30.6" cy="52.11" r="0.91"/><circle class="cls-1" cx="45.12" cy="52.11" r="0.91"/><circle class="cls-1" cx="59.76" cy="52.11" r="0.91"/><circle class="cls-1" cx="15.61" cy="66.54" r="0.91"/><circle class="cls-1" cx="30.56" cy="66.54" r="0.91"/><circle class="cls-1" cx="45.08" cy="66.54" r="0.91"/><circle class="cls-1" cx="59.72" cy="66.54" r="0.91"/><circle class="cls-1" cx="15.62" cy="8.32" r="0.91"/><circle class="cls-1" cx="30.58" cy="8.32" r="0.91"/><circle class="cls-1" cx="45.1" cy="8.32" r="0.91"/><circle class="cls-1" cx="59.74" cy="8.32" r="0.91"/><polygon class="cls-1" points="9.75 44.81 10.19 45.23 9.65 45.78 7.83 44.05 7.39 43.63 7.92 43.09 9.75 44.81"/><polygon class="cls-1" points="24.54 44.85 24.98 45.27 24.44 45.81 22.63 44.07 22.2 43.65 22.73 43.1 24.54 44.85"/><polygon class="cls-1" points="39 44.82 39.45 45.23 38.92 45.79 37.07 44.09 36.62 43.68 37.15 43.13 39 44.82"/><polygon class="cls-1" points="53.58 44.87 54.01 45.29 53.46 45.83 51.68 44.05 51.26 43.62 51.8 43.09 53.58 44.87"/><polygon class="cls-1" points="68.22 44.76 68.68 45.16 68.16 45.73 66.28 44.06 65.83 43.65 66.35 43.09 68.22 44.76"/><polygon class="cls-1" points="9.75 30.59 10.19 31 9.66 31.55 7.83 29.82 7.39 29.4 7.93 28.86 9.75 30.59"/><polygon class="cls-1" points="24.55 30.62 24.99 31.04 24.45 31.59 22.64 29.84 22.2 29.42 22.74 28.88 24.55 30.62"/><polygon class="cls-1" points="39 30.59 39.45 31 38.93 31.56 37.07 29.87 36.63 29.45 37.15 28.9 39 30.59"/><polygon class="cls-1" points="53.58 30.64 54.01 31.07 53.46 31.6 51.69 29.82 51.26 29.39 51.81 28.86 53.58 30.64"/><polygon class="cls-1" points="68.22 30.53 68.68 30.93 68.16 31.5 66.28 29.83 65.83 29.42 66.35 28.86 68.22 30.53"/><polygon class="cls-1" points="9.75 15.87 10.2 16.29 9.66 16.84 7.84 15.11 7.4 14.69 7.93 14.15 9.75 15.87"/><polygon class="cls-1" points="24.55 15.91 24.99 16.33 24.45 16.87 22.64 15.13 22.2 14.71 22.74 14.16 24.55 15.91"/><polygon class="cls-1" points="39 15.88 39.45 16.29 38.93 16.85 37.08 15.15 36.63 14.74 37.15 14.19 39 15.88"/><polygon class="cls-1" points="53.58 15.93 54.02 16.35 53.46 16.89 51.69 15.11 51.26 14.68 51.81 14.15 53.58 15.93"/><polygon class="cls-1" points="68.22 15.82 68.68 16.22 68.16 16.79 66.29 15.12 65.84 14.71 66.35 14.15 68.22 15.82"/><path class="cls-1" d="M71.68,20.47a1.2,1.2,0,0,0-.81-.59,1,1,0,0,0-.84.22,1,1,0,0,0-.29.71,1,1,0,0,0,.13.65.89.89,0,0,0,.52.38.83.83,0,0,0,.71-.13.76.76,0,0,0,.29-.72.71.71,0,0,0-.4-.53.6.6,0,0,0-.61.08.47.47,0,0,0-.17.44.56.56,0,0,0,.21.27,1,1,0,0,0,.2.14l0-.29L70.54,21a.25.25,0,0,1,.27-.39.42.42,0,0,1,.29.37.51.51,0,0,1-.32.53.55.55,0,0,1-.5-.09.58.58,0,0,1-.19-.33.71.71,0,0,1,1.2-.72.9.9,0,0,1,.26.56,1.15,1.15,0,0,1-1.24,1.38c-.15,0-.15,0-.44-.07a2,2,0,0,0-.77,0,1.06,1.06,0,0,0-.74.64c0,.12,0,.11,0,.27a1.65,1.65,0,0,1-.39.69,2,2,0,0,1-.23.22l-1.48-1-.91,1.32a1,1,0,0,1-.34.66.91.91,0,0,1-.7.21l-.13,0a1.57,1.57,0,0,0-1.28.09,1.5,1.5,0,0,0-.66.89,1.46,1.46,0,0,0,.09,1.17,1.2,1.2,0,0,0,.81.59,1,1,0,0,0,.84-.22A1,1,0,0,0,64.2,27a1,1,0,0,0-.13-.65.89.89,0,0,0-.52-.38.83.83,0,0,0-.71.13.76.76,0,0,0-.29.72.71.71,0,0,0,.4.53.6.6,0,0,0,.61-.08.47.47,0,0,0,.17-.44.56.56,0,0,0-.21-.27,1,1,0,0,0-.2-.14l0,.29.12.05a.25.25,0,0,1-.27.39.42.42,0,0,1-.29-.37.51.51,0,0,1,.32-.53.55.55,0,0,1,.5.09.58.58,0,0,1,.19.33.71.71,0,0,1-1.2.72.9.9,0,0,1-.26-.56,1.15,1.15,0,0,1,1.24-1.38c.15,0,.15,0,.44.07a2,2,0,0,0,.77,0,1.06,1.06,0,0,0,.74-.64c0-.12,0-.11,0-.27A1.65,1.65,0,0,1,66,24a2,2,0,0,1,.23-.22l1.48,1,.91-1.32a1,1,0,0,1,.34-.66.91.91,0,0,1,.7-.21l.13,0a1.57,1.57,0,0,0,1.28-.09,1.5,1.5,0,0,0,.66-.89A1.46,1.46,0,0,0,71.68,20.47Z" transform="translate(0 -1.02)"/><path class="cls-1" d="M71.57,34.9a1.2,1.2,0,0,0-.81-.59,1,1,0,0,0-.84.22,1,1,0,0,0-.29.71,1,1,0,0,0,.13.65.89.89,0,0,0,.52.38.83.83,0,0,0,.71-.13.76.76,0,0,0,.29-.72.71.71,0,0,0-.4-.53.6.6,0,0,0-.61.08.47.47,0,0,0-.17.44.56.56,0,0,0,.21.27,1,1,0,0,0,.2.14l0-.29-.12-.05a.25.25,0,0,1,.27-.39.42.42,0,0,1,.29.37.51.51,0,0,1-.32.53.55.55,0,0,1-.5-.09.58.58,0,0,1-.19-.33.71.71,0,0,1,1.2-.72.9.9,0,0,1,.26.56A1.15,1.15,0,0,1,70.2,36.8c-.15,0-.15,0-.44-.07a2,2,0,0,0-.77,0,1.06,1.06,0,0,0-.74.64c0,.12,0,.11,0,.27a1.65,1.65,0,0,1-.39.69,2,2,0,0,1-.23.22l-1.48-1-.91,1.32a1,1,0,0,1-.34.66.91.91,0,0,1-.7.21l-.13,0a1.57,1.57,0,0,0-1.28.09,1.5,1.5,0,0,0-.66.89,1.46,1.46,0,0,0,.09,1.17,1.2,1.2,0,0,0,.81.59,1,1,0,0,0,.84-.22,1,1,0,0,0,.29-.71,1,1,0,0,0-.13-.65.89.89,0,0,0-.52-.38.83.83,0,0,0-.71.13.76.76,0,0,0-.29.72.71.71,0,0,0,.4.53.6.6,0,0,0,.61-.08.47.47,0,0,0,.17-.44.56.56,0,0,0-.21-.27,1,1,0,0,0-.2-.14l0,.29.12.05a.25.25,0,0,1-.27.39.42.42,0,0,1-.29-.37.51.51,0,0,1,.32-.53.55.55,0,0,1,.5.09.58.58,0,0,1,.19.33.71.71,0,0,1-1.2.72.9.9,0,0,1-.26-.56,1.15,1.15,0,0,1,1.24-1.38c.15,0,.15,0,.44.07a2,2,0,0,0,.77,0,1.06,1.06,0,0,0,.74-.64c0-.12,0-.11,0-.27a1.65,1.65,0,0,1,.39-.69,2,2,0,0,1,.23-.22l1.48,1,.91-1.32a1,1,0,0,1,.34-.66.91.91,0,0,1,.7-.21l.13,0A1.57,1.57,0,0,0,71,37a1.5,1.5,0,0,0,.66-.89A1.46,1.46,0,0,0,71.57,34.9Z" transform="translate(0 -1.02)"/><path class="cls-1" d="M71.68,49.87a1.2,1.2,0,0,0-.81-.59,1,1,0,0,0-.84.22,1,1,0,0,0-.29.71,1,1,0,0,0,.13.65.89.89,0,0,0,.52.38.83.83,0,0,0,.71-.13.76.76,0,0,0,.29-.72.71.71,0,0,0-.4-.53.6.6,0,0,0-.61.08.47.47,0,0,0-.17.44.56.56,0,0,0,.21.27,1,1,0,0,0,.2.14l0-.29-.12-.05a.25.25,0,0,1,.27-.39.42.42,0,0,1,.29.37.51.51,0,0,1-.32.53.55.55,0,0,1-.5-.09.58.58,0,0,1-.19-.33.71.71,0,0,1,1.2-.72.9.9,0,0,1,.26.56,1.15,1.15,0,0,1-1.24,1.38c-.15,0-.15,0-.44-.07a2,2,0,0,0-.77,0,1.06,1.06,0,0,0-.74.64c0,.12,0,.11,0,.27a1.65,1.65,0,0,1-.39.69,2,2,0,0,1-.23.22l-1.48-1-.91,1.32a1,1,0,0,1-.34.66.91.91,0,0,1-.7.21l-.13,0a1.57,1.57,0,0,0-1.28.09,1.5,1.5,0,0,0-.66.89,1.46,1.46,0,0,0,.09,1.17,1.2,1.2,0,0,0,.81.59,1,1,0,0,0,.84-.22,1,1,0,0,0,.29-.71,1,1,0,0,0-.13-.65.89.89,0,0,0-.52-.38.83.83,0,0,0-.71.13.76.76,0,0,0-.29.72.71.71,0,0,0,.4.53.6.6,0,0,0,.61-.08.47.47,0,0,0,.17-.44.56.56,0,0,0-.21-.27,1,1,0,0,0-.2-.14l0,.29.12.05a.25.25,0,0,1-.27.39.42.42,0,0,1-.29-.37.51.51,0,0,1,.32-.53.55.55,0,0,1,.5.09.58.58,0,0,1,.19.33.71.71,0,0,1-1.2.72.9.9,0,0,1-.26-.56,1.15,1.15,0,0,1,1.24-1.38c.15,0,.15,0,.44.07a2,2,0,0,0,.77,0,1.06,1.06,0,0,0,.74-.64c0-.12,0-.11,0-.27a1.65,1.65,0,0,1,.39-.69,2,2,0,0,1,.23-.22l1.48,1,.91-1.32a1,1,0,0,1,.34-.66.91.91,0,0,1,.7-.21l.13,0a1.57,1.57,0,0,0,1.28-.09,1.5,1.5,0,0,0,.66-.89A1.46,1.46,0,0,0,71.68,49.87Z" transform="translate(0 -1.02)"/><path class="cls-1" d="M69.88,5.49a1,1,0,0,0-.29.71,1,1,0,0,0,.13.65.89.89,0,0,0,.52.38.83.83,0,0,0,.71-.13.76.76,0,0,0,.29-.72.71.71,0,0,0-.4-.53.6.6,0,0,0-.61.08.47.47,0,0,0-.17.44.56.56,0,0,0,.21.27,1,1,0,0,0,.2.14l0-.29-.12-.05A.25.25,0,0,1,70.66,6a.42.42,0,0,1,.29.37.51.51,0,0,1-.32.53.55.55,0,0,1-.5-.09.58.58,0,0,1-.19-.33.71.71,0,0,1,1.2-.72.9.9,0,0,1,.26.56,1.25,1.25,0,0,1-.33,1.07,1.25,1.25,0,0,1-.91.31c-.15,0-.15,0-.44-.07a2,2,0,0,0-.77,0,1.06,1.06,0,0,0-.74.64c0,.12,0,.11,0,.27a1.65,1.65,0,0,1-.39.69,2,2,0,0,1-.23.22l-1.48-1L65.14,9.8a1,1,0,0,1-.34.66.91.91,0,0,1-.7.21l-.13,0a1.57,1.57,0,0,0-1.28.09,1.5,1.5,0,0,0-.66.89,1.46,1.46,0,0,0,.09,1.17,1.2,1.2,0,0,0,.81.59,1,1,0,0,0,.84-.22,1,1,0,0,0,.29-.71,1,1,0,0,0-.13-.65.89.89,0,0,0-.52-.38.83.83,0,0,0-.71.13.76.76,0,0,0-.29.72.71.71,0,0,0,.4.53.6.6,0,0,0,.61-.08.47.47,0,0,0,.17-.44.56.56,0,0,0-.21-.27,1,1,0,0,0-.2-.14l0,.29.12.05a.25.25,0,0,1-.27.39.42.42,0,0,1-.29-.37.51.51,0,0,1,.32-.53.55.55,0,0,1,.5.09.58.58,0,0,1,.19.33.71.71,0,0,1-1.2.72.9.9,0,0,1-.26-.56,1.15,1.15,0,0,1,1.24-1.38c.15,0,.15,0,.44.07a2,2,0,0,0,.77,0,1.06,1.06,0,0,0,.74-.64c0-.12,0-.11,0-.27a1.65,1.65,0,0,1,.39-.69,2,2,0,0,1,.23-.22l1.48,1,.91-1.32a1,1,0,0,1,.34-.66.91.91,0,0,1,.7-.21l.13,0A1.57,1.57,0,0,0,71,7.93,1.5,1.5,0,0,0,71.61,7a1.46,1.46,0,0,0-.09-1.17,1.33,1.33,0,0,0-.4-.43H69.95Z" transform="translate(0 -1.02)"/><path class="cls-1" d="M71.52,64.33a1.2,1.2,0,0,0-.81-.59,1,1,0,0,0-.84.22,1,1,0,0,0-.29.71,1,1,0,0,0,.13.65.89.89,0,0,0,.52.38.83.83,0,0,0,.71-.13.76.76,0,0,0,.29-.72.71.71,0,0,0-.4-.53.6.6,0,0,0-.61.08.47.47,0,0,0-.17.44.56.56,0,0,0,.21.27,1,1,0,0,0,.2.14l0-.29-.12-.05a.25.25,0,0,1,.27-.39.42.42,0,0,1,.29.37.51.51,0,0,1-.32.53.55.55,0,0,1-.5-.09.58.58,0,0,1-.19-.33.71.71,0,0,1,1.2-.72.9.9,0,0,1,.26.56,1.15,1.15,0,0,1-1.24,1.38c-.15,0-.15,0-.44-.07a2,2,0,0,0-.77,0,1.06,1.06,0,0,0-.74.64c0,.12,0,.11,0,.27a1.65,1.65,0,0,1-.39.69,2,2,0,0,1-.23.22l-1.48-1-.91,1.32a1,1,0,0,1-.34.66.91.91,0,0,1-.7.21l-.13,0a1.57,1.57,0,0,0-1.28.09,1.5,1.5,0,0,0-.66.89,1.46,1.46,0,0,0,.09,1.17,1.2,1.2,0,0,0,.81.59,1,1,0,0,0,.84-.22,1,1,0,0,0,.29-.71,1,1,0,0,0-.13-.65.89.89,0,0,0-.52-.38.83.83,0,0,0-.71.13.76.76,0,0,0-.29.72.71.71,0,0,0,.4.53.6.6,0,0,0,.61-.08.47.47,0,0,0,.17-.44.56.56,0,0,0-.21-.27,1,1,0,0,0-.2-.14l0,.29.12.05a.25.25,0,0,1-.27.39.42.42,0,0,1-.29-.37.51.51,0,0,1,.32-.53.55.55,0,0,1,.5.09.58.58,0,0,1,.19.33.71.71,0,0,1-1.2.72.9.9,0,0,1-.26-.56,1.15,1.15,0,0,1,1.24-1.38c.15,0,.15,0,.44.07a2,2,0,0,0,.77,0,1.06,1.06,0,0,0,.74-.64c0-.12,0-.11,0-.27a1.65,1.65,0,0,1,.39-.69,2,2,0,0,1,.23-.22l1.48,1,.91-1.32a1,1,0,0,1,.34-.66.91.91,0,0,1,.7-.21l.13,0A1.57,1.57,0,0,0,71,66.4a1.5,1.5,0,0,0,.66-.89A1.46,1.46,0,0,0,71.52,64.33Z" transform="translate(0 -1.02)"/><path class="cls-1" d="M42.32,64.33a1.2,1.2,0,0,0-.81-.59,1,1,0,0,0-.84.22,1,1,0,0,0-.29.71,1,1,0,0,0,.13.65.89.89,0,0,0,.52.38.83.83,0,0,0,.71-.13.76.76,0,0,0,.29-.72.71.71,0,0,0-.4-.53.6.6,0,0,0-.61.08.47.47,0,0,0-.17.44.56.56,0,0,0,.21.27,1,1,0,0,0,.2.14l0-.29-.12-.05a.25.25,0,0,1,.27-.39.42.42,0,0,1,.29.37.51.51,0,0,1-.32.53.55.55,0,0,1-.5-.09.58.58,0,0,1-.19-.33.71.71,0,0,1,1.2-.72.9.9,0,0,1,.26.56,1.15,1.15,0,0,1-1.24,1.38c-.15,0-.15,0-.44-.07a2,2,0,0,0-.77,0,1.06,1.06,0,0,0-.74.64c0,.12,0,.11,0,.27a1.65,1.65,0,0,1-.39.69,2,2,0,0,1-.23.22l-1.48-1-.91,1.32a1,1,0,0,1-.34.66.91.91,0,0,1-.7.21l-.13,0a1.57,1.57,0,0,0-1.28.09,1.5,1.5,0,0,0-.66.89,1.46,1.46,0,0,0,.09,1.17,1.2,1.2,0,0,0,.81.59,1,1,0,0,0,.84-.22,1,1,0,0,0,.29-.71,1,1,0,0,0-.13-.65.89.89,0,0,0-.52-.38.83.83,0,0,0-.71.13.76.76,0,0,0-.29.72.71.71,0,0,0,.4.53.6.6,0,0,0,.61-.08.47.47,0,0,0,.17-.44.56.56,0,0,0-.21-.27,1,1,0,0,0-.2-.14l0,.29.12.05a.25.25,0,0,1-.27.39.42.42,0,0,1-.29-.37.51.51,0,0,1,.32-.53.55.55,0,0,1,.5.09.58.58,0,0,1,.19.33.71.71,0,0,1-1.2.72.9.9,0,0,1-.26-.56,1.15,1.15,0,0,1,1.24-1.38c.15,0,.15,0,.44.07a2,2,0,0,0,.77,0,1.06,1.06,0,0,0,.74-.64c0-.12,0-.11,0-.27a1.65,1.65,0,0,1,.39-.69,2,2,0,0,1,.23-.22l1.48,1,.91-1.32a1,1,0,0,1,.34-.66.91.91,0,0,1,.7-.21l.13,0a1.57,1.57,0,0,0,1.28-.09,1.5,1.5,0,0,0,.66-.89A1.46,1.46,0,0,0,42.32,64.33Z" transform="translate(0 -1.02)"/><path class="cls-1" d="M27.87,64.33a1.2,1.2,0,0,0-.81-.59,1,1,0,0,0-.84.22,1,1,0,0,0-.29.71,1,1,0,0,0,.13.65.89.89,0,0,0,.52.38.83.83,0,0,0,.71-.13.76.76,0,0,0,.29-.72.71.71,0,0,0-.4-.53.6.6,0,0,0-.61.08.47.47,0,0,0-.17.44.56.56,0,0,0,.21.27,1,1,0,0,0,.2.14l0-.29-.12-.05a.25.25,0,0,1,.27-.39.42.42,0,0,1,.29.37.51.51,0,0,1-.32.53.55.55,0,0,1-.5-.09.58.58,0,0,1-.19-.33.71.71,0,0,1,1.2-.72.9.9,0,0,1,.26.56,1.15,1.15,0,0,1-1.24,1.38c-.15,0-.15,0-.44-.07a2,2,0,0,0-.77,0,1.06,1.06,0,0,0-.74.64c0,.12,0,.11,0,.27a1.65,1.65,0,0,1-.39.69,2,2,0,0,1-.23.22l-1.48-1-.91,1.32a1,1,0,0,1-.34.66.91.91,0,0,1-.7.21l-.13,0a1.57,1.57,0,0,0-1.28.09,1.5,1.5,0,0,0-.66.89,1.46,1.46,0,0,0,.09,1.17,1.2,1.2,0,0,0,.81.59,1,1,0,0,0,.84-.22,1,1,0,0,0,.29-.71,1,1,0,0,0-.13-.65.89.89,0,0,0-.52-.38A.83.83,0,0,0,19,70a.76.76,0,0,0-.29.72.71.71,0,0,0,.4.53.6.6,0,0,0,.61-.08.47.47,0,0,0,.17-.44.56.56,0,0,0-.21-.27,1,1,0,0,0-.2-.14l0,.29.12.05a.25.25,0,0,1-.27.39.42.42,0,0,1-.29-.37.51.51,0,0,1,.32-.53.55.55,0,0,1,.5.09.58.58,0,0,1,.19.33.71.71,0,0,1-1.2.72.9.9,0,0,1-.26-.56,1.15,1.15,0,0,1,1.24-1.38c.15,0,.15,0,.44.07a2,2,0,0,0,.77,0,1.06,1.06,0,0,0,.74-.64c0-.12,0-.11,0-.27a1.65,1.65,0,0,1,.39-.69,2,2,0,0,1,.23-.22l1.48,1,.91-1.32a1,1,0,0,1,.34-.66.91.91,0,0,1,.7-.21l.13,0a1.57,1.57,0,0,0,1.28-.09,1.5,1.5,0,0,0,.66-.89A1.46,1.46,0,0,0,27.87,64.33Z" transform="translate(0 -1.02)"/><path class="cls-1" d="M56.91,64.33a1.2,1.2,0,0,0-.81-.59,1,1,0,0,0-.84.22,1,1,0,0,0-.29.71,1,1,0,0,0,.13.65.89.89,0,0,0,.52.38.83.83,0,0,0,.71-.13.76.76,0,0,0,.29-.72.71.71,0,0,0-.4-.53.6.6,0,0,0-.61.08.47.47,0,0,0-.17.44.56.56,0,0,0,.21.27,1,1,0,0,0,.2.14l0-.29-.12-.05a.25.25,0,0,1,.27-.39.42.42,0,0,1,.29.37.51.51,0,0,1-.32.53.55.55,0,0,1-.5-.09.58.58,0,0,1-.19-.33.71.71,0,0,1,1.2-.72.9.9,0,0,1,.26.56,1.15,1.15,0,0,1-1.24,1.38c-.15,0-.15,0-.44-.07a2,2,0,0,0-.77,0,1.06,1.06,0,0,0-.74.64c0,.12,0,.11,0,.27a1.65,1.65,0,0,1-.39.69,2,2,0,0,1-.23.22l-1.48-1-.91,1.32a1,1,0,0,1-.34.66.91.91,0,0,1-.7.21l-.13,0a1.57,1.57,0,0,0-1.28.09,1.5,1.5,0,0,0-.66.89,1.46,1.46,0,0,0,.09,1.17,1.2,1.2,0,0,0,.81.59,1,1,0,0,0,.84-.22,1,1,0,0,0,.29-.71,1,1,0,0,0-.13-.65.89.89,0,0,0-.52-.38.83.83,0,0,0-.71.13.76.76,0,0,0-.29.72.71.71,0,0,0,.4.53.6.6,0,0,0,.61-.08.47.47,0,0,0,.17-.44.56.56,0,0,0-.21-.27,1,1,0,0,0-.2-.14l0,.29.12.05a.25.25,0,0,1-.27.39.42.42,0,0,1-.29-.37.51.51,0,0,1,.32-.53.55.55,0,0,1,.5.09.58.58,0,0,1,.19.33.71.71,0,0,1-1.2.72.9.9,0,0,1-.26-.56,1.15,1.15,0,0,1,1.24-1.38c.15,0,.15,0,.44.07a2,2,0,0,0,.77,0,1.06,1.06,0,0,0,.74-.64c0-.12,0-.11,0-.27a1.65,1.65,0,0,1,.39-.69,2,2,0,0,1,.23-.22l1.48,1,.91-1.32a1,1,0,0,1,.34-.66.91.91,0,0,1,.7-.21l.13,0a1.57,1.57,0,0,0,1.28-.09,1.5,1.5,0,0,0,.66-.89A1.46,1.46,0,0,0,56.91,64.33Z" transform="translate(0 -1.02)"/><path class="cls-1" d="M13.06,20.11a1.2,1.2,0,0,0-.81-.59,1,1,0,0,0-.84.22,1,1,0,0,0-.29.71,1,1,0,0,0,.13.65.89.89,0,0,0,.52.38.83.83,0,0,0,.71-.13.76.76,0,0,0,.29-.72.71.71,0,0,0-.4-.53.6.6,0,0,0-.61.08.47.47,0,0,0-.17.44.56.56,0,0,0,.21.27A1,1,0,0,0,12,21l0-.29-.12-.05a.25.25,0,0,1,.27-.39.42.42,0,0,1,.29.37.51.51,0,0,1-.32.53.55.55,0,0,1-.5-.09.58.58,0,0,1-.19-.33.71.71,0,0,1,1.2-.72.9.9,0,0,1,.26.56A1.15,1.15,0,0,1,11.69,22c-.15,0-.15,0-.44-.07a2,2,0,0,0-.77,0,1.06,1.06,0,0,0-.74.64c0,.12,0,.11,0,.27a1.65,1.65,0,0,1-.39.69,2,2,0,0,1-.23.22l-1.48-1L6.68,24a1,1,0,0,1-.34.66.91.91,0,0,1-.7.21l-.13,0A1.57,1.57,0,0,0,4.22,25a1.5,1.5,0,0,0-.66.89A1.46,1.46,0,0,0,3.65,27a1.2,1.2,0,0,0,.81.59,1,1,0,0,0,.84-.22,1,1,0,0,0,.29-.71A1,1,0,0,0,5.45,26a.89.89,0,0,0-.52-.38.83.83,0,0,0-.71.13.76.76,0,0,0-.29.72.71.71,0,0,0,.4.53A.6.6,0,0,0,5,26.95a.47.47,0,0,0,.17-.44.56.56,0,0,0-.21-.27,1,1,0,0,0-.2-.14l0,.29.12.05a.25.25,0,0,1-.27.39.42.42,0,0,1-.29-.37.51.51,0,0,1,.32-.53A.55.55,0,0,1,5,26a.58.58,0,0,1,.19.33.78.78,0,0,1-.27.82A.78.78,0,0,1,4,27.07a.9.9,0,0,1-.26-.56,1.25,1.25,0,0,1,.33-1.07A1.25,1.25,0,0,1,5,25.13c.15,0,.15,0,.44.07a2,2,0,0,0,.77,0A1.06,1.06,0,0,0,7,24.59c0-.12,0-.11,0-.27a1.65,1.65,0,0,1,.39-.69,2,2,0,0,1,.23-.22l1.48,1L10,23.09a1,1,0,0,1,.34-.66.91.91,0,0,1,.7-.21l.13,0a1.57,1.57,0,0,0,1.28-.09,1.5,1.5,0,0,0,.66-.89A1.46,1.46,0,0,0,13.06,20.11Z" transform="translate(0 -1.02)"/><path class="cls-1" d="M13,34.55a1.2,1.2,0,0,0-.81-.59,1,1,0,0,0-.84.22,1,1,0,0,0-.29.71,1,1,0,0,0,.13.65.89.89,0,0,0,.52.38.83.83,0,0,0,.71-.13.76.76,0,0,0,.29-.72.71.71,0,0,0-.4-.53.6.6,0,0,0-.61.08.47.47,0,0,0-.17.44.56.56,0,0,0,.21.27,1,1,0,0,0,.2.14l0-.29-.12-.05a.25.25,0,0,1,.27-.39.42.42,0,0,1,.29.37.51.51,0,0,1-.32.53.55.55,0,0,1-.5-.09.58.58,0,0,1-.19-.33.71.71,0,0,1,1.2-.72.9.9,0,0,1,.26.56,1.15,1.15,0,0,1-1.24,1.38c-.15,0-.15,0-.44-.07a2,2,0,0,0-.77,0,1.06,1.06,0,0,0-.74.64c0,.12,0,.11,0,.27a1.65,1.65,0,0,1-.39.69,2,2,0,0,1-.23.22l-1.48-1-.91,1.32a1,1,0,0,1-.34.66.91.91,0,0,1-.7.21l-.13,0a1.57,1.57,0,0,0-1.28.09,1.5,1.5,0,0,0-.66.89,1.46,1.46,0,0,0,.09,1.17,1.2,1.2,0,0,0,.81.59,1,1,0,0,0,.84-.22,1,1,0,0,0,.29-.71,1,1,0,0,0-.13-.65.89.89,0,0,0-.52-.38.83.83,0,0,0-.71.13.76.76,0,0,0-.29.72.71.71,0,0,0,.4.53.6.6,0,0,0,.61-.08A.47.47,0,0,0,5,40.95a.56.56,0,0,0-.21-.27,1,1,0,0,0-.2-.14l0,.29.12.05a.25.25,0,0,1-.27.39.42.42,0,0,1-.29-.37.51.51,0,0,1,.32-.53.55.55,0,0,1,.5.09.58.58,0,0,1,.19.33.78.78,0,0,1-.27.82.78.78,0,0,1-.92-.11.9.9,0,0,1-.26-.56A1.25,1.25,0,0,1,4,39.88a1.25,1.25,0,0,1,.91-.31c.15,0,.15,0,.44.07a2,2,0,0,0,.77,0A1.06,1.06,0,0,0,6.86,39c0-.12,0-.11,0-.27a1.65,1.65,0,0,1,.39-.69,2,2,0,0,1,.23-.22l1.48,1,.91-1.32a1,1,0,0,1,.34-.66.91.91,0,0,1,.7-.21l.13,0a1.57,1.57,0,0,0,1.28-.09,1.5,1.5,0,0,0,.66-.89A1.46,1.46,0,0,0,13,34.55Z" transform="translate(0 -1.02)"/><path class="cls-1" d="M13.06,49.52a1.2,1.2,0,0,0-.81-.59,1,1,0,0,0-.84.22,1,1,0,0,0-.29.71,1,1,0,0,0,.13.65.89.89,0,0,0,.52.38.83.83,0,0,0,.71-.13.76.76,0,0,0,.29-.72.71.71,0,0,0-.4-.53.6.6,0,0,0-.61.08.47.47,0,0,0-.17.44.56.56,0,0,0,.21.27,1,1,0,0,0,.2.14l0-.29-.12-.05a.25.25,0,0,1,.27-.39.42.42,0,0,1,.29.37.51.51,0,0,1-.32.53.55.55,0,0,1-.5-.09.58.58,0,0,1-.19-.33.71.71,0,0,1,1.2-.72.9.9,0,0,1,.26.56,1.15,1.15,0,0,1-1.24,1.38c-.15,0-.15,0-.44-.07a2,2,0,0,0-.77,0,1.06,1.06,0,0,0-.74.64c0,.12,0,.11,0,.27a1.65,1.65,0,0,1-.39.69,2,2,0,0,1-.23.22l-1.48-1-.91,1.32a1,1,0,0,1-.34.66.91.91,0,0,1-.7.21l-.13,0a1.57,1.57,0,0,0-1.28.09,1.5,1.5,0,0,0-.66.89,1.46,1.46,0,0,0,.09,1.17,1.2,1.2,0,0,0,.81.59,1,1,0,0,0,.84-.22,1,1,0,0,0,.29-.71,1,1,0,0,0-.13-.65.89.89,0,0,0-.52-.38.83.83,0,0,0-.71.13.76.76,0,0,0-.29.72.71.71,0,0,0,.4.53A.6.6,0,0,0,5,56.35a.47.47,0,0,0,.17-.44.56.56,0,0,0-.21-.27,1,1,0,0,0-.2-.14l0,.29.12.05a.25.25,0,0,1-.27.39.42.42,0,0,1-.29-.37.51.51,0,0,1,.32-.53.55.55,0,0,1,.5.09.58.58,0,0,1,.19.33.78.78,0,0,1-.27.82A.78.78,0,0,1,4,56.47a.9.9,0,0,1-.26-.56,1.25,1.25,0,0,1,.33-1.07A1.25,1.25,0,0,1,5,54.53c.15,0,.15,0,.44.07a2,2,0,0,0,.77,0A1.06,1.06,0,0,0,7,54c0-.12,0-.11,0-.27A1.65,1.65,0,0,1,7.41,53a2,2,0,0,1,.23-.22l1.48,1L10,52.49a1,1,0,0,1,.34-.66.91.91,0,0,1,.7-.21l.13,0a1.57,1.57,0,0,0,1.28-.09,1.5,1.5,0,0,0,.66-.89A1.46,1.46,0,0,0,13.06,49.52Z" transform="translate(0 -1.02)"/><path class="cls-1" d="M11.26,5.14a1,1,0,0,0-.29.71,1,1,0,0,0,.13.65.89.89,0,0,0,.52.38.83.83,0,0,0,.71-.13A.76.76,0,0,0,12.62,6a.71.71,0,0,0-.4-.53.6.6,0,0,0-.61.08.47.47,0,0,0-.17.44.56.56,0,0,0,.21.27,1,1,0,0,0,.2.14l0-.29-.12-.05A.25.25,0,0,1,12,5.7a.42.42,0,0,1,.29.37A.51.51,0,0,1,12,6.6a.55.55,0,0,1-.5-.09.58.58,0,0,1-.19-.33.71.71,0,0,1,1.2-.72.9.9,0,0,1,.26.56,1.25,1.25,0,0,1-.33,1.07,1.25,1.25,0,0,1-.91.31c-.15,0-.15,0-.44-.07a2,2,0,0,0-.77,0,1.06,1.06,0,0,0-.74.64c0,.12,0,.11,0,.27a1.65,1.65,0,0,1-.39.69,2,2,0,0,1-.23.22l-1.48-1L6.53,9.44a1,1,0,0,1-.34.66.91.91,0,0,1-.7.21l-.13,0a1.57,1.57,0,0,0-1.28.09,1.5,1.5,0,0,0-.66.89,1.46,1.46,0,0,0,.09,1.17,1.2,1.2,0,0,0,.81.59,1,1,0,0,0,.84-.22,1,1,0,0,0,.29-.71,1,1,0,0,0-.13-.65A.89.89,0,0,0,4.79,11a.83.83,0,0,0-.71.13.76.76,0,0,0-.29.72.71.71,0,0,0,.4.53.6.6,0,0,0,.61-.08A.47.47,0,0,0,5,11.91a.56.56,0,0,0-.21-.27,1,1,0,0,0-.2-.14l0,.29.12.05a.25.25,0,0,1-.27.39.42.42,0,0,1-.29-.37.51.51,0,0,1,.32-.53.55.55,0,0,1,.5.09.58.58,0,0,1,.19.33.78.78,0,0,1-.27.82.78.78,0,0,1-.92-.11.9.9,0,0,1-.26-.56A1.25,1.25,0,0,1,4,10.84a1.25,1.25,0,0,1,.91-.31c.15,0,.15,0,.44.07a2,2,0,0,0,.77,0A1.06,1.06,0,0,0,6.82,10c0-.12,0-.11,0-.27A1.65,1.65,0,0,1,7.26,9a2,2,0,0,1,.23-.22L9,9.81l.91-1.32a1,1,0,0,1,.34-.66.91.91,0,0,1,.7-.21l.13,0a1.57,1.57,0,0,0,1.28-.09A1.5,1.5,0,0,0,13,6.69a1.46,1.46,0,0,0-.09-1.17,1.33,1.33,0,0,0-.4-.43H11.33Z" transform="translate(0 -1.02)"/><path class="cls-1" d="M12.91,64a1.2,1.2,0,0,0-.81-.59,1,1,0,0,0-.84.22,1,1,0,0,0-.29.71,1,1,0,0,0,.13.65.89.89,0,0,0,.52.38.83.83,0,0,0,.71-.13.76.76,0,0,0,.29-.72.71.71,0,0,0-.4-.53.6.6,0,0,0-.61.08.47.47,0,0,0-.17.44.56.56,0,0,0,.21.27,1,1,0,0,0,.2.14l0-.29-.12-.05a.25.25,0,0,1,.27-.39.42.42,0,0,1,.29.37.51.51,0,0,1-.32.53.55.55,0,0,1-.5-.09.58.58,0,0,1-.19-.33.71.71,0,0,1,1.2-.72.9.9,0,0,1,.26.56,1.15,1.15,0,0,1-1.24,1.38c-.15,0-.15,0-.44-.07a2,2,0,0,0-.77,0,1.06,1.06,0,0,0-.74.64c0,.12,0,.11,0,.27a1.65,1.65,0,0,1-.39.69,2,2,0,0,1-.23.22l-1.48-1-.91,1.32a1,1,0,0,1-.34.66.91.91,0,0,1-.7.21l-.13,0a1.57,1.57,0,0,0-1.28.09,1.5,1.5,0,0,0-.66.89,1.46,1.46,0,0,0,.09,1.17,1.2,1.2,0,0,0,.81.59,1,1,0,0,0,.84-.22,1,1,0,0,0,.29-.71,1,1,0,0,0-.13-.65.89.89,0,0,0-.52-.38.83.83,0,0,0-.71.13.76.76,0,0,0-.29.72.71.71,0,0,0,.4.53.6.6,0,0,0,.61-.08A.47.47,0,0,0,5,70.38a.56.56,0,0,0-.21-.27,1,1,0,0,0-.2-.14l0,.29.12.05a.25.25,0,0,1-.27.39.42.42,0,0,1-.29-.37.51.51,0,0,1,.32-.53.55.55,0,0,1,.5.09.58.58,0,0,1,.19.33.78.78,0,0,1-.27.82.78.78,0,0,1-.92-.11.9.9,0,0,1-.26-.56A1.25,1.25,0,0,1,4,69.31,1.25,1.25,0,0,1,4.87,69c.15,0,.15,0,.44.07a2,2,0,0,0,.77,0,1.06,1.06,0,0,0,.74-.64c0-.12,0-.11,0-.27a1.65,1.65,0,0,1,.39-.69,2,2,0,0,1,.23-.22l1.48,1L9.88,67a1,1,0,0,1,.34-.66.91.91,0,0,1,.7-.21l.13,0A1.57,1.57,0,0,0,12.34,66a1.5,1.5,0,0,0,.66-.89A1.46,1.46,0,0,0,12.91,64Z" transform="translate(0 -1.02)"/><circle class="cls-1" cx="0.94" cy="22.83" r="0.91"/><circle class="cls-1" cx="0.91" cy="37.25" r="0.91"/><circle class="cls-1" cx="1.15" cy="52.11" r="0.91"/><circle class="cls-1" cx="1.12" cy="66.54" r="0.91"/><circle class="cls-1" cx="1.13" cy="8.32" r="0.91"/><polygon class="cls-1" points="9.17 1.73 9.62 2.14 9.08 2.7 7.25 0.97 6.82 0.55 7.35 0 9.17 1.73"/><polygon class="cls-1" points="23.97 1.76 24.41 2.18 23.87 2.73 22.06 0.98 21.62 0.56 22.16 0.02 23.97 1.76"/><polygon class="cls-1" points="38.42 1.74 38.87 2.15 38.35 2.71 36.49 1.01 36.05 0.6 36.57 0.04 38.42 1.74"/><polygon class="cls-1" points="53 1.78 53.43 2.21 52.88 2.75 51.11 0.97 50.68 0.53 51.23 0 53 1.78"/><polygon class="cls-1" points="67.64 1.68 68.1 2.08 67.58 2.65 65.7 0.97 65.25 0.56 65.77 0 67.64 1.68"/></svg>